<svg xmlns="http://www.w3.org/2000/svg" viewBox="0 0 180 140">
    <path d="M157.92 50.95c-9.81 0-17.35 2.65-21.91 7.94-4.34 4.86-6.4 12.15-6.4 21.64 0 19.87 9.36 29.58 28.31 29.58 6.4 0 10.5-.66 18.5-2.65h.45v-12.8h-18.95c-5.93 0-7.99-3.76-7.99-14.13 0-10.38 2.06-14.13 8-14.13h3.87v4.64h15.07V53.82h-.46c-7.99-2.21-12.1-2.87-18.49-2.87zm-55.24 0c-5.71 0-9.82 1.98-13.47 6.4v-27.6H64.78v14.57h5.02v50.34h-5.02v14.57h32.19c18.03 0 27.4-9.94 27.4-28.92 0-19.2-7.54-29.36-21.7-29.36zM95.6 93.77h-6.4V72.8c0-5.08 4.35-6.84 7.09-6.84 6.39 0 7.76 5.08 7.76 14.13 0 9.27-2.74 13.68-8.45 13.68zm-39.95.67V70.37c0-16.11-9.59-19.42-23.97-19.42-6.39 0-14.6.88-23.74 2.65h-.46v12.8h22.15c5.7 0 6.62 1.54 6.62 4.64v2.64H23.46c-7.3 0-19.63 2.43-19.63 17.89 0 9.05 5.25 18.32 17.12 18.32 5.94 0 10.96-1.1 15.3-6.85l1.6 5.74h22.82V94.21h-5.02zm-19.4-5.74c0 5.3-4.34 6.84-7.08 6.84-3.88 0-5.93-1.55-5.93-4.86 0-3.3 1.82-5.08 5.93-5.08h6.85v3.1z"/>
</svg>
