<svg xmlns="http://www.w3.org/2000/svg" viewBox="0 0 140 140">
    <path d="M107.97 94.52c.01 3.14.02 7.42-2.09 9.53a4.58 4.58 0 0 1-3.41 1.27 3.6 3.6 0 0 1-2.74-1.06c-2.4-2.35-2.77-7.86-2.77-10.94V67.4c0-3.3.26-7.93 2.4-10.08a4.66 4.66 0 0 1 3.47-1.31 4.1 4.1 0 0 1 3.05 1.16c2.1 2.09 2.1 6.48 2.1 9.4v27.49zm3.18-55.1c-6.56 0-11.44 2.32-14.19 6.75V18.46H76.98v101.16h18.66v-6.96a18.07 18.07 0 0 0 15.14 9.13c11.4-.4 17.18-8.96 17.18-25.45v-33.4c0-4.91-.81-13.97-6.25-19.4-2.75-2.74-6.3-4.13-10.56-4.13zm-73.44-3.94c9.9.24 13.07.93 13.18 11.03v39.53c.22 7.2.22 11.74-2.4 14.26-1.91 1.84-5.34 2.54-10.78 2.22zM62.4 22.67c-6.82-3.94-16-4.27-24.08-4.27H15.56v101.16h28.3c6.16 0 13.24-.5 19.03-4.28 6.08-3.81 9.1-10.3 9.23-19.84V45.3c0-8.37-1.16-17.6-9.73-22.63z"/>
</svg>
