<svg xmlns="http://www.w3.org/2000/svg" viewBox="0 0 160 140">
    <path d="M36.85 31.32l-.12 42.44-.1 42.43 1.43.19h.01c5.18.65 12.66-.1 17.61-1.8 4-1.36 8.66-4.45 11.11-7.35 5.9-6.97 8.5-20.14 7.82-39.6-.58-16.63-2.35-23.5-7.53-29.16-4.7-5.12-11-7.1-22.7-7.13zM6.8 27.5s14.56.08 22.14-.05c5.05-.1 9.25-.12 12.84-.1l.02-.12c10.74.09 15.93.7 22 1.95 15.1 3.13 25.03 11.19 29.58 24.09 2.2 6.16 2.87 10.8 2.85 19.5-.02 8.67-.84 13.75-3.2 20.02-5.36 14.16-17.07 23.17-34.44 26.5-4.06.77-6.53.83-28.39.7-14.28-.1-24.05-.33-24.2-.6-.15-.22-.17-1.03-.07-1.77l.2-1.36h10.98V31.53H6.85zm120.44 59.31l-4.55 2.36c-8.46 4.4-10.4 7.5-10.1 16.18.2 5.38 1.1 7.85 3.4 9.32.66.4 2.1.75 3.24.76 2.86.02 4.73-1.38 6.38-4.77l1.33-2.73.15-10.56zm-6.12-30.1c11.56 0 18.7 3.72 21.65 11.3 1 2.54 1.02 3.04 1.27 24.45.14 12.01.3 21.89.34 21.93l.79.8c1.06 1.1 3.46.89 4.98-.43 1.62-1.39 2.55-1.44 3.22-.17.65 1.25 0 2.56-1.93 3.9-3.37 2.33-12.36 2.6-16.8.5-2.44-1.15-5.05-3.52-5.5-4.99-.27-.87-1.1-1.15-1.1-.38 0 .83-3.22 4.15-4.85 5a18.7 18.7 0 0 1-4.21 1.34 34.6 34.6 0 0 1-12.04-.17c-7.8-1.75-11.9-6.61-11.9-14.13 0-4.6 1.2-7.56 4.17-10.42 2.75-2.63 4.9-3.71 13.75-6.87 8-2.86 11.73-4.61 13.1-6.16.79-.9.9-1.76 1.02-8.2.16-7.96-.2-10.19-1.97-12-2.34-2.4-7.12-2.46-9.42-.1-1.26 1.3-1.37 2.44-.92 10.3.22 3.94-.36 5.32-2.8 6.69-2.2 1.22-8.7 1.14-10.4-.14-1.82-1.38-2.8-3.66-2.8-6.6 0-9.43 8.7-15.45 22.35-15.45z"/>
</svg>
