<svg xmlns="http://www.w3.org/2000/svg" viewBox="0 0 205 140">
    <path d="M63.18 55.32c-2.57-13.17-17.05-10.9-27.23-10.5l14.79 64.76h24.7L63.17 55.32M179.3 80.2c-1.44-2.3-1.26-4.92.58-6.8 1.63-3.03 3.64-5.95 5.45-8.95 2.23-3.94 4.9-8.28 7.4-12.06.86-1.51 1.96-3.13 2.72-4.67l.58-.78.2-.58.38-.59.4-.38.19-.4v-.19h-24.9l-.2.2-.39.77-.39.4-.39.77-.38.58-.4.78-.59.79c-2.12 3.68-4.4 7.08-6.6 10.68-2.27 4.86-8.19 11.93-9.34 16.93-.5 3.45 7.45 14.06 9.14 17.3 1.98 3.19 4.18 7.17 6.22 10.13.39 1.36 1.5 2.16 2.33 3.89l.4.58.39.78.2.19h24.89l-17.9-29.36m-65.54-36.78c-3.9.4-5.99 1.15-8.94 3.89-2.08 1.83-4.06 6.39-3.7 9.14-.23 6.81 5.73 13.03 12.64 12.85 17.22-.54 17.17-25.04 0-25.88m14.4 1.36h22.76v64.77h-22.77zm-51.35 0h22.76v64.77H76.79zm-64.96 0h22.95v64.77H11.83z"/>
</svg>
