<?xml version="1.0" standalone="no"?>
<!DOCTYPE svg PUBLIC "-//W3C//DTD SVG 20010904//EN"
 "http://www.w3.org/TR/2001/REC-SVG-20010904/DTD/svg10.dtd">
<svg version="1.0" xmlns="http://www.w3.org/2000/svg"
 width="700.000000pt" height="700.000000pt" viewBox="0 0 700.000000 700.000000"
 preserveAspectRatio="xMidYMid meet">
<metadata>
Created by potrace 1.11, written by Peter Selinger 2001-2013
</metadata>
<g transform="translate(0.000000,700.000000) scale(0.100000,-0.100000)"
fill="#000000" stroke="none">
<path d="M3265 6994 c-450 -45 -721 -107 -1070 -246 -1028 -409 -1820 -1316
-2089 -2393 -76 -303 -101 -518 -101 -855 0 -482 73 -866 247 -1305 409 -1028
1316 -1820 2393 -2089 303 -76 518 -101 855 -101 482 0 866 73 1305 247 1028
409 1820 1316 2089 2393 76 303 101 518 101 855 0 337 -25 552 -101 855 -207
831 -716 1555 -1439 2047 -455 310 -955 496 -1540 574 -104 14 -564 27 -650
18z m270 -2031 c117 -33 183 -71 266 -153 86 -85 134 -170 171 -305 l23 -80 0
-900 c0 -842 -1 -905 -19 -980 -60 -261 -204 -417 -441 -481 -100 -27 -360
-27 -460 0 -225 60 -370 210 -437 451 l-23 80 0 915 0 915 23 85 c73 267 240
422 507 470 83 15 310 5 390 -17z m1610 2 c191 -52 333 -183 402 -372 30 -82
53 -231 53 -340 l0 -83 -208 0 -208 0 -11 128 c-12 152 -33 205 -95 249 -35
24 -53 28 -117 31 -164 7 -234 -78 -234 -283 0 -134 33 -232 115 -345 22 -30
154 -167 293 -305 251 -249 314 -323 374 -442 75 -151 101 -262 101 -442 0
-265 -64 -443 -204 -568 -113 -100 -233 -142 -432 -150 -278 -11 -471 70 -591
250 -86 127 -123 287 -123 523 l0 124 214 0 214 0 4 -167 c5 -185 13 -218 68
-269 41 -39 82 -52 163 -53 105 -1 166 32 210 114 19 35 22 56 22 165 0 113
-3 131 -26 188 -57 134 -86 170 -355 437 -266 264 -314 319 -379 435 -128 227
-160 546 -79 801 52 163 178 298 334 355 126 45 363 55 495 19z m-3195 -1127
c0 -1206 0 -1197 51 -1273 14 -21 45 -46 76 -61 48 -24 62 -26 173 -25 l120 1
-2 -203 -3 -202 -190 0 c-170 0 -198 3 -265 24 -202 62 -319 189 -382 416
l-23 80 -3 1183 -3 1182 226 0 225 0 0 -1122z"/>
<path d="M3207 4566 c-80 -29 -122 -95 -137 -209 -12 -96 -12 -1600 0 -1697
18 -133 82 -202 201 -216 120 -14 220 45 253 149 15 47 16 139 14 937 l-3 886
-26 49 c-15 30 -42 62 -67 79 -35 25 -52 30 -119 33 -51 2 -91 -2 -116 -11z"/>
</g>
</svg>
