<?xml version="1.0" standalone="no"?>
<!DOCTYPE svg PUBLIC "-//W3C//DTD SVG 20010904//EN"
 "http://www.w3.org/TR/2001/REC-SVG-20010904/DTD/svg10.dtd">
<svg version="1.0" xmlns="http://www.w3.org/2000/svg"
 width="700.000000pt" height="700.000000pt" viewBox="0 0 700.000000 700.000000"
 preserveAspectRatio="xMidYMid meet">
<metadata>
Created by potrace 1.11, written by Peter Selinger 2001-2013
</metadata>
<g transform="translate(0.000000,700.000000) scale(0.100000,-0.100000)"
fill="#000000" stroke="none">
<path d="M3285 6994 c-203 -20 -276 -28 -375 -45 -610 -105 -1195 -376 -1665
-772 -95 -81 -310 -294 -394 -392 -468 -542 -742 -1176 -833 -1925 -17 -137
-17 -583 0 -720 69 -569 227 -1028 514 -1491 145 -236 311 -440 525 -649 204
-200 371 -332 592 -468 463 -287 922 -445 1491 -514 137 -17 583 -17 720 0
569 69 1028 227 1491 514 360 222 692 528 958 882 323 430 549 960 640 1501
38 223 46 327 46 585 0 258 -8 362 -46 585 -105 627 -382 1216 -800 1700 -84
98 -299 311 -394 392 -518 437 -1148 710 -1845 798 -117 15 -536 28 -625 19z
m-1010 -2059 c295 -80 454 -320 455 -682 l0 -113 -210 0 -210 0 0 78 c0 221
-61 318 -206 330 -107 8 -182 -33 -220 -123 -25 -60 -30 -205 -10 -285 40
-156 114 -261 329 -462 336 -315 426 -432 500 -648 74 -216 57 -512 -39 -709
-112 -227 -379 -347 -693 -311 -298 34 -475 185 -547 468 -19 77 -24 124 -26
260 l-3 167 211 3 211 2 6 -157 c5 -166 14 -207 55 -262 36 -49 92 -71 183
-71 60 0 85 5 120 23 117 62 151 258 78 452 -35 93 -111 194 -241 321 -391
380 -445 442 -519 599 -72 153 -84 215 -84 435 0 174 2 204 23 275 68 236 220
373 467 421 88 17 287 11 370 -11z m1660 -18 c146 -49 234 -113 312 -230 57
-85 97 -197 113 -317 8 -59 10 -350 8 -950 -3 -858 -4 -866 -26 -945 -66 -237
-198 -377 -422 -447 -66 -20 -95 -23 -240 -23 -186 0 -247 12 -365 70 -92 45
-153 99 -212 188 -57 85 -97 197 -113 317 -8 59 -10 350 -8 950 3 858 4 866
26 945 35 127 85 219 161 294 93 93 174 133 356 175 11 3 90 3 175 2 136 -3
165 -6 235 -29z m1285 -1135 c0 -1242 -2 -1203 57 -1272 51 -61 94 -75 231
-75 l122 0 0 -201 0 -201 -71 -7 c-98 -10 -278 3 -367 25 -157 40 -273 132
-342 274 -50 100 -68 170 -80 310 -11 123 -14 2268 -3 2278 3 4 107 7 230 7
l223 0 0 -1138z"/>
<path d="M3570 4524 c-46 -20 -77 -50 -103 -99 -22 -40 -22 -41 -25 -930 -3
-994 -5 -959 66 -1030 41 -40 90 -57 173 -56 96 0 160 37 202 116 22 40 22 41
25 924 3 990 5 956 -66 1030 -22 23 -53 43 -77 50 -56 15 -154 13 -195 -5z"/>
</g>
</svg>
