<svg xmlns="http://www.w3.org/2000/svg" viewBox="0 0 140 140">
    <path d="M73.1 8.58c-2.88 4.57-11.19 7.68-19.44 9.28C39 20.68 27.74 20.3 27.74 34.84v.03h-.03v43.58h.01l.03 1.96c-.94-1.33-3.73-3.84-11.14-2.82a11.6 11.6 0 0 0-9.98 8.2c-.96 3.04-1.15 12.06 2.56 16.93 3.31 4.35 8.97 9.59 21.93 8.02 12.96-1.57 21.27-9.25 25.23-13.4a67.81 67.81 0 0 0 6.27-7.39l.05 6c0 7.3 5.44 11.86 11.64 15.02l16.16-11.32v-2.7c-.66 1.18-2.38 1.82-4.23 1.85-2.04.04-4.21-.9-4.22-3.35l-.14-5.97V31.63c0-9.63 4.92-10.06 4.92-10.06V20.5C75.86 20.13 74.12 8.6 74.12 8.6zM54.89 22.2c3.35 0 7.21 2.18 7.52 6.27.22 2.98.18 10.69.18 10.69v15.26H46.9V42.6l.04-2.27s.17-8.21.16-11.55c-.02-3.85 3.54-6.59 7.76-6.59zm-7.94 39.66h15.7V75.5a2.91 2.91 0 0 1-.01-.07c.06 3.4-.45 8.5-4.77 13.35-3.96 4.48-9.02 6.1-13.52 7.4-5.27 1.52-13.57 1.2-18.11-1.83a7.34 7.34 0 0 1-2.42-2.38c1.42.5 3.52.5 4.95.5 8.22 0 18.2-2.98 18.2-12.82V63.63zM27.08 83.03c.45 0 .77.04.77.04.06.79.04 2.6.04 2.6 0 3.98-1.9 4.85-4.52 4.74-.07-.89-.04-2.86-.04-2.86 0-2.18.77-3.32 1.66-3.9a1 1 0 0 1 .45-.28c.59-.27 1.2-.33 1.64-.34z"/>
    <path d="M118.97 46.09l-12.79 10.56c-1.04-4.78-5.02-7.97-9.54-10.27L82.99 57.55l1.04 1.2s2.35-1.77 4.03-1.51c1.55.24 2.1.9 2.1 2.95l.17 5.43-.01 62.84c0 4.05-1.98 6.98-4.8 9.35 0 0 8.78.45 16.38-7.46 0 0 4.22 4.32 10.53 3.02 0 0-5.35-1.76-5.99-10.9v-20.58l12.53 8.96c5.23-2.66 11.56-6.82 11.56-12.97v-38.8c0-6.18-6.32-10.33-11.56-13zm-8.5 11.06c1.86-.03 3.85.82 3.86 3.04l.11 5.44h.02V94.9l-.07 3.03c-.06 2.72-2.06 3.49-3.9 3.46-1.7-.04-2.98-.67-3.6-1.72a3.88 3.88 0 0 1-.4-1.6V61.13c0-.69.06-1.55.47-2.3.6-1.07 1.84-1.64 3.52-1.68z"/>
</svg>
