<svg xmlns="http://www.w3.org/2000/svg" viewBox="0 0 160 140">
    <path d="M105.21 21.11a17.9 17.9 0 0 0-7.05 1.93.57.59 0 0 0-.02 0c-7.59 4.12-11.7 14.1-9.89 23.2.91 4.85 4.34 8.21 9.3 9.09 2.97.53 6.95-.3 9.36-3.01.06-.07.12-.13.16-.2a.66.68 0 0 0 .07-.15c.02-.06.03-.2.03-.2a.57.59 0 0 0-.12-.35l-.97-1.28a.57.59 0 0 0-.76-.13l-.1.07a.57.59 0 0 0-.04.04 8.91 8.91 0 0 1-5.56 2.25c-2.83.01-6.38-2.06-7.37-5.46-.9-3.73.5-7.58 3.65-10.13 2.67-1.72 6.69-1.87 9.69-.37a.57.59 0 0 0 .01 0l.07.04.26.14 1 .54 3.54 1.92 10.76 5.82a66939.95 69125.58 0 0 1 14.67 7.96 25.06 25.06 0 0 0-11.75 14.38c-1.43 4.56.47 11.04 2.2 14.41 1.68 3.27 3.4 6.32 3.4 9.85a.57.59 0 0 0 0 .02s.1 2.79-1.08 4.77a.57.59 0 0 0-.02.05c-.51 1.05-1.92 2.14-3.22 2.9-1.15.67-1.95.98-2.17 1.07-.34-.22-3.72-2.42-6.6-7.33-3.05-5.15-5.33-13.07-2.15-24.32 2.15-7.74 9.84-13.34 9.84-13.34a.57.59 0 0 0 .1-.86l-.86-1.05a.57.59 0 0 0-.64-.17s-19.28 8.04-22.77 24.85c-1.56 7.62-1.53 18.84 4.8 27.65 7.48 10.4 23.33 15.04 34.07 9.65 4.02-1.71 7.7-5.06 10.48-8.9 4.1-5.66 5.5-14.4 5.5-14.4a.57.59 0 0 0-.55-.68l-1.7-.02a.57.59 0 0 0-.56.47s-.26 1.36-.85 3.06c-.6 1.7-1.53 3.72-2.78 4.97-3.57 3.63-8.55 4.6-13.04 4.42a24.64 24.64 0 0 1-8.7-1.92A48.36 48.36 0 0 0 133 99a23.67 23.67 0 0 0 7.42-8.27c1.55-2.85 2.27-5.47 2.27-7.14.02-.17.71-6.1-3.3-13.23a34.62 34.62 0 0 1-2.7-5.6c-1.87-5.17 2.13-9.9 2.64-10.48 4.12.98 8.73.3 12-2.18a.57.59 0 0 0 .04-.04c3.6-3.37 5.34-6.85 5.55-10.23a8.64 8.64 0 0 0-3.24-7.44c-1.75-1.45-3.56-2.02-3.56-2.02a.57.59 0 0 0-.67.3l-.83 1.7a.57.59 0 0 0 .25.8s1.01.51 2.06 1.24c.53.36 1.05.77 1.45 1.17.4.4.64.8.69 1.03.23 1.2-.1 2.08-.5 2.57a2.4 2.4 0 0 1-1.08.56c-.52.12-1.11.1-1.66-.17l-25.46-13.68c-6.14-3.41-12.3-7.15-19.15-6.77zM68.54 69.62c.04.09.08.14.14.32.17.53.38 1.56.4 3.36v34.1c0 1.12.1 2.67-.53 4.12-.02.05-.21.4-.54.76a5.06 5.23 0 0 1-1.41 1.11c-1.24.65-3.08 1-5.8-.19-3.97-1.74-5.53-4.4-6.15-6.75a10.57 10.57 0 0 1-.31-2.76 6.14 6.14 0 0 0 4.86 2.96c3.28.25 6-2.46 6.68-5.33a6.94 6.94 0 0 0-1-5.9 6.16 6.16 0 0 0-1.73-1.67V70.27c.36.03.85.09 2.2-.04 1.58-.14 2.83-.5 3.2-.6zm-1.73-37.05a20.68 20.68 0 0 0-1.56 8.22c0 4.05 1.94 8.07 4.2 10.94.91 1.17 1.94 2.14 2.72 3.26a6.9 6.9 0 0 1 1.33 4.2 7.2 7.2 0 0 1-1.22 3.68c-.54.85-.95 1.26-1.13 1.45-1.59-.44-3.33-.7-4.66-.82-1.26-.17-2.51-.1-3.19-.08V35.69a21.64 21.64 0 0 1 3.51-3.12zM28.36 21.38c-6.12-.2-14.69 2.19-20.3 8.16-3.52 3.75-5.3 8.92-5.3 14.12a.57.59 0 0 0 0 .02c.2 6.67 2.4 11.3 4.55 14.26a16.82 16.82 0 0 0 4.3 4.25.57.59 0 0 0 .8-.25l.52-1.12a.57.59 0 0 0-.1-.64s-3.1-3.58-3.44-9.06a11.9 11.9 0 0 1 7.08-11.37c6.2-2.75 13.17-.1 18.78 7.33a35.83 35.83 0 0 1 7.35 22.04c0 9.92-4.6 19.54-4.6 19.54a.57.59 0 0 0 .04.6l.6.86a.57.59 0 0 0 .82.1S55.34 76.6 55.34 50.55c0-1.44-.18-3.15-.42-4.62.07-.15.65-1.45 2.56-3.87l1.76-2.25v23.97c-.29.08-.62.13-1.24.48-.42.24-.86.55-1.22.98-.35.43-.61 1-.61 1.66 0 1.4.98 2.27 1.84 2.72.62.33.93.36 1.23.42v22.68c-.82-.08-3.02-.17-5.48 1.92a.57.59 0 0 0-.05.05l-6.86 7.51c-.37-.36-3.56-3.5-7.26-7.32a242.9 242.9 0 0 1-5.53-5.86 62.62 62.62 0 0 1-2-2.3 8.8 8.8 0 0 1-1-1.39 10.73 10.73 0 0 1-.97-4.77c0-1.48.39-2.75.99-3.7.9-1.39 3.49-1.48 3.49-1.48a.57.59 0 0 0 .56-.53l.08-.9a.57.59 0 0 0-.55-.64s-4.77-.08-8.56 3.37a18.38 18.38 0 0 0-5.88 12.83c-.07 4.17.89 7.31 3.32 11.43.6.98 1.78 2.38 3.26 4 1.47 1.62 3.24 3.44 4.93 5.14 3.38 3.42 6.5 6.38 6.5 6.38a.57.59 0 0 0 .81-.05l12.03-14.37c-.18 1.8-.29 4.63 1.16 7.69 2.6 5.47 7.1 7.94 13.67 7.94 8.01 0 13.8-4.15 16.98-12.28 2.03-5.17 2.45-11.05 2.45-15.1 0-6.2-1-12.46-2.62-16.09-2-4.49-5.62-6.94-7.3-7.88.94-.63 3.1-2.12 5.89-4.9 3.5-3.47 4.97-7.49 4.77-11.3-.27-4.94-2.15-8.84-5.46-13-2.94-3.74-3.78-6.63-3.78-8.56 0-.66.07-1.15.14-1.47a.57.59 0 0 0 0-.03c.1-.68.82-1.52 1.56-2.12.74-.61 1.44-1 1.44-1a.57.59 0 0 0 .3-.51v-.86a.57.59 0 0 0-.78-.54s-11.06 4.76-16.85 9.63a49.44 49.44 0 0 0-8.95 9.94C49.05 29.33 39.4 21.8 28.36 21.38z"/>
</svg>
