<svg xmlns="http://www.w3.org/2000/svg" viewBox="0 0 650 300">
    <path d="M277.2 77.36l-14.36 15.37-.23 1.47c4.98 4.07 9.05 9.27 14.93 11.08.8-9.04.23-18.65.57-27.92zM266 56.68V80.3h.34c5.65-6.44 14.02-11.64 14.93-19.55a78.9 78.9 0 0 1-15.15-4.07zm30.53-27.47a20.49 20.49 0 0 1 2.3 13.79c-1.13 6.78-7.24 12.55-12.78 16.62l.23 1.47 10.86 11.64c-1.47 9.6 3.39 22.38-4.75 29.39l-19 22.27h-1.7c-9.04-5.77-17.3-13.34-25.78-20.57v-.9l9.95-10.75c-.9-2.6-4.4-4.4-5.54-7-2.94-6.67-1.13-15.03-1.7-22.61 7.02-8.14 15.84-16.05 24.2-22.61 4.08 2.26 9.62 4.86 14.03 1.35 2.37-2.03 3.28-4.4 3.5-7.23.57-3.84-2.94-6.44-5.54-8.48-5.54-2.26-11.99-.22-16.62 2.6a3.4 3.4 0 0 1-3.84-2.03c1.13-2.83 4.75-3.73 7.35-5.2 9.38-3.4 19.56 0 24.88 8.14zm161 32.78a5.54 5.54 0 0 0-3.4 4.07l.23 35.38c1.7 2.94 4.98 4.63 7.58 5.88-.34-13.68.23-27.92-.57-41.6-.56-1.69-1.47-3.72-3.84-3.72zm-11.2-31.2c-.9 2.71-3.85 3.28-5.65 5.31-2.94 7.58 7 9.61 9.95 14.7 2.03 1.8 1.8 4.74 3.16 6.44 4.98-3.17 9.05-8.14 13.57-12.44h2.04c17.53 11.88 9.61 34.82 11.65 53.47-8.14 9.04-17.53 17.75-26.57 26.1h-1.4c-5.88-5.53-12.9-9.83-18.43-15.37-.34-1.46.56-2.26 1.13-3.16l-.23-40.46c-3.28-7.8-9.38-17.41-3.84-26.45 1.13-4.52 6.44-9.04 10.86-10.17 1.47.34 2.94.68 3.73 2.15zm119.9 30.52v26c3.73-1.24 7.24-5.65 9.27-9.04a253 253 0 0 0-9.38-16.95zm11.31-15.6c4.97 8.14 9.61 16.5 14.02 24.64l-.23 1.47c-8.48 8.48-18.09 15.7-25.44 24.4.23 4.3 2.6 8.37 6.79 10.75 2.26 1.7 4.86 1.13 7.46.56 1.47-.56 2.38-1.7 4.19-1.7 1.35.8 1.35 2.6.56 3.74l-16.06 14.8c-8.48-3.16-19.68-9.03-20.47-19.43-1.8-11.08-.68-23.51-.9-35.5 8.7-8.7 18.66-16.27 28.27-24.4zm-228 11.31l-.9-.34V82.9a29.2 29.2 0 0 0 9.95-9.38zm25.1 8.48l-.34 1.7-25.44 22.94c-.8 4.97 2.04 9.27 6.45 11.87 2.03 1.13 4.74 2.38 7.35 1.13 1.7 0 2.6-3.16 4.63-1.7a5.2 5.2 0 0 1 .9 3.29l-16.61 15.03c-7.92-2.6-19-7.24-19.9-17.41-2.94-11.3-1.13-24.41-1.81-36.85l1.47-2.38 27.48-22.95 1.47.23zm-154.1-9.04l-.23 27 9.95-9.83a142.5 142.4 0 0 0-9.72-17.18zm14.36-11.3l11.31 20.35-.8 2.26-24.53 21.8c-.9 3.4 0 7.58 3.16 9.84a12.52 12.52 0 0 0 7.7 4.4c3.16.91 5.53-5.53 8.14-1.12-3.51 7.46-11.65 10.74-16.96 16.84-7.92-2.94-18.43-7.57-19.9-17.52-2.6-11.3-1.14-24.87-1.14-37.2 8.71-8.7 19-16.5 28.61-24.63 2.38.56 3.28 3.16 4.53 4.97zm161.7 11.08c-1.47.45-2.04 1.92-2.04 3.39l.23 36.96 1.81 3.39c1.13.9 2.26 2.37 3.73 1.47 2.38-1.13 2.94-3.4 3.85-5.43.34-10.85.56-22.38-.34-32.89-1.7-2.6-3.73-6.44-7.24-7zm12.5-15.85c5.88 5.66 11.08 10.85 16.96 16.05.23 1.7-1.47 2.6-2.04 3.73l-.33 40.13c.56 1.47 2.03 2.27 3.27 1.7 1.14-.57 2.04-1.36 3.4-1.13 1.24.9 1.8 2.26.9 3.5l-16.62 14.81c-5.65-2.26-9.38-8.13-10.18-13.56h-1.5l-14.02 13.56h-1.8c-17.2-11.87-8.15-35.38-10.87-53.69 9.73-9.38 20.47-16.62 30.2-26zM124.9 51.47l-.34 44.76c1.13 3.17 4.75 4.98 7.01 7.24.9 1.13 2.38.34 2.94-.8V66.81c-.3-6.33-3.2-13-9.7-15.37zm7.01-46.57c0 1.02 0 2.15-1.13 2.38-3.85-.23-9.39-3.17-12.33 1.13-1.7 1.8-2.04 4.18-2.6 6.44 2.6 11.3 15.15 14.02 22.84 21.25 17.53 12.77 13.68 34.81 14.25 55.16.56 6.78-7.58 10.74-11.65 14.81l-17.3 14.58-20.7-15.94c0-2.03 2.04-2.94 2.61-4.74.9-13.9-.34-29.05 1.13-42.61 4.75-3.28 10.86-4.41 14.36-9.95-8.82-8.14-19.56-17.41-17.53-31.08a19.09 19.09 0 0 1 9.61-13.56c5.66-4.18 13.57-2.38 18.43 2.26zm45.91 46.12c1.47 2.38 1.7 5.32 3.5 7.58 3.51-4.52 5.89-10.74 9.4-15.37h.78l10.63 13.1c-2.15 6.11-6.44 10.97-10.29 16.5-3.5-2.82-6.78-6.89-10.18-9.6l-.68.9.34 36.28c.57 1.81 2.27 3.85 4.07 4.07 2.94 1.47 4.41-3.73 6.79-.22l-.68 2.26-16.28 15.82-1.8-.34-13.69-11.98c-.9-1.7 2.04-2.6 2.26-4.3l-.3-42.7c-.57-1.8-.9-3.84-2.94-4.63-1.47-.34-3.28 2.26-4.07-.34l.56-1.7 13.46-13.44c3.73.9 7.24 4.97 9.05 8.13zm437.9 6.79l15.5-15.15c5.53 3.39 10.51 9.6 15.48 14.47-.56 2.03-3.5 1.8-4.4 4.07v41.26c.9 1.8 2.93 2.7 4.4 1.46.57-.56.9-1.69 2.04-1.46 1.47 1.13 1.47 2.93.56 4.4l-14.93 14.58c-6.1-2.7-9.95-9.38-10.74-15.82l-.3-42.69a5.65 5.65 0 0 0-2.6-2.6c-2.37.23-5.31 1.47-5.65 4.07 0 12.43-1.36 26.11.9 37.98 1.13 2.72 5.65 1.47 4.52 4.75l-14.13 14.47c-4.63-4.07-9.38-9.6-14.02-14.47l4.08-4.97.33-40.7a6.79 6.78 0 0 0-2.37-2.93c-2.04-1.13-3.17 2.6-4.64-.23l.57-2.03c4.63-4.64 7.91-10.17 13.46-14.24 7.01 2.82 9.38 9.83 11.99 15.7zm-116.1-16.62c4.75 4.4 7.92 9.26 11.42 13.9.9 1.8-1.47 2.37-2.03 3.84l-.23 39.79a5.88 5.88 0 0 0 3.17 3.73c2.94 2.03 4.4-4.07 6.78-.57l-.34 2.94c-5.31 5.54-9.95 11.08-15.27 16.28-8.7-3.39-11.99-12.77-12.44-21.48v-39.3c-1.24-4.52-8.25 1.81-5.88-4.97l13.6-13.9zm-168-22.04c1.13-.34 1.13 1.13 1.7 1.7-.57 4.96-2.26 10.73-7.92 12.76-4.86 2.94-13.68-6.67-14.59 2.94 5.32 5.54 12.9 9.83 12.9 17.75 0 25.88-1.14 52-8.15 75.28a2.71 2.71 0 0 1-2.38 1.13c-3.84-4.07-3.5-9.95-4.97-14.8-2.6-18.89-2.26-39-2.94-58.79-1.47-2.03-4.07-.56-5.88-1.36-.8-1.46 1.47-2.37 1.8-3.84 4.98-11.64-.33-29.39 14.7-34.8 5.44 0 10.75 6.1 15.73 2.03zm215.4 0l1.47.22c-.23 4.98-.56 10.74-6.1 13.11-5.66 5.2-14.93-6.44-15.83 4.07 5.31 5.77 14.02 10.51 12.89 19.44 0 21.81-2.04 42.95-5.32 63.3-1.36 3.5-1.36 7.91-4.3 10.51-2.37 0-2.94-3.16-3.84-4.52-5.2-21.59-4.07-45.78-4.98-68.95-1.47-2.26-3.73 0-5.54-1.13-.9-1.47 1.47-2.71 1.47-4.07 4.64-11.3.57-28.26 14.02-34.36 5.88-.22 10.52 6.45 16.06 2.26zm-42.4-.34a7.35 7.35 0 0 1 2.38 7.9 27.36 27.35 0 0 1-7.35 10.18c-2.83.23-4.08-3.28-6.11-4.97-2.04-3.17-4.41-8.14-1.47-11.98 2.94-3.4 9.38-4.53 12.55-1.13zM105.02 4.9c-1.1 5.54-6.76-1.13-9.93 2.6-5.2 5.54-5.2 13.1-5.2 20.9v70.1a7.02 7.02 0 0 0 3.73 5.65c2.04 0 3.85-2.83 5.66-.45a2.6 2.6 0 0 1 0 2.93c-5.32 5.66-11.76 10.17-17.3 15.03-7.01-1.46-10.52-8.7-12.33-14.47 0-3.5.68-7-.57-10.17l-33.56 24.31-1.47-.3c-7.35-5.53-15.15-10.5-21.6-16.95 0-2.26 2.6-2.82 3.73-3.95 12-5.2 23.07-17.41 22.28-31.42-.34-18.08 0-36.28-5.31-52.22-1.7-3.5-5.54-7-9.39-7.91-3.39-.23-6.1.56-8.7 2.03-3.85 2.94-4.64 7.57-3.5 11.98 5.86 13.35 21.36 22.62 20.33 38.55a26.57 26.56 0 0 1-10.97 21.1c-2.94 1.36-6.22 3.17-9.95 2.04-2.71-.9-5.31-3.5-7.01-5.88-.9-2.94-1.8-7 0-9.84a4.52 4.52 0 0 1 3.4-.56c1.24 3.4 0 9.04 5.08 10.4 2.6.34 4.64-.9 6.44-2.6a10.18 10.17 0 0 0 1.37-7.9C13.58 55.46-1.23 46.19.13 30.14 1.26 19.75 7.48 9.23 17.65 4.94c10.52-4.98 22.85-.9 31 5.76 14.91 14.58 14.91 41.03 7 58.44a73.39 73.36 0 0 1-21.03 24.64c3.28 4.4 8.49 7.35 13.12 10.85a126.4 126.4 0 0 0 21.94-16.28l-.24-70.98c-.9-4.52-4.07-8.36-5.88-12.43.91-.9 1.81-1.81 2.6-1.81 2.94 3.28 5.88 6.1 7.92 9.61 2.04-1.47 4.75-4.3 7.01-6.1 6.45-4.3 16.96-7.24 23.95-1.7z"/>
</svg>
