<svg xmlns="http://www.w3.org/2000/svg" viewBox="0 0 647 129" viewBox="0 0 606.56 120.94">
    <defs>
        <clipPath id="a">
            <path d="M43.84 1083.3h57.42v11.37H43.84z"/>
        </clipPath>
    </defs>
    <g clip-path="url(#a)" transform="matrix(10.54727 0 0 -10.54306 -461.92 11541.67)" fill="#014188">
        <path d="M53.12 1094.42c-.1-.49-.6.1-.88-.23-.46-.49-.46-1.16-.46-1.85v-6.2c.02-.2.13-.4.33-.5.18 0 .34.25.5.04a.23.23 0 0 0 0-.26c-.47-.5-1.04-.9-1.53-1.33-.62.13-.93.77-1.09 1.28 0 .31.06.62-.05.9l-2.97-2.16-.13.03c-.65.49-1.34.93-1.91 1.5 0 .2.23.25.33.35 1.06.46 2.04 1.54 1.97 2.78-.03 1.6 0 3.21-.47 4.62-.15.31-.49.62-.83.7-.3.02-.54-.05-.77-.18-.34-.26-.41-.67-.31-1.06.52-1.18 1.89-2 1.8-3.41a2.35 2.35 0 0 0-.97-1.86c-.26-.12-.55-.28-.88-.18-.24.08-.47.31-.62.52-.08.26-.16.62 0 .87a.4.4 0 0 0 .3.05c.11-.3 0-.8.45-.92.23-.03.41.08.57.23a.9.9 0 0 1 .12.7c-.59 1.1-1.9 1.92-1.78 3.34.1.92.65 1.85 1.55 2.23.93.44 2.02.08 2.74-.51 1.32-1.29 1.32-3.63.62-5.17a6.49 6.49 0 0 0-1.86-2.18c.29-.39.75-.65 1.16-.96.68.39 1.35.9 1.94 1.44l-.02 6.28c-.08.4-.36.74-.52 1.1.08.08.16.16.23.16.26-.29.52-.54.7-.85.18.13.42.38.62.54.57.38 1.5.64 2.12.15zm35.34-1.23c.21-.18.29-.44.21-.7a2.42 2.42 0 0 0-.65-.9c-.25-.02-.36.29-.54.44-.18.28-.39.72-.13 1.06.26.3.83.4 1.11.1zm3.75-.03l.13-.02c-.02-.44-.05-.95-.54-1.16-.5-.46-1.32.57-1.4-.36.47-.51 1.24-.93 1.14-1.72 0-1.93-.18-3.8-.47-5.6-.12-.31-.12-.7-.38-.93-.21 0-.26.28-.34.4-.46 1.91-.36 4.05-.44 6.1-.13.2-.33 0-.49.1-.08.13.13.24.13.36.41 1 .05 2.5 1.24 3.04.52.02.93-.57 1.42-.2zm-19.05 0c.1.03.1-.1.15-.15-.05-.44-.2-.95-.7-1.13-.43-.26-1.21.59-1.29-.26.47-.49 1.14-.87 1.14-1.57 0-2.29-.1-4.6-.72-6.66a.24.24 0 0 0-.21-.1c-.34.36-.31.88-.44 1.31-.23 1.67-.2 3.45-.26 5.2-.13.18-.36.05-.52.12-.07.13.13.21.16.34.44 1.03-.03 2.6 1.3 3.08.48 0 .95-.54 1.39-.18zm14.86-1.95c.42-.39.7-.82 1.01-1.23.08-.16-.13-.21-.18-.34l-.02-3.52a.52.52 0 0 1 .28-.33c.26-.18.39.36.6.05l-.03-.26c-.47-.49-.88-.98-1.35-1.44-.77.3-1.06 1.13-1.1 1.9v3.5c-.11.4-.73-.16-.52.44l1.21 1.23h.1zm10.27-1.47l1.37 1.34c.49-.3.93-.85 1.37-1.28-.05-.18-.31-.16-.39-.36v-3.65c.08-.16.26-.24.39-.13.05.05.08.15.18.13.13-.1.13-.26.05-.39l-1.32-1.29c-.54.24-.88.83-.95 1.4l-.03 3.77a.5.5 0 0 1-.23.23c-.21-.02-.47-.13-.5-.36 0-1.1-.12-2.31.08-3.36.1-.24.5-.13.4-.42l-1.25-1.28c-.41.36-.83.85-1.24 1.28l.36.44.03 3.6c-.03.1-.13.2-.21.26-.18.1-.28-.23-.41.02l.05.18c.41.41.7.9 1.19 1.26.62-.25.83-.87 1.06-1.39zm-38.73.6c.13-.21.15-.47.31-.67.31.4.52.95.83 1.36h.07l.94-1.16c-.19-.54-.57-.97-.91-1.46-.31.25-.6.61-.9.85l-.06-.08.03-3.21c.05-.16.2-.34.36-.36.26-.13.39.33.6.02l-.06-.2-1.44-1.4-.16.03-1.21 1.06c-.08.15.18.23.2.38l-.02 3.78c-.05.16-.08.34-.26.41-.13.03-.29-.2-.36.03l.05.15 1.19 1.19c.33-.08.64-.44.8-.72z"/>
        <path d="M55.5 1094.2c0-.09 0-.19-.1-.21-.34.02-.83.28-1.09-.1-.15-.16-.18-.37-.23-.57.23-1 1.34-1.24 2.02-1.88 1.55-1.13 1.21-3.08 1.26-4.88.05-.6-.67-.95-1.03-1.31l-1.53-1.29-1.83 1.41c0 .18.18.26.23.42.08 1.23-.03 2.57.1 3.77.42.29.96.39 1.27.88-.78.72-1.73 1.54-1.55 2.75.08.49.39.95.85 1.2.5.37 1.2.21 1.63-.2zm-.62-4.12l-.03-3.96c.1-.28.42-.44.62-.64.08-.1.21-.03.26.07v3.17c-.02.56-.28 1.15-.85 1.36zm25.13.98c.52-.5.98-.96 1.5-1.42.02-.15-.13-.23-.18-.33l-.03-3.55c.05-.13.18-.2.29-.15.1.05.18.12.3.1.11-.08.16-.2.08-.31l-1.47-1.31c-.5.2-.83.72-.9 1.2h-.13l-1.24-1.2h-.16c-1.52 1.05-.72 3.13-.96 4.75.86.83 1.81 1.47 2.67 2.3l.23-.08zm-1.11-1.4c-.13-.04-.18-.17-.18-.3l.02-3.27.16-.3c.1-.08.2-.21.33-.13.21.1.26.3.34.48.03.96.05 1.98-.03 2.91-.15.23-.33.57-.64.62zm-14.3.98l1-1.8-.07-.2-2.17-1.93c-.08-.3 0-.67.28-.87.19-.23.42-.34.68-.39.28-.08.49.49.72.1-.31-.66-1.03-.95-1.5-1.49-.7.26-1.63.67-1.76 1.55-.23 1-.1 2.2-.1 3.29.77.77 1.68 1.46 2.53 2.18.21-.05.29-.28.4-.44zm-1.27-1l-.02-2.39.88.87a12.6 12.6 0 0 1-.86 1.52zm13.63-.8l-.03-.15-2.25-2.03c-.07-.44.18-.82.57-1.05.18-.1.42-.21.65-.1.15 0 .23.28.41.15a.46.46 0 0 0 .08-.29l-1.47-1.33c-.7.23-1.68.64-1.76 1.54-.26 1-.1 2.16-.16 3.26l.13.21 2.43 2.03.13-.02 1.27-2.22zm-2.22.75l-.08.03v-2.32c.33.18.67.5.88.83l-.8 1.46zM94.9 1091c.44-.72.85-1.46 1.24-2.18l-.02-.13c-.75-.75-1.6-1.39-2.25-2.16.02-.38.23-.74.6-.95.2-.15.43-.1.66-.05.13.05.21.15.37.15.12-.07.12-.23.05-.33l-1.42-1.31c-.75.28-1.74.8-1.81 1.72-.16.98-.06 2.08-.08 3.14.77.77 1.65 1.44 2.5 2.16l.16-.06zm-1-1.38v-2.3c.33.11.64.5.82.8-.26.5-.52 1-.83 1.5zm-10.6 2.7c-.08-.24-.34-.29-.5-.47-.26-.67.62-.85.88-1.3.18-.16.16-.42.28-.57.44.28.8.72 1.2 1.1h.18c1.55-1.05.85-3.08 1.03-4.73-.72-.8-1.55-1.57-2.35-2.31h-.13c-.52.49-1.14.87-1.63 1.36-.03.13.05.2.1.28l-.02 3.58c-.29.69-.83 1.54-.34 2.34.1.4.57.8.96.9.13-.03.26-.06.33-.19zm1-2.76a.49.49 0 0 1-.3-.36l.02-3.13c.15-.26.44-.41.67-.52-.03 1.21.02 2.47-.05 3.68-.05.15-.13.33-.34.33zm-14.24 2.9c.2-.35.28-.79.2-1.22-.1-.6-.64-1.11-1.13-1.47l.02-.13.96-1.03c-.13-.85.3-1.98-.42-2.6l-1.68-1.97h-.15c-.8.51-1.53 1.18-2.28 1.82v.08l.88.95c-.08.23-.39.39-.49.62-.26.59-.1 1.33-.15 2 .62.72 1.4 1.42 2.14 2 .36-.2.85-.43 1.24-.12.21.18.29.39.31.64.05.34-.26.57-.49.75-.49.2-1.06.02-1.47-.23a.3.3 0 0 0-.34.18c.1.25.42.33.65.46.83.3 1.73 0 2.2-.72zm-2.7-2.43v-2.09h.03c.5.57 1.24 1.03 1.32 1.73-.46.07-.9.2-1.34.36zm.99-1.83l-1.27-1.36-.02-.13c.44-.36.8-.82 1.32-.98.07.8.02 1.65.05 2.47h-.08z"/>
    </g>
</svg>
