<svg xmlns="http://www.w3.org/2000/svg" version="1" viewBox="0 0 466 128">
    <path d="M66.43 0c-2.87 4.52-11.09 7.6-19.27 9.18C32.64 11.98 21.49 11.6 21.49 26v.03h-.04V69.2h.02l.03 1.93c-.93-1.32-3.7-3.8-11.03-2.8a11.5 11.5 0 0 0-9.89 8.14c-.95 3-1.13 11.93 2.53 16.75 3.28 4.32 8.89 9.5 21.72 7.95s21.07-9.16 25-13.27a67.18 67.18 0 0 0 6.2-7.32l.06 5.94c0 7.23 5.38 11.75 11.53 14.88L84.1 89.87v28.54h3.4v-10.79c.11-4.4 1.9-7.76 6.5-9.45l3.4-1.23a4.02 4.02 0 0 0 2.66-3.77v-44.5h3.81v-5.13h-3.82l.03-17.34s2.12 1.25 5.97 3.81c3.85 2.56 8.59-.46 10.26-1.47 1.75-1.06 14.7-10.81 14.7-10.81l-1.26-1.24-3.8 2.46c-2.81 1.8-5.48 1.17-8.27-.2-2.75-1.34-4.74-4.57-4.74-4.57S88.77 30.04 87.74 30.7a6.5 6.5 0 0 0-2.68 3.08 16.76 16.76 0 0 0-.93 5.33h-.02v4.46h-4v5.13h4l.01 36.96a4.35 4.35 0 0 1-.49 1.87c-.66 1.17-2.37 1.8-4.2 1.83-2.02.04-4.18-.89-4.18-3.31l-.14-5.92v-57.3c0-9.53 4.88-9.96 4.88-9.96v-1.05C69.15 11.45 67.43.02 67.43.02zM48.37 13.49c3.33 0 7.14 2.15 7.45 6.21.22 2.95.18 10.58.18 10.58V45.4H40.48V33.7l.04-2.25s.16-8.14.15-11.44c-.01-3.81 3.51-6.52 7.7-6.52zm302 .69s-24.17 15.86-25.19 16.51a6.5 6.5 0 0 0-2.7 3.08c-.73 1.7-.9 4.03-.94 5.31h-.02l.02 79.33h3.39v-10.79c.12-4.4 1.9-7.76 6.5-9.45l3.4-1.23a4.01 4.01 0 0 0 2.66-3.78l.02-66.97s2.11 1.25 5.97 3.82c3.85 2.56 8.59-.46 10.26-1.47 1.75-1.06 14.7-10.81 14.7-10.81l-1.27-1.24-3.8 2.46c-2.8 1.8-5.47 1.17-8.27-.2-2.74-1.34-4.74-4.57-4.74-4.57zm-217.5 5.07c-2.57 2.4-14.85 11.18-18.41 14.03-2.5 2-3 4.49-3.08 5.8h-.01v4.45h-4.24v5.13h4.23l-.02 39.93c0 6.1 4.49 9.92 9.68 12.56l14.67-10.7-1.03-1.18s-3.25 2.32-4.58 2.02c-1.5-.35-2.64-1.78-2.64-3.82l-.11-4.76-.01-34.05h4.47v-5.13h-4.47c0-4.54 0-7.67.02-7.9.05-1.31.1-4.54 1.2-7.33 1.66-4.23 5.9-7.47 5.9-7.47zm237.5 0c-2.58 2.4-14.85 11.18-18.42 14.03-2.5 2-3 4.49-3.07 5.8h-.02v4.45h-4.24v5.13h4.24l-.02 39.93c0 6.1 4.48 9.92 9.67 12.56l14.67-10.7-1.03-1.18s-3.25 2.32-4.57 2.02c-1.51-.35-2.64-1.78-2.64-3.82l-.12-4.76V48.6h4.46v-5.13h-4.46s-.03-7 0-7.9c.06-1.31.12-4.54 1.21-7.33 1.66-4.23 5.91-7.47 5.91-7.47zm-161.9 17.9l-12.7 10.5c-1-4.76-4.95-7.92-9.44-10.2l-13.5 11.06 1.02 1.18s2.33-1.75 4-1.49c1.53.25 2.07.89 2.07 2.92l.14 5.38v43.15h15.96V51.7c.02-.6.15-1.31.5-1.93.6-1.06 1.81-1.63 3.48-1.66 1.84-.03 3.8.82 3.8 3.01l.15 5.38.01 29.57v2.52c0 6.1 4.49 9.93 9.68 12.56l14.67-10.7-1.03-1.18s-3.25 2.32-4.58 2.02c-1.51-.35-2.65-1.78-2.65-3.81l-.14-5.38-.01-32.1c0-6.1-6.27-10.21-11.46-12.86zm49.54 0L245.35 47.6c-1.02-4.73-4.97-7.9-9.45-10.18L222.39 48.5l1.02 1.18s2.33-1.75 4-1.49c1.53.25 2.07.89 2.07 2.92l.17 5.38-.01 62.24c0 4.01-1.96 6.9-4.76 9.26 0 0 8.7.45 16.23-7.39 0 0 4.18 4.28 10.43 2.99 0 0-5.3-1.73-5.93-10.8V92.42l12.4 8.88c5.2-2.64 11.46-6.75 11.46-12.85V50c0-6.1-6.27-10.22-11.46-12.87zm188.1 0l-12.68 10.48c-1-4.75-4.95-7.91-9.44-10.2L410.5 48.5l1.02 1.18s2.33-1.75 4-1.49c1.52.25 2.06.89 2.06 2.92l.15 5.38v43.15h15.97l-.02-47.95c.04-.6.17-1.31.52-1.93.6-1.06 1.81-1.63 3.48-1.66 1.83-.03 3.8.82 3.8 3.01l.14 5.38.02 29.57v2.52c0 6.1 4.48 9.93 9.68 12.56l14.6-10.66-1-1.17s-3.26 2.32-4.58 2.02c-1.52-.35-2.65-1.78-2.65-3.81l-.14-5.38-.02-32.09c0-6.1-6.26-10.22-11.46-12.87zm-144.1.2s-16.62 6.24-18.46 7.01c-1.75.73-6.04 2.6-7.12 4.9-1.1 2.35-1.13 3.57-1.1 4.54v31.85c0 4.05 2.06 6.02 5.21 7.72 1.15.62 8.18 5.64 8.68 8.1 0 0 16.43-6.53 18.39-7.2 1.8-.6 6.03-2.6 7.12-4.9 1.37-2.91 1.12-4.08 1.12-5.23V53.58h-.01V53c0-4.06-2.06-6.02-5.21-7.73-1.16-.62-8.12-5.45-8.62-7.92zm-141.1.06s-21.15 10.7-21.68 11.02a5.42 5.42 0 0 0-2.08 2.16 7.49 7.49 0 0 0-.88 3.61h.01l-.02 25.1h-.05c0 .9.02 1.75.05 2.56v.78h.04c.46 7.47 2.8 11.54 10.84 15.11l6.33 3.35 17.8-13.02-.97-1.33c-4.07 2.65-9.1 3.88-13.68 1.94-3.66-1.52-4.4-3.35-4.4-7.52v-4.11c.07-1.13 1.8-1.2 2.47-1.3a20.1 20.1 0 0 0 11.3-6c3.38-3.44 8.07-14.21 2.98-24.85-1.17-2.46-5.35-5.91-8.07-7.5zm238.1 0s-21.15 10.7-21.68 11.02a5.4 5.4 0 0 0-2.08 2.16 7.52 7.52 0 0 0-.88 3.61h.02l-.02 25.1h-.06c0 .9.03 1.75.06 2.56v.78h.03c.46 7.47 2.8 11.54 10.84 15.11l6.33 3.35 17.81-13.02-.97-1.33c-4.07 2.65-9.1 3.88-13.68 1.94-3.66-1.53-4.39-3.35-4.39-7.52v-4.11c.07-1.13 1.8-1.2 2.47-1.3a20.11 20.11 0 0 0 11.29-6c3.38-3.44 8.07-14.21 2.99-24.85-1.18-2.46-5.36-5.91-8.07-7.5zm-107.7 8.9c2.23 0 8.5 4.76 8.59 14.9V86.4h.01v5.91c-1.91 0-8.11-4.44-8.6-13.93V53.56zm-139.1.1c1.27.26 6.1 4.9 6.27 14.47.07 4.08-2.11 8.8-3.6 10.49-1.32 1.52-1.73 1.6-2.66 1.87V53.35zm238.1 0c1.27.26 6.1 4.9 6.28 14.47.06 4.08-2.12 8.8-3.6 10.49-1.33 1.52-1.74 1.6-2.67 1.87V53.35h-.01zm-140.7 1.7c1.83-.04 3.8.8 3.8 3l.13 5.39h.02v29l-.08 2.99c-.07 2.69-2.04 3.46-3.87 3.42-1.67-.03-2.95-.65-3.56-1.7a3.84 3.84 0 0 1-.4-1.59V52.04a4.8 4.8 0 0 1 .47-2.27c.6-1.06 1.82-1.63 3.49-1.66zm-209.1 4.66h15.55v13.5l-.02-.07c.06 3.37-.44 8.4-4.71 13.22-3.93 4.44-8.95 6.04-13.4 7.33-5.21 1.5-13.44 1.2-17.94-1.82a7.28 7.28 0 0 1-2.4-2.35c1.41.5 3.49.5 4.91.5 8.15 0 18.02-2.95 18.02-12.71V54.5zM20.84 73.72c.45 0 .75.05.75.05.06.78.04 2.58.04 2.58 0 3.93-1.88 4.8-4.46 4.68-.07-.88-.04-2.83-.04-2.83 0-2.16.75-3.3 1.63-3.87.14-.13.3-.22.46-.27a4.18 4.18 0 0 1 1.62-.34z" fill-rule="evenodd" fill="#2e2e2f"/>
</svg>
