<svg xmlns="http://www.w3.org/2000/svg" version="1" id="svg4" viewBox="0 0 559.89 300">
    <defs id="defs8">
        <clipPath id="a">
            <path id="path4851" d="M43.84 1083.3h57.42v11.37H43.84z"/>
        </clipPath>
        <clipPath id="a-5">
            <path id="path4851-6" d="M43.84 1083.3h57.42v11.37H43.84z"/>
        </clipPath>
        <clipPath id="a-5-2">
            <path id="path4851-6-9" d="M43.84 1083.3h57.42v11.37H43.84z"/>
        </clipPath>
        <clipPath id="a-5-2-1">
            <path id="path4851-6-9-2" d="M43.84 1083.3h57.42v11.37H43.84z"/>
        </clipPath>
    </defs>
    <style id="style7258"/>
    <style id="style6035"/>
    <style id="style5105"/>
    <g id="g5332" transform="translate(-457.18 -73.56) scale(1.31835)">
        <path id="rect4487" d="M346.78 55.8h424.69v128H346.78z" fill="#000c26" stroke-width=".63"/>
        <path id="path2" d="M424.51 68.07c-2.32 3.65-8.96 6.14-15.57 7.42-11.74 2.26-20.76 1.96-20.76 13.6v.02h-.03v34.9h.02l.02 1.56c-.75-1.07-2.99-3.07-8.91-2.27a9.3 9.3 0 0 0-8 6.58c-.77 2.43-.91 9.65 2.05 13.54 2.65 3.5 7.18 7.68 17.55 6.43 10.38-1.25 17.04-7.4 20.21-10.73a54.3 54.3 0 0 0 5.02-5.91l.04 4.8c0 5.84 4.35 9.5 9.32 12.03l13.33-9.32v23.07h2.74v-8.73c.1-3.55 1.54-6.27 5.26-7.63l2.75-1a3.25 3.25 0 0 0 2.15-3.05v-35.97h3.08v-4.14h-3.1l.03-14.02s1.72 1 4.83 3.08c3.11 2.07 6.94-.37 8.3-1.19 1.4-.86 11.88-8.74 11.88-8.74l-1.02-1-3.08 1.99c-2.27 1.45-4.42.94-6.68-.16-2.22-1.09-3.83-3.7-3.83-3.7L441.74 92.9a5.25 5.25 0 0 0-2.17 2.49 13.55 13.55 0 0 0-.75 4.3h-.02v3.61h-3.23v4.15h3.23l.01 29.87a3.52 3.52 0 0 1-.4 1.51c-.53.95-1.91 1.46-3.39 1.48-1.63.04-3.38-.72-3.38-2.67l-.11-4.79V86.52c0-7.7 3.94-8.05 3.94-8.05v-.85c-8.76-.3-10.15-9.53-10.15-9.53zm-14.6 10.9c2.7 0 5.77 1.74 6.03 5.02.17 2.39.14 8.56.14 8.56v12.22h-12.54V95.3l.03-1.82s.13-6.58.12-9.25c0-3.07 2.84-5.27 6.22-5.27zm244.13.56s-19.54 12.82-20.37 13.35a5.25 5.25 0 0 0-2.18 2.49 12.95 12.95 0 0 0-.76 4.29h-.02l.02 64.13h2.74v-8.73c.1-3.55 1.54-6.27 5.25-7.63l2.75-1a3.24 3.24 0 0 0 2.15-3.05l.02-54.14s1.7 1.01 4.83 3.09c3.1 2.07 6.94-.37 8.29-1.19 1.41-.86 11.88-8.74 11.88-8.74l-1.02-1-3.08 1.99c-2.26 1.45-4.42.94-6.68-.16-2.22-1.09-3.83-3.7-3.83-3.7zm-175.82 4.1c-2.08 1.94-12 9.04-14.88 11.34a6.45 6.45 0 0 0-2.5 4.69v3.6h-3.43v4.14h3.42l-.01 32.28c0 4.93 3.62 8.02 7.82 10.15l11.86-8.64-.83-.96s-2.63 1.88-3.7 1.63c-1.22-.28-2.14-1.43-2.14-3.08l-.09-3.85V107.4h3.6v-4.14h-3.6v-6.39c.05-1.06.09-3.67.98-5.92 1.34-3.42 4.77-6.04 4.77-6.04zm191.98 0c-2.08 1.94-12 9.04-14.89 11.34a6.4 6.4 0 0 0-2.48 4.69h-.02v3.6h-3.42v4.14h3.42l-.01 32.28c0 4.93 3.62 8.02 7.81 10.15l11.86-8.64-.83-.96s-2.63 1.88-3.7 1.63c-1.21-.28-2.13-1.43-2.13-3.08l-.1-3.85v-27.57h3.61v-4.15h-3.6s-.03-5.66 0-6.39c.04-1.06.1-3.67.97-5.92 1.35-3.42 4.78-6.04 4.78-6.04zM539.33 98.1l-10.27 8.49c-.8-3.85-4-6.4-7.63-8.25l-10.9 8.94.82.96s1.88-1.42 3.23-1.2c1.24.2 1.67.71 1.67 2.35l.11 4.35v34.88h12.9v-38.76c.02-.48.13-1.06.41-1.56.49-.86 1.46-1.32 2.81-1.34 1.5-.02 3.08.66 3.08 2.43l.12 4.35v25.94c0 4.93 3.63 8.03 7.83 10.15l11.86-8.64-.83-.96s-2.63 1.88-3.7 1.63c-1.23-.28-2.15-1.43-2.15-3.08l-.11-4.34-.01-25.95c0-4.93-5.07-8.26-9.26-10.4zm40.05 0l-10.24 8.45c-.82-3.83-4.02-6.39-7.64-8.23l-10.92 8.95.83.96s1.88-1.42 3.23-1.2c1.24.2 1.67.71 1.67 2.35l.14 4.35v50.32c0 3.24-1.6 5.57-3.85 7.48 0 0 7.03.36 13.11-5.97 0 0 3.38 3.46 8.44 2.41 0 0-4.29-1.4-4.8-8.73v-16.46l10.03 7.18c4.2-2.14 9.26-5.46 9.26-10.4V108.5c0-4.93-5.07-8.26-9.26-10.4zm152.05 0l-10.25 8.47c-.81-3.84-4-6.4-7.63-8.24l-10.9 8.94.82.96s1.88-1.42 3.23-1.2c1.23.2 1.66.71 1.66 2.35l.13 4.35v34.88h12.9l-.01-38.76a3.7 3.7 0 0 1 .42-1.56c.48-.85 1.46-1.31 2.81-1.34 1.48-.02 3.07.66 3.07 2.43l.12 4.35.01 23.9v2.04c0 4.93 3.62 8.03 7.83 10.16l11.8-8.62-.8-.95s-2.64 1.88-3.71 1.64c-1.23-.29-2.14-1.44-2.14-3.08l-.12-4.35-.01-25.94c0-4.93-5.06-8.26-9.27-10.4zm-116.49.16s-13.43 5.05-14.92 5.67c-1.41.59-4.88 2.1-5.75 3.96-.9 1.9-.92 2.88-.9 3.67v25.74c0 3.28 1.67 4.87 4.22 6.25.93.5 6.61 4.55 7.01 6.54 0 0 13.29-5.28 14.87-5.82 1.45-.48 4.87-2.1 5.76-3.96 1.1-2.35.9-3.3.9-4.23v-25.17c0-3.28-1.67-4.86-4.22-6.25-.94-.5-6.56-4.4-6.97-6.4zm-114.05.05s-17.1 8.65-17.53 8.9a4.38 4.38 0 0 0-1.68 1.75 6.05 6.05 0 0 0-.71 2.92l-.01 20.3h-.04c0 .72.01 1.4.04 2.06v.63h.03c.37 6.04 2.26 9.33 8.76 12.22l5.12 2.7 14.39-10.52-.78-1.08c-3.3 2.15-7.36 3.14-11.06 1.57-2.96-1.23-3.56-2.7-3.56-6.08v-3.32c.06-.91 1.46-.97 2-1.05a16.25 16.25 0 0 0 9.13-4.85c2.73-2.78 6.52-11.49 2.41-20.09-.95-1.99-4.32-4.77-6.52-6.06zm192.46 0s-17.1 8.65-17.52 8.9a4.37 4.37 0 0 0-1.68 1.75 6.08 6.08 0 0 0-.71 2.92h.01l-.01 20.3h-.05c0 .72.02 1.4.05 2.06v.63h.02c.37 6.04 2.26 9.33 8.76 12.22l5.12 2.7 14.4-10.52-.79-1.08c-3.29 2.15-7.35 3.14-11.06 1.57-2.96-1.23-3.55-2.7-3.55-6.08v-3.32c.06-.91 1.46-.97 2-1.05a16.26 16.26 0 0 0 9.13-4.85c2.73-2.78 6.52-11.49 2.41-20.09-.95-1.99-4.33-4.77-6.52-6.06zm-87.06 7.2c1.8 0 6.87 3.84 6.95 12.04v25.14c-1.54 0-6.55-3.6-6.95-11.26v-20.07zm-112.44.08c1.03.2 4.93 3.96 5.07 11.7.06 3.29-1.7 7.1-2.9 8.47-1.08 1.23-1.4 1.3-2.16 1.51V111.2zm192.47 0c1.03.2 4.93 3.96 5.08 11.7.05 3.29-1.72 7.1-2.91 8.47-1.08 1.23-1.41 1.3-2.16 1.51V111.2zm-113.73 1.37c1.47-.03 3.07.65 3.07 2.42l.1 4.36h.02v23.44l-.07 2.42c-.05 2.18-1.65 2.8-3.12 2.77-1.35-.03-2.39-.53-2.88-1.38a3.1 3.1 0 0 1-.33-1.28v-29.57a3.88 3.88 0 0 1 .38-1.84c.49-.86 1.48-1.32 2.83-1.34zm-169.03 3.77h12.57v10.9l-.02-.05a15 15 0 0 1-3.8 10.69c-3.18 3.59-7.24 4.88-10.84 5.92-4.2 1.22-10.86.97-14.5-1.47a5.88 5.88 0 0 1-1.94-1.9c1.14.4 2.82.4 3.97.4 6.59 0 14.57-2.38 14.57-10.27v-12.83zm-15.9 16.93c.36 0 .6.04.6.04.05.63.04 2.09.04 2.09 0 3.17-1.52 3.88-3.6 3.78-.06-.71-.04-2.29-.04-2.29 0-1.74.6-2.66 1.32-3.13.11-.1.24-.17.37-.21a3.38 3.38 0 0 1 1.3-.28z" fill="#fff" fill-rule="evenodd" stroke-width=".81"/>
    </g>
</svg>
