<svg xmlns="http://www.w3.org/2000/svg" viewBox="0 0 600 300">
    <path d="M85.6.13c-3.7 5.81-14.3 9.78-24.8 11.8-18.7 3.6-33.1 3.12-33.1 21.7v.03h-.05v55.6h.03l.04 2.48c-1.2-1.72-4.76-4.9-14.2-3.63a14.8 14.8 0 0 0-12.6 10.5c-1.23 3.87-1.45 15.4 3.26 21.6 4.22 5.58 11.4 12.2 28 10.2 16.5-1.99 27.2-11.8 32.2-17.1a86.5 86.5 0 0 0 8-9.41l.06 7.65c0 9.3 6.93 15.1 14.8 19.2l21.2-14.8v36.8h4.37v-14.1c.16-5.66 2.45-10 8.38-12.2l4.38-1.6a5.18 5.18 0 0 0 3.42-4.86v-57.2h4.91v-6.6h-4.94l.05-22.3s2.74 1.6 7.7 4.91c4.95 3.3 11-.59 13.2-1.9 2.23-1.36 18.9-13.9 18.9-13.9l-1.62-1.6-4.9 3.17c-3.62 2.31-7.05 1.5-10.6-.25-3.53-1.74-6.1-5.9-6.1-5.9l-32.6 21.3a8.36 8.36 0 0 0-3.46 3.96 21.6 21.6 0 0 0-1.19 6.85h-.03v5.75h-5.15v6.61h5.15l.01 47.6a5.6 5.6 0 0 1-.63 2.4c-.85 1.52-3.05 2.33-5.4 2.37-2.6.06-5.39-1.15-5.39-4.26l-.17-7.63v-72.5c0-12.3 6.27-12.8 6.27-12.8v-1.36c-10.6-.4-12.8-15.1-12.8-15.1zm-23.3 17.4c4.3 0 9.2 2.77 9.6 8 .28 3.8.23 13.6.23 13.6v19.5h-20v-15.1l.05-2.9s.2-10.5.19-14.7c0-4.9 4.52-8.4 9.9-8.4zm389 .89s-31.1 20.4-32.4 21.3a8.36 8.36 0 0 0-3.47 3.96 20.6 20.6 0 0 0-1.21 6.84h-.04l.04 102h4.36v-13.9c.16-5.66 2.45-9.99 8.36-12.2l4.39-1.6a5.16 5.16 0 0 0 3.42-4.85l.03-86.2s2.71 1.6 7.7 4.92c4.94 3.3 11.1-.59 13.2-1.9 2.25-1.37 18.9-13.9 18.9-13.9l-1.63-1.59-4.9 3.17c-3.6 2.31-7.05 1.5-10.6-.25-3.54-1.74-6.1-5.9-6.1-5.9zm-280 6.53c-3.31 3.1-19.1 14.4-23.7 18.1a10.3 10.3 0 0 0-3.98 7.47v5.74h-5.47v6.6h5.45l-.02 51.4c0 7.85 5.77 12.8 12.5 16.2l18.9-13.8-1.33-1.53s-4.19 3-5.9 2.6c-1.94-.45-3.4-2.28-3.4-4.9l-.14-6.14v-44.3h5.73v-6.6h-5.73v-10.2c.08-1.69.14-5.84 1.56-9.43 2.13-5.45 7.6-9.62 7.6-9.62zm306 0c-3.31 3.1-19.1 14.4-23.7 18.1a10.2 10.2 0 0 0-3.95 7.47h-.03v5.74h-5.45v6.6h5.45l-.02 51.4c0 7.85 5.77 12.8 12.4 16.2l18.9-13.8-1.33-1.53s-4.2 3-5.9 2.6c-1.92-.45-3.39-2.28-3.39-4.9l-.16-6.14v-44.4h5.75v-6.61h-5.73s-.05-9.02 0-10.2c.06-1.7.16-5.85 1.54-9.43 2.15-5.45 7.62-9.63 7.62-9.63zm-208 23.1l-16.4 13.5c-1.27-6.13-6.37-10.2-12.2-13.1l-17.4 14.2 1.3 1.53s3-2.26 5.15-1.91c1.98.32 2.66 1.13 2.66 3.74l.18 6.93v55.6h20.6v-61.7c.03-.76.2-1.69.65-2.48.78-1.37 2.33-2.1 4.48-2.14 2.39-.03 4.9 1.05 4.9 3.87l.2 6.93v41.3c0 7.86 5.78 12.8 12.5 16.2l18.9-13.7-1.33-1.53s-4.19 3-5.89 2.6c-1.96-.45-3.43-2.28-3.43-4.9l-.17-6.92-.02-41.3c0-7.86-8.07-13.2-14.8-16.6zm63.8 0l-16.3 13.5c-1.3-6.1-6.4-10.2-12.2-13.1l-17.4 14.3 1.32 1.53s3-2.26 5.15-1.91c1.97.32 2.66 1.13 2.66 3.74l.22 6.93v80.2c0 5.16-2.55 8.87-6.13 11.9 0 0 11.2.57 20.9-9.51 0 0 5.38 5.51 13.4 3.84 0 0-6.84-2.23-7.65-13.9v-26.2l16 11.4c6.7-3.41 14.8-8.7 14.8-16.6v-48.2c0-7.86-8.08-13.2-14.8-16.6zm242 0l-16.3 13.5c-1.3-6.12-6.4-10.2-12.2-13.1l-17.4 14.2 1.3 1.53s3-2.26 5.15-1.91c1.96.32 2.65 1.13 2.65 3.74l.2 6.93v55.6h20.6l-.01-61.8a5.9 5.9 0 0 1 .67-2.48c.76-1.36 2.32-2.1 4.47-2.14 2.36-.03 4.9 1.05 4.9 3.87l.19 6.93.01 38.1v3.25c0 7.86 5.77 12.8 12.5 16.2l18.6-13.8-1.27-1.52s-4.2 3-5.91 2.61c-1.96-.46-3.41-2.3-3.41-4.9l-.2-6.94v-40.6c0-7.85-8.07-13.2-14.8-16.6zm-186 .25s-21.4 8.04-23.8 9.03c-2.25.94-7.77 3.35-9.16 6.31-1.43 3.03-1.47 4.59-1.43 5.85v41c0 5.23 2.66 7.77 6.72 9.97 1.48.8 10.5 7.24 11.2 10.4 0 0 21.2-8.42 23.7-9.28 2.3-.76 7.76-3.34 9.17-6.3 1.76-3.75 1.44-5.26 1.44-6.74v-39.7c0-5.23-2.66-7.75-6.72-9.96-1.5-.8-10.4-7-11.1-10.2zm-182 .08s-27.2 13.8-27.9 14.2a6.98 6.98 0 0 0-2.68 2.79 9.64 9.64 0 0 0-1.13 4.65l-.01 32.3h-.07c0 1.15.02 2.23.07 3.28v1h.04c.6 9.63 3.6 14.9 14 19.5l8.16 4.3 22.9-16.8-1.24-1.72c-5.26 3.42-11.7 5-17.6 2.5-4.72-1.96-5.67-4.3-5.67-9.69V99.4c.1-1.45 2.32-1.54 3.18-1.67a25.9 25.9 0 0 0 14.5-7.73c4.35-4.43 10.4-18.3 3.84-32-1.51-3.17-6.88-7.6-10.4-9.65zm307 0s-27.2 13.8-27.9 14.2a6.96 6.96 0 0 0-2.68 2.79 9.69 9.69 0 0 0-1.13 4.65h.02l-.02 32.3h-.1c0 1.15.04 2.23.08 3.28v1h.03c.6 9.63 3.6 14.9 14 19.5l8.16 4.3 22.9-16.8-1.26-1.72c-5.24 3.42-11.7 5-17.6 2.5-4.71-1.96-5.65-4.3-5.65-9.69V99.4c.1-1.45 2.32-1.54 3.18-1.67a25.9 25.9 0 0 0 14.5-7.73c4.35-4.43 10.4-18.3 3.84-32-1.51-3.17-6.9-7.6-10.4-9.65zm-139 11.5c2.87 0 10.9 6.12 11.1 19.2v40c-2.45 0-10.4-5.74-11.1-17.9v-32zm-179 .13c1.64.32 7.85 6.3 8.08 18.6.1 5.24-2.71 11.3-4.62 13.5-1.72 1.96-2.23 2.07-3.44 2.4v-25.6zm307 0c1.64.32 7.85 6.3 8.1 18.6.07 5.24-2.75 11.3-4.64 13.5-1.72 1.96-2.25 2.07-3.44 2.4v-25.6zm-181 2.18c2.34-.05 4.9 1.03 4.9 3.85l.15 6.95h.03v37.3l-.1 3.86c-.09 3.47-2.64 4.46-4.98 4.4-2.15-.04-3.8-.84-4.59-2.19a4.94 4.94 0 0 1-.52-2.04v-47.2a6.18 6.18 0 0 1 .6-2.93c.78-1.37 2.36-2.1 4.51-2.13zm-269 6.01h20v17.4l-.03-.08a23.9 23.9 0 0 1-6.06 17c-5.06 5.72-11.5 7.77-17.3 9.43-6.69 1.94-17.3 1.55-23.1-2.34a9.37 9.37 0 0 1-3.09-3.03c1.82.64 4.5.64 6.33.64 10.5 0 23.2-3.8 23.2-16.4v-20zm-26.2 27c.57 0 .96.06.96.06.08 1 .06 3.33.06 3.33 0 5.05-2.42 6.18-5.74 6.03-.1-1.14-.06-3.65-.06-3.65 0-2.77.96-4.24 2.1-4.99.18-.16.39-.27.6-.33a5.38 5.38 0 0 1 2.06-.45z"/>
</svg>
