<svg xmlns="http://www.w3.org/2000/svg" viewBox="0 0 900 300">
    <path fill="#fff" d="M451.5 55.55h21.6v4.29h-21.61zm34.09 24.77V50.74h.89l1.37 1.78.16-.14 3.76-3.08S470 20.11 469.3 19.2c16.1 3.27 27.66 17.77 27.66 34.8a36.03 36.03 0 0 1-11.36 26.3zm-2.31 2.01a33.15 33.15 0 0 1-6.86 4.15v-9.4l.75-.06v-3.01h-1.75c-1.64-4.83-5.14-8.37-10.16-9.1v-1.15h-5.01l.02 1.14c-4.5.74-8.55 4.31-10.22 9.11h-1.71v3l.75.06v9.5a34.4 34.4 0 0 1-6.69-3.94V50.74h40.87v31.57zM456.96 89a278.5 278.5 0 0 1 .06-10.2 5.79 5.79 0 0 1 5.7-5.9 5.86 5.86 0 0 1 5.76 5.9c.07.2.09 7.14.07 10.16-1.93.34-3.91.54-5.92.54a33.21 33.21 0 0 1-5.67-.5zm-16.87-8.32A36 36 0 0 1 428.4 54c0-16.97 12.06-31.85 28.12-34.89L434 49.31l3.93 3.2 1.3-1.72h.92v29.88zm26.9-64.56c-.1-.16-3.38-4.6-3.46-4.68V9.66a2.3 2.3 0 0 0 1.54-2.18 2.3 2.3 0 0 0-2.25-2.36 2.3 2.3 0 0 0-2.3 2.36 2.3 2.3 0 0 0 1.61 2.2v1.81l-3.43 4.61c-18.78 2.06-32.9 18.32-32.9 37.9 0 21.03 16.52 38.16 36.83 38.16 20.34 0 36.9-17.12 36.9-38.16 0-19.34-13.97-35.6-32.52-37.86zm-34.14 87.44c-.67 2.22-.91 4.29-2.5 4.61-.93.2-1.36.64-3.3-.9l7.7-11.94c.91.8 2.64.73 3.85-.3-1.5 1.72-5.17 6.61-5.75 8.54zm-12.5-14.49c-3.06 1.9-5.19.71-6.88-.74l10.39-8.82c1.1 5.08 5.03 1.35 6.03.92-2.22 1.98-9.43 8.56-9.54 8.63zM410.3 70.34s-2.14-.64-3.82-3.02l12.74-6.03c.83 2.7 2 2.9 4.35 2.7zm12.9-52.92c.15-.1 1.27-1.17 2.61-2.43l3 3.28a52.14 52.14 0 0 1-2.5 2.27c-.57.45-1.98 1.04-3.11-.16-.97-.94-.45-2.48 0-2.96zm7.18 2.63l3 3.21-2.56 2.29s-1.5.82-2.76-.46c-1.1-1.16-.29-2.68.05-3.01.11-.18 1.01-.99 2.29-2.04zm4.83 69.58l6.2-6.61-3.09-2.79-4.69 5c-1.1-5.32-.77-9.97-4.9-9.35a7.95 7.95 0 0 0-3.62 1.57c-1.09-2.5.55-10.77.84-14 .25-2.98-.77-4.34-2.25-4.53a6.01 6.01 0 0 0-3.62.53c-2-3.15-1.42-8.4.13-13.53 2.3-7.7 10.65-15.99 15.2-20.08l2.15 2.37 2.28-1.75.92-.94-1.92-2.3c.32-.23.42-.33.42-.33l-4.39-4.52s-.18.13-.43.42l-1.42-1.53.43-.4-2.65-2.78-.4.4-1.32-1.42.46-.46L427 10l-.4.28-1.6-1.81 4.6-1.24L414.45.1l5.96 14.57 1.37-3.63 1.59 1.68c-12.5 11-19.68 23.32-21.21 37.39-1.35 12.36 2.76 17.84 4.6 19.6a7.07 7.07 0 0 0 3.72 2c-.61 2.18-1.71 6.96-1.35 11.3v.01s.25 1.22.83 2.65a10.52 10.52 0 0 0 3.6 4.5 6.63 6.63 0 0 0 5.24.86l.17-.05v.18s-.17 1.18.2 4.61c.32 3.42 2.61 8.01 2.7 8.2l.04-.02c1.37 2.72 4.24 5.78 7.58 5.78 4.74 0 4.1-5.15 5.75-7.85 2.09-3.4 6.6-6.22 4.45-9.47a5.84 5.84 0 0 0-4.47-2.77zm-35.03 17.86l-6.43-12.6a7.42 7.42 0 0 1-.28-1.89c0-1.44.7-2.95 2-3.67 0 0 5.84 11.89 6.02 11.87-2.6 2.2-2.02 4.52-1.3 6.28zm18.06-11.7c-.17-1.9-.17-1.96-.17-2.65 0-.36-.05-1.01-.03-1.14-.64.15-3.1.21-5.05-1.25a11.56 11.56 0 0 1-3.75-5 10.03 10.03 0 0 1-.75-2.8c-2.74-.27-8.1.24-13.05 3.67-4.47 3.1-3.49 7.23-2.97 8.47-3.28.41-5.87 4.78-15.63-2.39 2.42 8.45 10.55 10.93 10.55 10.93s-3.32 2.81-9.26 2.92a17.71 17.71 0 0 0 16.78 5.9c9.4-1.5 14.1-6.65 12.5-9.44l-1.47-2.57a9.96 9.96 0 0 1 2-.53c4.31-.68 8.68-.16 11 1l-11.63 12.63s-1.65 1.8-.41 3.2c1.52 1.78 3.14.06 3.14.06l11.1-12.06c-.07-.13-2.55-4.71-2.92-8.95zm56.13-1a5.06 5.06 0 0 1 4.96-5.14 5.04 5.04 0 0 1 4.94 5.14 5.04 5.04 0 0 1-4.94 5.15 5.04 5.04 0 0 1-4.96-5.15zm-32.7 0a5.08 5.08 0 0 1 4.98-5.14 5.04 5.04 0 0 1 4.92 5.14 5.04 5.04 0 0 1-4.92 5.15 5.06 5.06 0 0 1-4.97-5.15zm21.97 3.08a5.04 5.04 0 0 1 4.97-5.11 5.04 5.04 0 0 1 4.98 5.1 5.04 5.04 0 0 1-4.98 5.12 5.04 5.04 0 0 1-4.96-5.11zm-11.15 0a5.04 5.04 0 0 1 4.94-5.11 5.04 5.04 0 0 1 4.98 5.1 5.04 5.04 0 0 1-4.98 5.12 5.04 5.04 0 0 1-4.93-5.11zm16.87 9.6a5.06 5.06 0 0 1 4.97-5.13 5.04 5.04 0 0 1 4.95 5.14 5.04 5.04 0 0 1-4.95 5.09 5.06 5.06 0 0 1-4.97-5.1zm-11.17 0a5.04 5.04 0 0 1 4.96-5.13 5.04 5.04 0 0 1 4.97 5.14 5.04 5.04 0 0 1-4.97 5.09 5.04 5.04 0 0 1-4.96-5.1zm-11.18 0a5.06 5.06 0 0 1 4.97-5.13 5.04 5.04 0 0 1 4.96 5.14 5.04 5.04 0 0 1-4.96 5.09 5.06 5.06 0 0 1-4.97-5.1zM188.6 35.72c-.9.7-2.83 1.18-4.23 1.4a9.31 9.31 0 0 1-5.47-.67c-1.47-.69-2.42-1.8-3.06-2.22-.9-.6-1.51.3-1.51.3l-9.25 10.76a16.96 16.96 0 0 0-4.11-8.61 19.89 19.89 0 0 0-7.25-4.73l-.24-.1-.15.24-7.17 12.6a5.98 5.98 0 0 1 2.9 1.08c1.51 1.47 1.35 2.85 1.35 4.1v47.9c0 6.51 2.08 9.16 3.09 10.4 1.6 2.1 5.91 3.79 5.91 3.79l11.05-13.53s-1.98 0-3.94-2.06c-.8-.82-1.18-2.65-1.18-4.26V50.32c.79-1.4 2.3-3.05 3.78-3.62 1.12 1.28 3.6 2.63 5.68 3.1 2.85.62 5.79-.19 9.1-3.13 3.85-3.41 5.1-7.82 5.81-10.17zm613.9 60.64c-.75-.83-1-2.65-1-4.25V49.83c0-3.72-.25-7.33-2.96-11.05-3.03-4.18-8.22-6.75-8.46-6.86l-.16-.1-.16.1c-.05.04-3.84 2.44-7.93 6.83a63.58 63.58 0 0 0-6.02 7.64c-.37-2.98-1.43-6.78-4.25-9.77-3.07-3.22-7.08-4.66-7.25-4.73l-.22-.07-.17.2-7.33 12.53c.03 0 1.46.62 2.18 1.13a4.7 4.7 0 0 1 2.23 4.14v48.04c0 6.49 2.06 9.14 3.08 10.39 1.6 2.1 5.5 3.67 5.65 3.73l.24.08 11.14-13.68s-2.19.4-4-2.08a7.38 7.38 0 0 1-1.19-4.08l-.04-39.92c0-2.62 3.21-5.4 6.21-5.4 2.9 0 4.48 2.8 4.48 5.4v45.42c0 6.52 2.07 9.17 3.07 10.41 1.61 2.11 5.5 3.66 5.66 3.73l.23.08 10.97-13.6s-2.02.05-4-2.02zm-482.3 0c-.8-.83-1.04-2.65-1.04-4.25V49.83c0-3.72-.23-7.33-2.93-11.05-3.03-4.18-8.25-6.75-8.46-6.86l-.16-.1-.18.1c-.04.04-3.83 2.44-7.91 6.83a64.69 64.69 0 0 0-6.02 7.64c-.4-2.98-1.44-6.78-4.29-9.77-3.05-3.22-7.05-4.66-7.2-4.73l-.27-.07-.17.2-7.27 12.53c.01 0 1.44.62 2.19 1.13a4.77 4.77 0 0 1 2.2 4.14v48.04c0 6.49 2.06 9.14 3.07 10.39 1.6 2.1 5.5 3.67 5.67 3.73l.22.08 11.16-13.68s-2.2.4-4.03-2.08a7.4 7.4 0 0 1-1.19-4.08V52.28c0-2.62 3.16-5.4 6.16-5.4 2.92 0 4.5 2.8 4.5 5.4v45.46c0 6.51 2.07 9.16 3.07 10.4 1.6 2.11 5.5 3.66 5.67 3.73l.22.08 10.98-13.6s-2.05.05-4-2.02zm325.6-64.47l-11.46 13.79s2.26 0 4.5 2.26a4.48 4.48 0 0 1 1.16 3l-.04 46.75c0 6.5 2.07 9.15 3.07 10.4 1.61 2.1 5.54 3.63 5.7 3.73l.22.1 10.99-13.55s-1.9 0-3.88-2.07c-.64-.67-.96-2.26-1.05-3.45 0 0-.08-1.05-.08-2.8V45.9c0-6.46-2.06-9.12-3.08-10.4-1.6-2.07-5.5-3.62-5.67-3.69l-.21-.1zm-6.43-21.25c0 6 5.74 13.87 7.82 13.87 2.1 0 7.8-7.88 7.8-13.87a7.93 7.93 0 0 0-7.82-8.07 7.95 7.95 0 0 0-7.8 8.07zm-73.6-8.43c-8.9 4.68-13.8 16.12-11.65 26.55 1.03 5.43 4.93 9.13 10.7 10.12 3.4.6 8.04-.36 10.77-3.33.1-.12.1-.16.1-.16l-1.15-1.5-.11.08a11.8 11.8 0 0 1-7.18 2.8c-3.75.03-8.33-2.56-9.64-6.94-1.15-4.66.66-9.5 4.71-12.64 3.49-2.2 8.57-2.38 12.46-.5.04 0 38 19.94 38 19.94s-10.97 4.67-15.12 17.1c-1.6 5 .6 12.6 2.64 16.42 2.03 3.81 4.2 7.52 4.2 11.89 0 0 .17 3.41-1.41 6-1.5 2.97-7.25 5.16-7.25 5.16s-19-11.41-11.2-38.2c2.7-9.43 12.2-16.07 12.2-16.07l-1.04-1.23s-23.1 9.42-27.22 28.72c-1.86 8.81-1.82 21.82 5.7 31.95 8.86 11.95 27.85 17.3 40.54 11.12 4.72-1.94 9.15-5.8 12.46-10.23 4.82-6.45 6.55-16.65 6.55-16.65h-2.07s-1.28 6.57-4.6 9.79c-9.01 8.87-25 4.64-28.63 2.5 0 0 5.28-2.29 8.84-4.59 8.15-5.35 11.46-14.09 11.46-17.57 0 0 .93-6.86-3.93-15.18a40.72 40.72 0 0 1-3.32-6.69c-2.58-6.94 3.57-13.28 3.57-13.28 4.94 1.26 10.56.47 14.44-2.38 4.28-3.9 6.25-7.82 6.5-11.57.56-7.89-7.75-10.41-7.75-10.41l-1.03 1.99s5.05 2.52 5.46 4.54c.32 1.6-.1 2.87-.76 3.61a3.83 3.83 0 0 1-4.13.63l-30.8-16.1c-9.97-5.36-19.71-11.23-31.17-5.69zm115.6 89.83l-.11-47.57c0-1.46 2.5-4.19 3.78-4.71.25-.1.37-.08.42-.08 1.82 1.98 6.55 7.82 6.55 11.03v49.78c-.9.41-4.83 1.88-7.61-.15-1.9-1.35-3.03-2.17-3.03-8.3zm-1.7-90.33c-2.87.73-5.64 3.23-7.32 6.66a15.12 15.12 0 0 0-1.25 5.93c0 4.52 2.26 8.33 4.6 11.95 2.47 3.33 6.9 9.34 7.93 10.8-5.46 3.05-17.19 10.25-17.19 14.94v44.56c0 4.2 3.76 9.58 7.24 11.93 4.9 3.28 7.21 3.68 7.53 3.43l-.16.05c3.56-.46 6.23-1.3 11.9-3.86 4.97-2.21 13.9-7.56 13.9-10.2l.05-49.46v-1.92c-.37-6.2-2.3-9.87-5.74-14.46l-8.9-11.86c-7.01-9-9.64-12.37-8.01-14.37a1.5 1.5 0 0 1 1.18-.6c1.72-.07 3.9 2.25 3.96 2.27l.22.24 2.07-2.22-.19-.23a11.92 11.92 0 0 0-11.66-3.64zm148.3 90.33l-.11-47.57c0-1.46 2.5-4.19 3.8-4.71.25-.1.36-.08.36-.08 1.86 1.98 6.6 7.82 6.6 11.03v49.78c-.88.41-4.83 1.88-7.64-.15-1.88-1.35-3-2.17-3-8.3zm-1.7-90.33c-2.9.73-5.63 3.23-7.32 6.66a15.03 15.03 0 0 0-1.25 5.93c0 4.52 2.22 8.33 4.65 11.95 2.43 3.33 6.84 9.34 7.88 10.8-5.4 3.05-17.18 10.25-17.18 14.94v44.56c0 4.2 3.76 9.58 7.24 11.93 4.86 3.28 7.2 3.68 7.52 3.43l-.16.05c3.56-.46 6.23-1.3 11.9-3.86 4.95-2.21 13.9-7.56 13.9-10.2l.05-49.46v-1.92c-.37-6.2-2.3-9.87-5.76-14.46l-9-11.83c-7-9-9.6-12.37-8-14.36a1.4 1.4 0 0 1 1.13-.6c1.73-.07 3.92 2.25 3.96 2.27l.23.24 2.12-2.22-.24-.23a11.96 11.96 0 0 0-11.7-3.7zm-747.7 9.31a24.33 24.33 0 0 0-2.65 11.44c0 4.53 2.3 9.16 4.95 12.45 2.11 2.63 5.07 4.6 5.07 9.2 0 3.58-3.15 6.66-3.28 6.79a32.64 32.64 0 0 0-6-1.03c-1.7-.24-3.92-.12-4.48-.12V16.2a26.81 26.81 0 0 1 6.4-5.17zm-3.22 82.46a7.3 7.3 0 0 0-3.34-8.38V56.46s1.23.12 3.3-.06 4.25-.8 4.25-.8.97.75 1.02 5.09v40.1c0 1.26.14 3.22-.7 5.13-.33.71-3.4 5.25-10.29 2.32-10.03-4.25-8.28-13.33-8.14-14.37 0 0 1.3 4.96 6.5 5.34 3.57.26 6.65-2.68 7.4-5.75zM6.27 9.73C2.17 14 .07 19.9.07 25.85c.46 15.41 10.39 21.2 10.39 21.2l.64-1.34s-3.93-4.34-4.37-11.05c-.33-6.36 3.7-11.77 9.01-14.03 7.85-3.38 16.7-.08 23.62 8.81a41.98 41.98 0 0 1 9.06 26.35c0 11.87-5.65 23.26-5.65 23.26l.73 1s19.02-15.78 19.02-46.1a34 34 0 0 0-.54-5.57s.8-1.78 3.28-4.85l3.36-4.16v30.6s-3.72.8-3.72 3.19c0 2.65 3.72 3.21 3.72 3.21V84.2s-3.51-.67-6.9 2.12l-8.81 9.34s-18.25-17.43-19.8-20.5a12.88 12.88 0 0 1-1.26-5.92 8.62 8.62 0 0 1 1.33-4.71c1.37-2.1 4.82-2.07 4.82-2.07l.09-1.05s-5.54-.08-9.92 3.8a20.69 20.69 0 0 0-6.9 14.56c-.09 4.8 1.02 8.28 3.92 13.07 2.61 4.18 17.71 18.1 17.71 18.1l16.03-18.56s-1.21 5.98 1.15 10.8c3.06 6.24 8.16 8.95 15.97 8.95 9.52 0 16.2-4.63 20-14 2.4-5.95 2.91-12.78 2.91-17.5 0-7.21-1.23-14.53-3.1-18.63-3.11-6.75-9.63-9.45-9.63-9.45s3.85-2.3 8.05-6.36c4.13-3.96 5.8-8.46 5.59-12.76-.29-5.65-2.47-10.06-6.44-14.88-3.64-4.5-4.75-8.03-4.75-10.5 0-.83.1-1.46.18-1.87.37-2.25 4.01-4.16 4.01-4.16v-1S79.41 6.63 72.56 12.23a63.37 63.37 0 0 0-11.47 12.5C55.73 9.84 43.95.8 30.47.3 23.24.06 12.98 2.85 6.37 9.68zm343.8 23.38c-.1.03-10.07 4.45-16.67 11.96-3.28 3.75-5.89 9.87-6.06 14.25-.24 4.82.4 11.25 4.44 14.63a9.37 9.37 0 0 0 8.74 2c2.13-.57 6.72-2.02 8.17-2.48 2.39-.74 3.23-.09 3.5.46.41.83.45 4.77.45 4.77l-.03 20.7c-1.35-2.13-4.86-6.31-11.52-4.98-9.08 1.76-12.86 15.93-13 16.55l-.07.21 1.22 1.05.19-.39c.05-.06 2.55-4.56 6.17-4.22 4.18.38 6.58 4.32 6.6 4.37l.17.26.4-.2c17.2-4.95 26.09-14.51 26.25-28.4.07-6.54-.86-9.61-3.8-12.6-3.85-4.6-11.98-4.88-22.28-.86l.05-22.68a9.54 9.54 0 0 0 6.47 2.71c10.46.62 14.99-15.28 15.17-15.94l.05-.24-1.22-1.03-.21.38c0 .03-2.54 4.57-6.17 4.22-4.18-.4-6.56-4.3-6.6-4.35l-.15-.26zm528.8 13.37c0-1.52.17-2.64.5-3.32.52-.9 1.41-1.23 1.44-1.26l.06-.02c1 .16 6.46 7.58 6.46 14.77 0 6.6-2.07 9.07-4.2 10.36a34.44 34.44 0 0 1-4.26 2.29zm-7.68-3c-3.8 2.57-7.23 5.23-7.23 9.23v43.44c0 3.65 2.34 7.06 7.23 10.4 4.17 2.9 10.95 5.33 11 5.35l.24.08 10.43-13.6s-6.38-.3-11.32-3.63c-2.67-1.84-2.67-5.7-2.67-6.33V72.56c1.02-.45 5.42-2.81 12.96-7.28 5.78-3.4 8.25-8.16 8.25-13.41 0-1.05-.09-2.22-.25-3.51-.74-5.49-5.86-15.67-7.45-16.42-2.22-1.12-20.87 11.42-21.06 11.55zm-749.3 3c0-1.52.2-2.64.54-3.32.51-.9 1.41-1.23 1.43-1.26h.01l.05-.02c1.02.16 6.44 7.58 6.44 14.77 0 6.6-2.04 9.07-4.2 10.36a30.74 30.74 0 0 1-4.27 2.29zm-7.6-3c-3.86 2.57-7.29 5.23-7.29 9.23v43.44c0 3.65 2.38 7.06 7.29 10.4 4.12 2.9 10.9 5.33 10.96 5.35l.24.08 10.43-13.6s-6.43-.3-11.3-3.63c-2.72-1.84-2.73-5.7-2.73-6.33V72.56c1.04-.45 5.48-2.81 12.96-7.28 5.7-3.4 8.14-8.16 8.14-13.41 0-1.05-.1-2.22-.25-3.51-.72-5.49-5.85-15.67-7.4-16.42-2.28-1.12-20.9 11.42-21.07 11.55zm135 3c0-1.53.15-2.65.53-3.33.5-.9 1.35-1.23 1.4-1.26h.02l.04-.04c1.04.17 6.45 7.59 6.45 14.78 0 6.6-2.06 9.08-4.18 10.36a33.62 33.62 0 0 1-4.27 2.3V46.47zm-7.66-3c-3.82 2.57-7.26 5.23-7.26 9.23v43.44c0 3.65 2.36 7.06 7.26 10.4 4.14 2.9 10.92 5.33 11 5.35l.22.08 10.43-13.6s-6.4-.3-11.32-3.63c-2.68-1.84-2.68-5.7-2.68-6.33V72.56c1.03-.45 5.46-2.81 12.96-7.28 5.68-3.4 8.1-8.16 8.1-13.41 0-1.05-.08-2.22-.25-3.51-.7-5.49-5.83-15.67-7.38-16.42-2.26-1.12-20.9 11.42-21.1 11.55zm490 3c0-1.5.21-2.64.56-3.33.49-.89 1.37-1.22 1.42-1.25l.04-.02c1 .16 6.43 7.58 6.43 14.77 0 6.6-2.07 9.07-4.17 10.36a34.25 34.25 0 0 1-4.28 2.29zm-7.65-3c-3.8 2.57-7.23 5.23-7.23 9.23v43.44c0 3.65 2.38 7.06 7.23 10.4 4.17 2.9 10.95 5.33 11 5.35l.24.08 10.43-13.6s-6.42-.3-11.32-3.63c-2.67-1.84-2.7-5.7-2.7-6.33V72.56c1.05-.45 5.46-2.81 12.97-7.28 5.7-3.4 8.12-8.16 8.12-13.41 0-1.05-.1-2.22-.29-3.51-.68-5.49-5.8-15.67-7.34-16.42-2.26-1.12-20.91 11.42-21.12 11.55zm-516.1 6.28v42.6c-.28.42-2.76 3.9-6.2 3.9-4.38 0-4.44-5.54-4.44-5.75V53.16c0-1.47.1-4.67.1-4.67a6.68 6.68 0 0 1 2.77-5.36l.09-.04c1.47-.8 7.67 3.77 7.67 6.66zm-12.3-7.6c-3.12 2.67-13.25 12.12-13.25 14.97v39.03c0 4.5 3.76 9.87 7.24 12.3 4.2 2.88 7.12 3.43 7.24 3.49l.23.03 10.83-16.21v3.04c0 2.11.25 5.54.42 6.59.34 2.12 2.07 4.18 3.5 5.67 1.42 1.45 3.79 4.52 4.13 10.65.45 7.56-4.68 13.6-11.12 13.6-5.81 0-10.53-2.42-12.59-5.03-.03-.2-.06-.34-.06-.5 0-.37.17-.54.3-.65.45.25 1.79.93 3.96.93 2.6 0 5.92-3.09 5.92-6.86 0-3.93-2.72-7.14-7-7.14-4.82 0-7.8 4.72-7.8 7.73v.18c0 1.65-.01 5.44 3 8.6 2.85 2.93 7.66 5.37 14.27 5.42 16.58.12 24.28-12 24.28-22.89 0-4.65-2.37-7.56-3.96-9.87 0 0-.75-1.1-1.07-1.72-1.25-2.17-1.12-6.77-1.12-6.77v-50.5c0-.75.1-2.8.37-3.42.3-.7.75-1 .75-1l.42-.3-.41-.31c-.49-.36-11.93-8.62-13.4-9.32-2.25-1.12-12.48 8.01-15.06 10.23zm308.2 61.9l.6.6-.6-.64zm13.42-21.04l-.64.05v.02l.65-.05zm-21.47-2.51c1.01.43 4.98 4.13 6.02-.92l10.4 8.8c-1.7 1.46-3.8 2.64-6.88.75-.1-.08-7.33-6.66-9.54-8.63zm-.6 27.7c-1.63-.32-1.87-2.4-2.51-4.61-.61-1.93-4.25-6.82-5.75-8.55 1.22 1.04 2.92 1.1 3.84.3l7.68 11.93c-1.93 1.56-2.34 1.11-3.26.92zm11.28-46.85l12.74 6.03a8.12 8.12 0 0 1-3.85 3.02l-13.18-6.3c2.39.21 3.57 0 4.37-2.69zm-3.94-40.93c-1.18 1.2-2.53.62-3.11.17a49.49 49.49 0 0 1-2.52-2.28l3.03-3.27a68.16 68.16 0 0 0 2.6 2.42c.46.46.94 2.01 0 2.96zm-4.89 4.69c-1.22 1.3-2.76.47-2.76.47l-2.55-2.28 3-3.22a27.69 27.69 0 0 1 2.26 2.04c.33.34 1.17 1.84.05 3zm9.14 66.08l-.04-.18.16.03c.04.05 3 .8 5.24-.85a10.11 10.11 0 0 0 3.57-4.48c.64-1.43.86-2.64.86-2.64l.04-.03c.34-4.35-.78-9.12-1.38-11.3a7.06 7.06 0 0 0 3.72-2c1.82-1.77 5.95-7.25 4.61-19.6-1.54-14.08-8.73-26.4-21.23-37.4l1.61-1.68 1.38 3.64L511.22.14l-15.18 7.13 4.65 1.22-1.65 1.8-.42-.28-2.55 2.63.5.45-1.3 1.42a2.84 2.84 0 0 1-.41-.4l-2.67 2.78.45.4-1.42 1.53c-.28-.3-.45-.43-.45-.43l-4.36 4.53s.07.08.36.34l-1.9 2.3.94.94 2.29 1.74 2.11-2.36c4.57 4.07 12.94 12.37 15.26 20.08 1.54 5.12 2.1 10.37.07 13.52a5.98 5.98 0 0 0-3.6-.54c-1.48.2-2.46 1.55-2.22 4.53.29 3.23 1.96 11.51.8 14 0 0-1.49-1.26-3.59-1.56-4.17-.62-3.8 4.03-4.95 9.34l-4.64-4.98-3.08 2.8 6.16 6.6c-1 .1-2.98.54-4.48 2.78-2.12 3.26 2.38 6.06 4.48 9.47 1.66 2.7 1 7.84 5.75 7.84 3.31 0 6.22-3.05 7.6-5.78v.03c.1-.18 2.39-4.78 2.7-8.2.37-3.43.25-4.6.25-4.6zm25.2 3.75l-6.43 12.59c.68-1.76 1.26-4.07-1.34-6.29.2.03 6.03-11.87 6.03-11.87a4.23 4.23 0 0 1 2.02 3.68 8.73 8.73 0 0 1-.27 1.88zm16.92-2.19c-9.8 7.16-12.37 2.79-15.65 2.38.52-1.26 1.5-5.36-2.96-8.47A20.54 20.54 0 0 0 517.2 83c-.03.06-.2 1.38-.75 2.79a11.88 11.88 0 0 1-3.77 5 7.16 7.16 0 0 1-5.01 1.26c0 .1-.09.77-.09 1.12 0 .7 0 .75-.16 2.65-.36 4.23-2.87 8.81-2.91 8.93l-.12-.1 11.25 12.17s1.56 1.73 3.1-.05c1.26-1.41-.4-3.2-.4-3.2l-11.25-12.65c2.3-1.15 6.66-1.7 10.96-.99.68.11 1.33.27 2.02.53l-1.47 2.57h-.03c-1.58 2.78 3.11 7.93 12.53 9.42a17.59 17.59 0 0 0 16.74-5.9c-5.9-.1-9.22-2.89-9.22-2.89s8.14-2.5 10.56-10.93z"/>
</svg>
