<?xml version="1.0" encoding="UTF-8" standalone="no"?>
<svg
   xmlns:dc="http://purl.org/dc/elements/1.1/"
   xmlns:cc="http://creativecommons.org/ns#"
   xmlns:rdf="http://www.w3.org/1999/02/22-rdf-syntax-ns#"
   xmlns:svg="http://www.w3.org/2000/svg"
   xmlns="http://www.w3.org/2000/svg"
   xmlns:sodipodi="http://sodipodi.sourceforge.net/DTD/sodipodi-0.dtd"
   xmlns:inkscape="http://www.inkscape.org/namespaces/inkscape"
   viewBox="0 0 782.59 120"
   version="1"
   id="svg166"
   sodipodi:docname="BergensTidende.svg"
   inkscape:version="0.92.1 r15371"><metadata
   id="metadata172">
  <rdf:RDF>
    <cc:Work
       rdf:about="">
      <dc:format>image/svg+xml</dc:format>
      <dc:type
         rdf:resource="http://purl.org/dc/dcmitype/StillImage" />
      <dc:title></dc:title>
    </cc:Work>
  </rdf:RDF>
</metadata>
<defs
   id="defs170" />
<sodipodi:namedview
   pagecolor="#ffffff"
   bordercolor="#666666"
   borderopacity="1"
   objecttolerance="10"
   gridtolerance="10"
   guidetolerance="10"
   inkscape:pageopacity="0"
   inkscape:pageshadow="2"
   inkscape:window-width="1920"
   inkscape:window-height="1055"
   id="namedview168"
   showgrid="false"
   inkscape:zoom="0.89446578"
   inkscape:cx="717.73638"
   inkscape:cy="109.57154"
   inkscape:window-x="0"
   inkscape:window-y="25"
   inkscape:window-maximized="1"
   inkscape:current-layer="svg166" />

    path d=&quot;M170.07 36.65c-2.71 2.32-11.52 10.54-11.52 13.02v33.94c0 3.92 3.27 8.59 6.3 10.7 3.64 2.49 6.19 2.98 6.3 3.02l.19.03 9.42-14.08v2.64c0 1.84.22 4.81.37 5.73.28 1.85 1.8 3.64 3.05 4.92 1.23 1.27 3.28 3.94 3.58 9.27.39 6.58-4.08 11.82-9.67 11.82-5.07 0-9.16-2.1-10.94-4.38-.04-.16-.07-.28-.07-.42 0-.32.16-.48.27-.56.38.2 1.56.79 3.44.79 2.27 0 5.15-2.67 5.15-5.96 0-3.42-2.37-6.2-6.08-6.2-4.2 0-6.79 4.1-6.79 6.72v.16c0 1.43-.02 4.73 2.6 7.46 2.48 2.57 6.67 4.68 12.42 4.73 14.42.1 21.1-10.45 21.1-19.91 0-4.04-2.05-6.58-3.44-8.6 0 0-.65-.95-.93-1.48-1.08-1.9-.97-5.89-.97-5.89v-43.9c0-.63.09-2.42.32-2.95.26-.62.65-.88.65-.88l.38-.27-.37-.26c-.42-.32-10.37-7.49-11.64-8.1-1.97-.97-10.87 6.96-13.12 8.9zm10.7 6.62V80.3c-.25.37-2.4 3.4-5.4 3.4-3.8 0-3.86-4.82-3.86-5V46.23c0-1.29.09-4.06.09-4.06a5.81 5.81 0 0 1 2.4-4.67s.06-.01.07-.03c1.29-.7 6.68 3.27 6.68 5.79zm448.78-5.47c-3.3 2.25-6.3 4.55-6.3 8.03v37.78c0 3.18 2.08 6.14 6.3 9.06 3.63 2.51 9.53 4.62 9.57 4.64l.21.07 9.08-11.82s-5.6-.26-9.85-3.18c-2.33-1.58-2.36-4.94-2.36-5.49V63.1c.91-.4 4.75-2.45 11.29-6.34 4.96-2.95 7.07-7.08 7.07-11.65 0-.92-.1-1.94-.25-3.07-.6-4.76-5.06-13.63-6.4-14.28-1.97-.96-18.19 9.94-18.36 10.05zm6.65 2.62c0-1.32.17-2.31.49-2.89.42-.79 1.2-1.07 1.23-1.1l.04-.02c.88.14 5.6 6.6 5.6 12.84 0 5.75-1.8 7.9-3.63 9.02a29.78 29.78 0 0 1-3.73 1.98V40.42zM210.04 37.8c-3.32 2.25-6.3 4.55-6.3 8.03v37.78c0 3.18 2.05 6.14 6.3 9.06 3.61 2.51 9.5 4.62 9.57 4.64l.2.07 9.07-11.82s-5.57-.26-9.84-3.18c-2.33-1.58-2.35-4.94-2.35-5.49V63.1c.9-.4 4.75-2.45 11.28-6.34 4.94-2.95 7.05-7.08 7.05-11.65 0-.92-.07-1.94-.21-3.07-.62-4.76-5.08-13.63-6.42-14.28-1.97-.96-18.18 9.94-18.35 10.05zm6.65 2.62c0-1.32.15-2.31.48-2.89.42-.79 1.18-1.07 1.22-1.1s.03 0 .04-.02c.9.14 5.61 6.6 5.61 12.84 0 5.75-1.79 7.9-3.63 9.02-1.6.96-2.89 1.65-3.72 1.98V40.42zM99.32 37.8c-3.35 2.25-6.33 4.55-6.33 8.03v37.78c0 3.18 2.07 6.14 6.33 9.06 3.6 2.51 9.5 4.62 9.55 4.64l.2.07 9.08-11.82s-5.59-.26-9.83-3.18c-2.36-1.58-2.37-4.94-2.37-5.49V63.1c.91-.4 4.76-2.45 11.27-6.34 4.96-2.95 7.09-7.08 7.09-11.65 0-.92-.1-1.94-.23-3.07-.62-4.76-5.08-13.63-6.44-14.28-1.97-.96-18.17 9.94-18.32 10.05zm6.63 2.62c0-1.32.15-2.31.47-2.89.44-.79 1.22-1.07 1.23-1.1h.02l.03-.02c.88.14 5.6 6.6 5.6 12.84 0 5.75-1.78 7.9-3.64 9.02a27.8 27.8 0 0 1-3.71 1.98V40.42zm651.64-2.62c-3.3 2.25-6.3 4.55-6.3 8.03v37.78c0 3.18 2.04 6.14 6.3 9.06 3.62 2.51 9.53 4.62 9.56 4.64l.22.07 9.07-11.82s-5.56-.26-9.85-3.18c-2.32-1.58-2.32-4.94-2.32-5.49V63.1c.88-.4 4.72-2.45 11.26-6.34 4.92-2.95 7.06-7.08 7.06-11.65 0-.92-.06-1.94-.2-3.07-.64-4.76-5.1-13.63-6.48-14.28-1.93-.96-18.15 9.94-18.32 10.05zm6.68 2.62c0-1.32.14-2.31.42-2.89.46-.79 1.23-1.07 1.27-1.1l.03-.02c.88.14 5.63 6.6 5.63 12.84 0 5.75-1.8 7.9-3.66 9.02a29.95 29.95 0 0 1-3.69 1.98V40.42zM304.42 28.79c-.09.04-8.76 3.87-14.5 10.4-2.84 3.27-5.11 8.58-5.27 12.4-.2 4.18.36 9.8 3.87 12.71a8.16 8.16 0 0 0 7.6 1.74c1.84-.5 5.84-1.76 7.1-2.16 2.08-.63 2.82-.07 3.05.4.35.73.39 4.15.39 4.15l-.03 18.01c-1.17-1.86-4.23-5.48-10.02-4.34-7.9 1.55-11.17 13.86-11.3 14.39l-.06.19 1.06.91.17-.33c.04-.06 2.22-3.97 5.37-3.68 3.64.33 5.71 3.77 5.73 3.8l.16.23.33-.18c14.97-4.3 22.69-12.6 22.83-24.69.07-5.7-.74-8.35-3.3-10.95-3.35-4-10.42-4.24-19.39-.76l.05-19.71a8.31 8.31 0 0 0 5.63 2.35c9.1.54 13.03-13.28 13.2-13.86l.04-.21-1.07-.9-.17.34c-.02.03-2.22 3.97-5.37 3.67-3.64-.35-5.71-3.74-5.73-3.78l-.14-.24zM5.42 8.46C1.83 12.17 0 17.31 0 22.48c.4 13.4 9.04 18.43 9.04 18.43l.55-1.14s-3.42-3.8-3.79-9.62c-.3-5.53 3.22-10.22 7.83-12.21 6.82-2.94 14.5-.07 20.54 7.67a36.51 36.51 0 0 1 7.88 22.9c0 10.34-4.92 20.24-4.92 20.24l.63.88s16.55-13.74 16.55-40.1c0-1.5-.2-3.34-.46-4.85 0 0 .69-1.55 2.85-4.2l2.92-3.63v26.6s-3.24.71-3.24 2.79c0 2.29 3.24 2.8 3.24 2.8v24.18s-3.06-.58-6 1.84l-7.66 8.13S30.09 68 28.74 65.36a11.2 11.2 0 0 1-1.1-5.16 7.5 7.5 0 0 1 1.15-4.1c1.2-1.8 4.19-1.79 4.19-1.79l.08-.91s-4.82-.07-8.63 3.29a17.99 17.99 0 0 0-6 12.67c-.07 4.17.88 7.21 3.42 11.37 2.26 3.64 15.4 15.74 15.4 15.74l13.91-16.1s-1.06 5.2 1 9.4c2.66 5.41 7.1 7.77 13.9 7.77 8.26 0 14.09-4.03 17.37-12.17 2.1-5.17 2.54-11.12 2.54-15.21 0-6.28-1.07-12.65-2.71-16.2-2.7-5.88-8.35-8.23-8.35-8.23s3.34-2 7-5.53c3.58-3.44 5.04-7.36 4.85-11.09-.28-4.91-2.18-8.74-5.63-12.94C77.97 12.27 77 9.2 77 7.04c0-.72.08-1.27.16-1.62.31-1.97 3.48-3.62 3.48-3.62V.9S68.96 5.81 63 10.68c-6.16 5.06-9.97 10.86-9.97 10.86C48.36 8.6 38.1.72 26.4.3 20.12.1 11.19 2.52 5.42 8.46zM65.46 81.3a6.33 6.33 0 0 0-2.9-7.28V49.1s1.07.1 2.87-.06 3.7-.69 3.7-.69.83.64.88 4.42v34.87c0 1.1.13 2.8-.61 4.46-.28.63-2.95 4.55-8.95 2.02-8.7-3.7-7.2-11.6-7.07-12.49 0 0 1.12 4.31 5.64 4.64 3.12.23 5.79-2.34 6.44-4.99zm2.81-71.7a21.16 21.16 0 0 0-2.3 9.95c0 3.94 1.99 7.97 4.3 10.82 1.84 2.29 4.4 4 4.4 8 0 3.11-2.74 5.8-2.84 5.9-1.71-.5-3.73-.77-5.23-.9-1.47-.2-3.4-.1-3.88-.1V14.08a23.32 23.32 0 0 1 5.55-4.49zm650.24-8.11c-2.54.63-4.9 2.81-6.37 5.78a13.07 13.07 0 0 0-1.1 5.17c0 3.93 1.94 7.25 4.06 10.38 2.1 2.9 5.94 8.13 6.85 9.4-4.71 2.65-14.94 8.91-14.94 12.99v38.74c0 3.66 3.26 8.33 6.3 10.38 4.21 2.85 6.25 3.19 6.53 2.97l-.13.06c3.09-.4 5.41-1.15 10.34-3.36 4.32-1.94 12.1-6.58 12.1-8.88l.03-43v-1.68c-.32-5.38-2-8.58-5-12.57l-7.84-10.25c-6.12-7.83-8.4-10.77-6.96-12.5.24-.34.6-.5.98-.52 1.51-.05 3.41 1.95 3.45 1.97l.2.23 1.84-1.93-.21-.22c-.04-.05-3.8-4.64-10.13-3.16zm1.48 78.56l-.11-41.36c0-1.27 2.18-3.65 3.3-4.1.22-.1.32-.07.32-.07 1.62 1.72 5.73 6.8 5.73 9.6V87.4c-.77.36-4.18 1.64-6.64-.12-1.62-1.18-2.6-1.9-2.6-7.23zM591.03 1.48c-2.5.63-4.89 2.81-6.36 5.78a13.14 13.14 0 0 0-1.1 5.17c0 3.93 1.98 7.25 4.02 10.38 2.14 2.9 5.98 8.13 6.89 9.4-4.75 2.65-14.95 8.91-14.95 12.99v38.74c0 3.66 3.27 8.33 6.3 10.38 4.25 2.85 6.26 3.19 6.54 2.97l-.14.06c3.1-.4 5.42-1.15 10.35-3.36 4.32-1.94 12.09-6.58 12.09-8.88l.04-43v-1.68c-.32-5.38-2-8.58-5-12.57l-7.88-10.25c-6.08-7.83-8.37-10.77-6.96-12.5.28-.34.63-.5 1.02-.52 1.51-.05 3.41 1.95 3.44 1.97l.22.23 1.79-1.93-.18-.22c-.03-.05-3.8-4.64-10.13-3.16zm1.48 78.56l-.1-41.36c0-1.27 2.18-3.65 3.3-4.1.21-.1.32-.07.36-.07 1.58 1.72 5.7 6.8 5.7 9.6V87.4c-.78.36-4.2 1.64-6.62-.12-1.65-1.18-2.64-1.9-2.64-7.23zM492 1.94c-7.71 4.06-11.97 14-10.1 23.06.91 4.73 4.29 7.95 9.32 8.81 2.95.51 7-.31 9.35-2.9.11-.1.11-.14.11-.14l-1.02-1.3-.1.07a10.25 10.25 0 0 1-6.23 2.44c-3.27.02-7.25-2.23-8.38-6.03-1.01-4.06.57-8.27 4.09-11.01 3.02-1.9 7.45-2.06 10.83-.42.04 0 33.03 17.32 33.03 17.32s-9.53 4.06-13.12 14.9c-1.4 4.33.52 10.94 2.29 14.26 1.76 3.32 3.65 6.54 3.65 10.35 0 0 .15 2.97-1.23 5.21-1.3 2.6-6.3 4.5-6.3 4.5s-16.53-9.93-9.74-33.23c2.36-8.2 10.63-13.97 10.63-13.97l-.92-1.07s-20.08 8.2-23.67 24.97c-1.62 7.67-1.58 18.98 4.96 27.8 7.7 10.37 24.23 15.03 35.24 9.67 4.12-1.7 7.95-5.05 10.84-8.9 4.18-5.61 5.7-14.48 5.7-14.48l-1.8-.01s-1.13 5.73-4 8.52c-7.85 7.72-21.75 4.03-24.91 2.18 0 0 4.6-2 7.7-4 7.07-4.65 9.96-12.24 9.96-15.27 0 0 .8-5.96-3.41-13.21a35.41 35.41 0 0 1-2.9-5.82c-2.24-6.03 3.1-11.56 3.1-11.56 4.3 1.1 9.19.41 12.56-2.07 3.73-3.38 5.45-6.79 5.67-10.06.48-6.86-6.76-9.06-6.76-9.06l-.88 1.74s4.4 2.19 4.75 3.95a3.63 3.63 0 0 1-.67 3.14c-.53.6-2.15 1.23-3.58.55l-26.91-14c-8.66-4.66-17.17-9.75-27.12-4.95zm63.95 7.31c0 5.22 5 12.07 6.8 12.07 1.82 0 6.78-6.85 6.78-12.07a6.9 6.9 0 0 0-6.79-7.01 6.92 6.92 0 0 0-6.79 7.01z&quot; fill-rule=&quot;evenodd&quot;/&gt;
    
    path d=&quot;M406.21 14.05c-.08-.14-2.95-3.99-3.02-4.08V8.41a1.99 1.99 0 0 0 1.34-1.9 2 2 0 0 0-1.95-2.04 2 2 0 0 0-1.99 2.04c0 .9.58 1.65 1.39 1.92V10c-.08.1-2.89 3.87-2.97 4-16.34 1.79-28.64 15.94-28.64 32.97 0 18.29 14.37 33.17 32.05 33.17 17.7 0 32.08-14.88 32.08-33.17 0-16.83-12.16-30.97-28.29-32.93zm-23.4 56.13a31.3 31.3 0 0 1-10.22-23.2c0-14.76 10.48-27.68 24.45-30.34l-19.6 26.26 3.43 2.8 1.13-1.52h.8v26zm14.67 7.22c-.04-2.6 0-8.69.05-8.86a5.04 5.04 0 0 1 4.96-5.14 5.1 5.1 0 0 1 5.01 5.14c.05.17.07 6.2.05 8.83-1.67.3-3.4.47-5.13.47a28.9 28.9 0 0 1-4.94-.44zm22.88-5.8a28.82 28.82 0 0 1-5.97 3.62v-8.18l.67-.05v-2.62h-1.53c-1.42-4.19-4.48-7.28-8.83-7.91v-1h-4.36l.02 1c-3.92.63-7.44 3.74-8.88 7.91h-1.51V67l.66.05v8.27a29.92 29.92 0 0 1-5.82-3.43V44.14h35.55V71.6zm2.02-1.74V44.14h.76l1.2 1.55.14-.12 3.27-2.67s-18.93-25.4-19.55-26.2c13.99 2.86 24.06 15.48 24.06 30.28a31.3 31.3 0 0 1-9.88 22.88z&quot; fill-rule=&quot;evenodd&quot;/&gt;
    <g
   transform="matrix(4.455374,0,0,-4.455374,-38.105019,490.00585)"
   id="g2461">
  <path
     d="m 115.695,91.735 c -1.912,-1.398 -2.417,-0.545 -3.057,-0.466 0.103,0.245 0.292,1.047 -0.577,1.655 -0.971,0.672 -2.022,0.77 -2.544,0.715 -0.008,-0.012 -0.039,-0.268 -0.149,-0.544 -0.103,-0.234 -0.301,-0.657 -0.735,-0.977 -0.387,-0.284 -0.861,-0.272 -0.98,-0.245 0,-0.023 -0.016,-0.15 -0.016,-0.221 0,-0.138 0,-0.146 -0.031,-0.517 -0.071,-0.826 -0.561,-1.722 -0.569,-1.746 l -0.024,0.024 2.197,-2.382 c 0,0 0.307,-0.336 0.608,0.012 0.245,0.276 -0.08,0.624 -0.08,0.624 l -2.266,2.468 c 0.45,0.226 1.303,0.329 2.14,0.194 0.135,-0.02 0.261,-0.055 0.395,-0.103 l -0.284,-0.501 h -0.008 c -0.308,-0.545 0.608,-1.548 2.449,-1.841 1.84,-0.291 2.875,0.696 3.27,1.15 -1.154,0.019 -1.801,0.568 -1.801,0.568 0,0 1.588,0.486 2.062,2.133 z m -3.302,-0.426 -1.256,-2.461 c 0.134,0.344 0.245,0.798 -0.261,1.229 0.039,-0.008 1.177,2.318 1.177,2.318 0.253,-0.142 0.395,-0.434 0.395,-0.719 0,-0.099 -0.032,-0.296 -0.055,-0.367 z"
     style="fill:#000000;fill-opacity:1;fill-rule:evenodd;stroke:none"
     id="path2463"
     inkscape:connector-curvature="0" />
</g>
<g
   transform="matrix(4.455374,0,0,-4.455374,-38.105019,490.00585)"
   id="g2465">
  <path
     d="m 107.472,92.039 -0.008,0.036 0.031,-0.008 c 0.008,-0.008 0.585,-0.154 1.027,0.166 0.426,0.312 0.601,0.648 0.695,0.877 0.127,0.28 0.166,0.517 0.166,0.517 l 0.009,0.004 c 0.07,0.849 -0.151,1.781 -0.269,2.208 0.245,0.035 0.489,0.17 0.726,0.391 0.356,0.344 1.161,1.414 0.901,3.827 -0.301,2.749 -1.707,5.155 -4.147,7.303 l 0.315,0.328 0.269,-0.711 1.161,2.847 -2.962,-1.394 0.909,-0.241 -0.324,-0.351 -0.079,0.055 -0.498,-0.513 0.095,-0.087 -0.253,-0.277 c -0.055,0.044 -0.079,0.079 -0.079,0.079 l -0.521,-0.545 c 0,0 0.032,-0.031 0.087,-0.078 l -0.277,-0.297 c -0.055,0.055 -0.087,0.083 -0.087,0.083 l -0.853,-0.885 c 0,0 0.016,-0.019 0.071,-0.067 l -0.373,-0.446 0.185,-0.186 0.449,-0.34 0.411,0.463 c 0.892,-0.798 2.527,-2.418 2.978,-3.922 0.3,-1 0.41,-2.027 0.016,-2.639 -0.214,0.103 -0.419,0.139 -0.704,0.103 -0.292,-0.039 -0.481,-0.304 -0.434,-0.885 0.055,-0.631 0.379,-2.247 0.158,-2.733 0,0 -0.292,0.245 -0.703,0.304 -0.814,0.122 -0.743,-0.786 -0.964,-1.824 l -0.908,0.975 -0.602,-0.549 1.203,-1.291 c -0.198,-0.016 -0.585,-0.103 -0.876,-0.541 -0.414,-0.636 0.464,-1.185 0.876,-1.849 0.323,-0.526 0.196,-1.533 1.121,-1.533 0.648,0 1.216,0.597 1.485,1.13 v -0.004 c 0.023,0.036 0.466,0.932 0.53,1.6 0.07,0.668 0.047,0.9 0.047,0.9 z m -1.785,12.904 c -0.238,-0.253 -0.538,-0.091 -0.538,-0.091 l -0.498,0.446 0.585,0.628 c 0.245,-0.205 0.419,-0.363 0.442,-0.395 0.064,-0.067 0.229,-0.363 0.009,-0.588 z m 0.955,0.916 c -0.229,-0.233 -0.497,-0.118 -0.608,-0.031 -0.047,0.039 -0.213,0.181 -0.49,0.446 l 0.592,0.639 c 0.254,-0.248 0.474,-0.453 0.506,-0.477 0.087,-0.091 0.182,-0.391 0,-0.577 z m 0.766,-7.99 2.488,-1.177 c -0.331,-0.466 -0.75,-0.592 -0.75,-0.592 l -2.591,1.244 c 0.467,-0.04 0.695,0 0.853,0.525 z m -2.203,-9.147 c -0.317,0.063 -0.364,0.466 -0.49,0.9 -0.119,0.376 -0.829,1.331 -1.121,1.667 0.236,-0.202 0.568,-0.214 0.749,-0.059 l 1.501,-2.33 c -0.379,-0.305 -0.458,-0.218 -0.639,-0.178 z m 0.118,5.411 c 0.198,-0.083 0.972,-0.81 1.177,0.181 l 2.03,-1.721 c -0.332,-0.285 -0.742,-0.518 -1.343,-0.147 -0.024,0.016 -1.43,1.3 -1.864,1.687 z"
     style="fill:#000000;fill-opacity:1;fill-rule:evenodd;stroke:none"
     id="path2467"
     inkscape:connector-curvature="0" />
</g>
<g
   transform="matrix(4.455374,0,0,-4.455374,-38.105019,490.00585)"
   id="g2469">
  <path
     d="m 109.517,93.639 v 0.004 l -0.125,-0.012 c 0,-0.004 0,-0.004 0,-0.004 0.031,0.004 0.078,0.008 0.125,0.012 z"
     style="fill:#ffffff;fill-opacity:1;fill-rule:evenodd;stroke:none"
     id="path2471"
     inkscape:connector-curvature="0" />
</g>
<g
   transform="matrix(4.455374,0,0,-4.455374,-38.105019,490.00585)"
   id="g2473">
  <path
     d="m 106.895,89.531 0.118,-0.118 -0.118,0.126 z"
     style="fill:#ffffff;fill-opacity:1;fill-rule:evenodd;stroke:none"
     id="path2475"
     inkscape:connector-curvature="0" />
</g>
<g
   transform="matrix(4.455374,0,0,-4.455374,-38.105019,490.00585)"
   id="g2477">
  <path
     d="M 46.697,101.621 C 46.088,101.1 44.11,99.255 44.11,98.698 v -7.623 c 0,-0.88 0.734,-1.927 1.414,-2.401 0.818,-0.56 1.39,-0.671 1.414,-0.679 l 0.043,-0.008 c 0,0 1.892,2.828 2.117,3.164 0,-0.19 0,-0.593 0,-0.593 0,-0.414 0.048,-1.082 0.083,-1.287 0.063,-0.415 0.403,-0.818 0.684,-1.106 0.276,-0.285 0.738,-0.885 0.805,-2.082 0.087,-1.477 -0.916,-2.654 -2.172,-2.654 -1.138,0 -2.058,0.47 -2.457,0.983 -0.008,0.036 -0.015,0.064 -0.015,0.096 0,0.071 0.035,0.106 0.059,0.126 0.087,-0.048 0.351,-0.178 0.774,-0.178 0.509,0 1.157,0.6 1.157,1.339 0,0.766 -0.533,1.39 -1.367,1.39 -0.944,0 -1.524,-0.92 -1.524,-1.508 v -0.036 c 0,-0.32 -0.004,-1.062 0.585,-1.675 0.556,-0.576 1.496,-1.051 2.788,-1.062 3.239,-0.024 4.739,2.346 4.739,4.471 0,0.908 -0.462,1.477 -0.774,1.931 0,0 -0.146,0.214 -0.209,0.332 -0.241,0.427 -0.217,1.323 -0.217,1.323 v 9.859 c 0,0.142 0.02,0.544 0.071,0.663 0.059,0.138 0.146,0.197 0.146,0.197 l 0.087,0.06 -0.083,0.059 c -0.095,0.071 -2.33,1.682 -2.615,1.821 -0.442,0.217 -2.44,-1.564 -2.946,-1.999 z m 2.401,-1.485 c 0,-0.051 0,-8.27 0,-8.318 -0.055,-0.083 -0.537,-0.763 -1.212,-0.763 -0.853,0 -0.865,1.08 -0.865,1.123 0,0 0,7.172 0,7.291 0,0.288 0.019,0.912 0.019,0.912 0,0.68 0.53,1.047 0.542,1.047 0,0 0.012,0.004 0.015,0.008 0.289,0.157 1.501,-0.735 1.501,-1.3 z"
     style="fill:#000000;fill-opacity:1;fill-rule:evenodd;stroke:none"
     id="path2479"
     inkscape:connector-curvature="0" />
</g>
<g
   transform="matrix(4.455374,0,0,-4.455374,-38.105019,490.00585)"
   id="g2481">
  <path
     d="m 149.882,101.364 v 0 c -0.742,-0.505 -1.413,-1.023 -1.413,-1.804 v -8.485 c 0,-0.714 0.466,-1.377 1.413,-2.033 0.815,-0.565 2.141,-1.039 2.149,-1.043 l 0.048,-0.016 2.038,2.654 c 0,0 -1.256,0.059 -2.212,0.715 -0.522,0.356 -0.53,1.11 -0.53,1.232 0,0.009 0,0.017 0,0.017 0,0 0,2.993 0,3.084 0.206,0.087 1.067,0.549 2.536,1.422 1.114,0.663 1.588,1.591 1.588,2.618 0,0.206 -0.024,0.435 -0.056,0.688 -0.134,1.07 -1.137,3.061 -1.437,3.207 -0.442,0.217 -4.084,-2.232 -4.124,-2.256 z m 1.493,-0.588 c 0,0.296 0.04,0.518 0.111,0.648 0.095,0.177 0.268,0.241 0.277,0.249 0,0 0,0 0.008,0.003 0.197,-0.031 1.256,-1.481 1.256,-2.883 0,-1.291 -0.403,-1.773 -0.814,-2.026 -0.364,-0.217 -0.648,-0.371 -0.838,-0.446 0,0.197 0,4.455 0,4.455 z"
     style="fill:#000000;fill-opacity:1;fill-rule:evenodd;stroke:none"
     id="path2483"
     inkscape:connector-curvature="0" />
</g>
<g
   transform="matrix(4.455374,0,0,-4.455374,-38.105019,490.00585)"
   id="g2485">
  <path
     d="m 55.674,101.364 v 0 c -0.746,-0.505 -1.417,-1.023 -1.417,-1.804 v -8.485 c 0,-0.714 0.462,-1.377 1.417,-2.033 0.81,-0.565 2.133,-1.039 2.149,-1.043 l 0.043,-0.016 2.038,2.654 c 0,0 -1.252,0.059 -2.211,0.715 -0.522,0.356 -0.526,1.11 -0.526,1.232 0,0.009 0,0.017 0,0.017 0,0 0,2.993 0,3.084 0.202,0.087 1.067,0.549 2.532,1.422 1.11,0.663 1.584,1.591 1.584,2.618 0,0.206 -0.016,0.435 -0.048,0.688 -0.138,1.07 -1.141,3.061 -1.441,3.207 -0.443,0.217 -4.084,-2.232 -4.12,-2.256 z m 1.493,-0.588 c 0,0.296 0.032,0.518 0.107,0.648 0.095,0.177 0.264,0.241 0.273,0.249 h 0.003 c 0,0 0.004,0 0.008,0.003 0.202,-0.031 1.26,-1.481 1.26,-2.883 0,-1.291 -0.402,-1.773 -0.817,-2.026 -0.36,-0.217 -0.648,-0.371 -0.834,-0.446 0,0.197 0,4.455 0,4.455 z"
     style="fill:#000000;fill-opacity:1;fill-rule:evenodd;stroke:none"
     id="path2487"
     inkscape:connector-curvature="0" />
</g>
<g
   transform="matrix(4.455374,0,0,-4.455374,-38.105019,490.00585)"
   id="g2489">
  <path
     d="m 30.808,101.364 v 0 c -0.751,-0.505 -1.422,-1.023 -1.422,-1.804 v -8.485 c 0,-0.714 0.466,-1.377 1.422,-2.033 0.809,-0.565 2.132,-1.039 2.144,-1.043 L 33,87.983 l 2.038,2.654 c 0,0 -1.256,0.059 -2.208,0.715 -0.53,0.356 -0.533,1.11 -0.533,1.232 0,0.009 0,0.017 0,0.017 0,0 0,2.993 0,3.084 0.205,0.087 1.07,0.549 2.531,1.422 1.114,0.663 1.592,1.591 1.592,2.618 0,0.206 -0.02,0.435 -0.052,0.688 -0.138,1.07 -1.141,3.061 -1.445,3.207 -0.442,0.217 -4.08,-2.232 -4.115,-2.256 z m 1.489,-0.588 c 0,0.296 0.035,0.518 0.106,0.648 0.099,0.177 0.273,0.241 0.277,0.249 h 0.003 c 0,0 0.004,0 0.008,0.003 0.198,-0.031 1.256,-1.481 1.256,-2.883 0,-1.291 -0.398,-1.773 -0.817,-2.026 -0.36,-0.217 -0.64,-0.371 -0.833,-0.446 0,0.197 0,4.455 0,4.455 z"
     style="fill:#000000;fill-opacity:1;fill-rule:evenodd;stroke:none"
     id="path2491"
     inkscape:connector-curvature="0" />
</g>
<g
   transform="matrix(4.455374,0,0,-4.455374,-38.105019,490.00585)"
   id="g2493">
  <path
     d="m 178.636,101.364 v 0 c -0.742,-0.505 -1.414,-1.023 -1.414,-1.804 v -8.485 c 0,-0.714 0.458,-1.377 1.414,-2.033 0.814,-0.565 2.141,-1.039 2.148,-1.043 l 0.048,-0.016 2.037,2.654 c 0,0 -1.247,0.059 -2.211,0.715 -0.521,0.356 -0.521,1.11 -0.521,1.232 0,0.009 0,0.017 0,0.017 0,0 0,2.993 0,3.084 0.197,0.087 1.059,0.549 2.528,1.422 1.106,0.663 1.587,1.591 1.587,2.618 0,0.206 -0.015,0.435 -0.047,0.688 -0.142,1.07 -1.145,3.061 -1.454,3.207 -0.434,0.217 -4.076,-2.232 -4.115,-2.256 z m 1.501,-0.588 c 0,0.296 0.032,0.518 0.095,0.648 0.102,0.177 0.276,0.241 0.284,0.249 0,0 0,0 0.008,0.003 0.197,-0.031 1.263,-1.481 1.263,-2.883 0,-1.291 -0.403,-1.773 -0.821,-2.026 -0.355,-0.217 -0.648,-0.371 -0.829,-0.446 0,0.197 0,4.455 0,4.455 z"
     style="fill:#000000;fill-opacity:1;fill-rule:evenodd;stroke:none"
     id="path2495"
     inkscape:connector-curvature="0" />
</g>
<g
   transform="matrix(4.455374,0,0,-4.455374,-38.105019,490.00585)"
   id="g2497">
  <path
     d="m 76.868,103.387 c -0.02,-0.008 -1.967,-0.869 -3.255,-2.334 -0.639,-0.735 -1.149,-1.928 -1.184,-2.785 -0.044,-0.94 0.079,-2.2 0.869,-2.856 0.446,-0.359 0.987,-0.576 1.706,-0.391 0.414,0.111 1.311,0.395 1.595,0.486 0.467,0.142 0.632,0.016 0.684,-0.091 0.079,-0.162 0.087,-0.932 0.087,-0.932 L 77.365,90.44 c -0.264,0.419 -0.951,1.232 -2.251,0.975 -1.773,-0.347 -2.508,-3.112 -2.539,-3.231 l -0.012,-0.043 0.237,-0.205 0.039,0.075 c 0.008,0.012 0.498,0.892 1.205,0.825 0.818,-0.074 1.284,-0.845 1.288,-0.853 l 0.035,-0.051 0.075,0.04 c 3.361,0.967 5.095,2.831 5.127,5.544 0.015,1.28 -0.166,1.877 -0.743,2.461 -0.75,0.897 -2.338,0.952 -4.352,0.17 0,0.186 0.008,4.084 0.011,4.427 0.182,-0.185 0.573,-0.489 1.264,-0.529 2.042,-0.122 2.927,2.982 2.963,3.113 l 0.011,0.047 -0.24,0.201 -0.04,-0.075 c -0.004,-0.007 -0.497,-0.892 -1.205,-0.825 -0.817,0.079 -1.283,0.841 -1.287,0.849 l -0.031,0.055 z"
     style="fill:#000000;fill-opacity:1;fill-rule:evenodd;stroke:none"
     id="path2499"
     inkscape:connector-curvature="0" />
</g>
<g
   transform="matrix(4.455374,0,0,-4.455374,-38.105019,490.00585)"
   id="g2501">
  <path
     d="m 9.721,107.952 c -0.806,-0.833 -1.217,-1.986 -1.217,-3.148 0.091,-3.009 2.03,-4.139 2.03,-4.139 l 0.123,0.257 c 0,0 -0.767,0.853 -0.85,2.16 v 0 c -0.067,1.241 0.723,2.295 1.758,2.742 1.532,0.659 3.258,0.015 4.613,-1.722 1.173,-1.509 1.77,-3.239 1.77,-5.143 0,-2.322 -1.106,-4.546 -1.106,-4.546 l 0.142,-0.197 c 0,0 3.717,3.084 3.717,9.005 0,0.336 -0.044,0.75 -0.103,1.09 0,0 0.154,0.347 0.639,0.944 l 0.656,0.814 v -5.976 c 0,0 -0.727,-0.158 -0.727,-0.624 0,-0.514 0.727,-0.628 0.727,-0.628 V 93.41 c 0,0 -0.687,0.13 -1.347,-0.415 l -1.721,-1.824 c 0,0 -3.563,3.408 -3.867,4.004 -0.194,0.368 -0.245,0.798 -0.245,1.158 0,0.363 0.099,0.679 0.256,0.92 0.269,0.407 0.941,0.403 0.941,0.403 l 0.019,0.205 c 0,0 -1.082,0.016 -1.939,-0.739 -1.05,-0.927 -1.339,-2.18 -1.347,-2.847 -0.016,-0.936 0.198,-1.619 0.767,-2.552 0.509,-0.817 3.459,-3.535 3.459,-3.535 l 3.124,3.615 c 0,0 -0.237,-1.166 0.226,-2.109 0.596,-1.217 1.591,-1.747 3.12,-1.747 1.856,0 3.164,0.905 3.902,2.734 0.47,1.161 0.569,2.496 0.569,3.416 0,1.41 -0.241,2.84 -0.609,3.638 -0.604,1.319 -1.875,1.848 -1.875,1.848 0,0 0.75,0.45 1.571,1.241 0.806,0.774 1.134,1.654 1.09,2.491 -0.063,1.103 -0.489,1.963 -1.264,2.907 -0.71,0.873 -0.928,1.565 -0.928,2.05 0,0.162 0.02,0.285 0.036,0.364 0.071,0.442 0.782,0.813 0.782,0.813 v 0.198 c 0,0 -2.623,-1.099 -3.962,-2.192 -1.382,-1.138 -2.239,-2.441 -2.239,-2.441 -1.047,2.907 -3.349,4.676 -5.98,4.771 -1.41,0.047 -3.416,-0.498 -4.711,-1.833 z M 23.204,91.597 c 0.293,1.138 -0.651,1.635 -0.651,1.635 v 5.593 c 0,0 0.241,-0.024 0.644,0.012 0.406,0.035 0.833,0.154 0.833,0.154 0,0 0.186,-0.143 0.197,-0.991 v -7.832 c 0,-0.246 0.028,-0.629 -0.138,-1 -0.063,-0.142 -0.663,-1.023 -2.01,-0.454 -1.955,0.829 -1.616,2.606 -1.588,2.804 0,0 0.253,-0.968 1.268,-1.042 0.699,-0.052 1.299,0.525 1.445,1.121 z m 0.632,16.103 c -0.197,-0.392 -0.517,-1.11 -0.517,-2.236 0,-0.885 0.446,-1.789 0.967,-2.429 0.411,-0.514 0.988,-0.9 0.988,-1.797 0,-0.699 -0.616,-1.303 -0.64,-1.327 -0.383,0.115 -0.837,0.174 -1.173,0.205 -0.331,0.044 -0.762,0.02 -0.873,0.02 0,0.142 0,6.529 0,6.556 0.49,0.526 0.913,0.814 1.248,1.008 z"
     style="fill:#000000;fill-opacity:1;fill-rule:evenodd;stroke:none"
     id="path2503"
     inkscape:connector-curvature="0" />
</g>
<g
   transform="matrix(4.455374,0,0,-4.455374,-38.105019,490.00585)"
   id="g2505">
  <path
     d="m 169.86,109.521 v 0 c -0.569,-0.143 -1.098,-0.632 -1.43,-1.3 -0.174,-0.411 -0.245,-0.794 -0.245,-1.161 0,-0.881 0.434,-1.627 0.909,-2.331 0.474,-0.651 1.335,-1.824 1.54,-2.109 -1.059,-0.596 -3.357,-2.002 -3.357,-2.918 v -8.701 c 0,-0.822 0.734,-1.869 1.414,-2.33 0.948,-0.64 1.406,-0.716 1.469,-0.668 l -0.031,-0.012 c 0.694,0.091 1.216,0.257 2.322,0.754 0.971,0.435 2.717,1.477 2.717,1.995 l 0.008,9.657 c 0,0.012 0,0.375 0,0.375 -0.071,1.209 -0.45,1.927 -1.122,2.824 l -1.761,2.302 c -1.375,1.758 -1.888,2.418 -1.564,2.805 0.055,0.079 0.134,0.114 0.221,0.118 0.339,0.012 0.766,-0.438 0.774,-0.442 l 0.047,-0.051 0.411,0.434 -0.047,0.048 c -0.008,0.011 -0.854,1.042 -2.275,0.711 z m 0.332,-17.644 -0.024,9.29 c 0,0.285 0.489,0.818 0.743,0.92 0.047,0.024 0.071,0.016 0.071,0.016 0.363,-0.387 1.287,-1.529 1.287,-2.157 0,-0.003 0,-9.629 0,-9.72 -0.173,-0.079 -0.94,-0.367 -1.493,0.028 -0.364,0.264 -0.584,0.427 -0.584,1.623 z"
     style="fill:#000000;fill-opacity:1;fill-rule:evenodd;stroke:none"
     id="path2507"
     inkscape:connector-curvature="0" />
</g>
<g
   transform="matrix(4.455374,0,0,-4.455374,-38.105019,490.00585)"
   id="g2509">
  <path
     d="m 141.233,109.521 v 0 c -0.561,-0.143 -1.098,-0.632 -1.43,-1.3 -0.173,-0.411 -0.244,-0.794 -0.244,-1.161 0,-0.881 0.442,-1.627 0.9,-2.331 0.482,-0.651 1.343,-1.824 1.548,-2.109 -1.066,-0.596 -3.357,-2.002 -3.357,-2.918 v -8.701 c 0,-0.822 0.734,-1.869 1.414,-2.33 0.955,-0.64 1.406,-0.716 1.469,-0.668 l -0.031,-0.012 c 0.695,0.091 1.216,0.257 2.323,0.754 0.971,0.435 2.716,1.477 2.716,1.995 l 0.008,9.657 c 0,0.012 0,0.375 0,0.375 -0.071,1.209 -0.45,1.927 -1.121,2.824 l -1.77,2.302 c -1.366,1.758 -1.88,2.418 -1.564,2.805 0.063,0.079 0.142,0.114 0.229,0.118 0.34,0.012 0.767,-0.438 0.774,-0.442 l 0.048,-0.051 0.402,0.434 -0.039,0.048 c -0.008,0.011 -0.854,1.042 -2.275,0.711 z m 0.331,-17.644 -0.023,9.29 c 0,0.285 0.49,0.818 0.743,0.92 0.047,0.024 0.07,0.016 0.079,0.016 0.355,-0.387 1.279,-1.529 1.279,-2.157 0,-0.003 0,-9.629 0,-9.72 -0.173,-0.079 -0.94,-0.367 -1.485,0.028 -0.371,0.264 -0.593,0.427 -0.593,1.623 z"
     style="fill:#000000;fill-opacity:1;fill-rule:evenodd;stroke:none"
     id="path2511"
     inkscape:connector-curvature="0" />
</g>
<g
   transform="matrix(4.455374,0,0,-4.455374,-38.105019,490.00585)"
   id="g2513">
  <path
     d="m 118.997,109.418 v 0 c -1.738,-0.913 -2.694,-3.148 -2.275,-5.182 0.205,-1.063 0.963,-1.785 2.093,-1.979 0.663,-0.115 1.571,0.071 2.101,0.652 0.024,0.023 0.024,0.031 0.024,0.031 l -0.229,0.293 -0.024,-0.016 c -0.395,-0.324 -0.821,-0.514 -1.398,-0.549 -0.734,-0.004 -1.627,0.501 -1.881,1.355 -0.228,0.912 0.127,1.856 0.917,2.472 0.68,0.427 1.675,0.462 2.433,0.095 0.008,0 7.418,-3.891 7.418,-3.891 0,0 -2.141,-0.912 -2.947,-3.345 -0.316,-0.972 0.118,-2.457 0.514,-3.203 0.395,-0.746 0.821,-1.469 0.821,-2.323 0,0 0.032,-0.667 -0.277,-1.172 -0.292,-0.581 -1.413,-1.008 -1.413,-1.008 0,0 -3.713,2.228 -2.189,7.461 0.53,1.841 2.386,3.136 2.386,3.136 l -0.205,0.241 c 0,0 -4.51,-1.84 -5.317,-5.608 -0.363,-1.722 -0.355,-4.262 1.114,-6.241 1.73,-2.33 5.443,-3.376 7.915,-2.172 0.924,0.379 1.786,1.134 2.433,1.999 0.94,1.259 1.28,3.25 1.28,3.25 l -0.403,0.004 c 0,0 -0.253,-1.287 -0.9,-1.915 -1.762,-1.734 -4.882,-0.905 -5.593,-0.49 0,0 1.035,0.45 1.73,0.9 1.587,1.043 2.236,2.749 2.236,3.429 0,0 0.181,1.338 -0.766,2.966 -0.246,0.418 -0.483,0.849 -0.649,1.307 -0.505,1.355 0.696,2.595 0.696,2.595 0.963,-0.245 2.062,-0.091 2.82,0.466 0.837,0.758 1.224,1.524 1.272,2.259 0.109,1.54 -1.517,2.034 -1.517,2.034 l -0.198,-0.391 c 0,0 0.988,-0.49 1.067,-0.885 0.062,-0.312 -0.024,-0.56 -0.15,-0.706 -0.119,-0.135 -0.483,-0.277 -0.806,-0.123 l -6.043,3.144 c -1.943,1.046 -3.855,2.188 -6.09,1.11 z"
     style="fill:#000000;fill-opacity:1;fill-rule:evenodd;stroke:none"
     id="path2515"
     inkscape:connector-curvature="0" />
</g>
<g
   transform="matrix(4.455374,0,0,-4.455374,-38.105019,490.00585)"
   id="g2517">
  <path
     d="m 133.357,107.775 c 0,-1.173 1.122,-2.71 1.525,-2.71 0.411,0 1.525,1.537 1.525,2.71 0,0.869 -0.68,1.575 -1.525,1.575 -0.838,0 -1.525,-0.706 -1.525,-1.575 z"
     style="fill:#000000;fill-opacity:1;fill-rule:evenodd;stroke:none"
     id="path2519"
     inkscape:connector-curvature="0" />
</g>
<g
   transform="matrix(4.455374,0,0,-4.455374,-38.105019,490.00585)"
   id="g2521">
  <path
     d="m 134.605,103.624 -2.235,-2.694 c 0,0 0.442,0 0.877,-0.442 0.134,-0.135 0.213,-0.328 0.229,-0.585 l -0.008,-9.131 c 0,-1.268 0.403,-1.786 0.6,-2.034 0.316,-0.407 1.083,-0.707 1.114,-0.724 l 0.04,-0.019 2.148,2.642 c 0,0 -0.371,0 -0.758,0.403 -0.127,0.134 -0.189,0.443 -0.205,0.676 0,0 -0.016,0.205 -0.016,0.549 0,1.966 0,8.626 0,8.626 0,1.263 -0.403,1.781 -0.6,2.034 -0.317,0.402 -1.075,0.707 -1.107,0.718 l -0.047,0.02 z"
     style="fill:#000000;fill-opacity:1;fill-rule:evenodd;stroke:none"
     id="path2523"
     inkscape:connector-curvature="0" />
</g>
<g
   transform="matrix(4.455374,0,0,-4.455374,-38.105019,490.00585)"
   id="g2525">
  <path
     d="m 71.011,91.032 c -0.155,0.162 -0.202,0.518 -0.202,0.83 v 8.262 c 0,0.723 -0.043,1.43 -0.572,2.157 -0.593,0.817 -1.608,1.319 -1.652,1.339 l -0.031,0.019 -0.036,-0.019 c -0.007,-0.008 -0.746,-0.478 -1.544,-1.335 -0.576,-0.628 -0.995,-1.217 -1.177,-1.493 -0.075,0.581 -0.28,1.323 -0.833,1.907 -0.597,0.632 -1.379,0.913 -1.41,0.925 l -0.051,0.015 -0.032,-0.039 -1.422,-2.445 c 0.004,0 0.281,-0.126 0.427,-0.225 0.331,-0.229 0.43,-0.525 0.43,-0.806 V 90.74 c 0,-1.268 0.403,-1.786 0.6,-2.03 0.312,-0.411 1.075,-0.715 1.107,-0.727 l 0.047,-0.016 2.176,2.67 c 0,0 -0.431,-0.079 -0.786,0.403 -0.134,0.182 -0.233,0.494 -0.233,0.802 v 7.793 c 0,0.513 0.616,1.054 1.201,1.054 0.572,0 0.881,-0.545 0.881,-1.054 V 90.76 c 0,-1.273 0.402,-1.79 0.596,-2.034 0.316,-0.411 1.078,-0.715 1.109,-0.727 l 0.044,-0.016 2.144,2.654 c 0,0 -0.398,-0.008 -0.781,0.395 z"
     style="fill:#000000;fill-opacity:1;fill-rule:evenodd;stroke:none"
     id="path2527"
     inkscape:connector-curvature="0" />
</g>
<g
   transform="matrix(4.455374,0,0,-4.455374,-38.105019,490.00585)"
   id="g2529">
  <path
     d="m 165.207,91.032 c -0.15,0.162 -0.197,0.518 -0.197,0.83 v 8.262 c 0,0.723 -0.047,1.43 -0.577,2.157 -0.592,0.817 -1.604,1.319 -1.651,1.339 l -0.032,0.019 -0.031,-0.019 c -0.008,-0.008 -0.75,-0.478 -1.548,-1.335 -0.577,-0.628 -0.996,-1.217 -1.177,-1.493 -0.072,0.581 -0.277,1.323 -0.83,1.907 -0.6,0.632 -1.382,0.913 -1.414,0.925 l -0.047,0.015 -0.032,-0.039 -1.429,-2.445 c 0.007,0 0.284,-0.126 0.426,-0.225 0.34,-0.229 0.435,-0.525 0.435,-0.806 V 90.74 c 0,-1.268 0.402,-1.786 0.6,-2.03 0.315,-0.411 1.074,-0.715 1.106,-0.727 l 0.047,-0.016 2.173,2.67 c 0,0 -0.427,-0.079 -0.783,0.403 -0.134,0.182 -0.229,0.494 -0.229,0.802 l -0.008,7.793 c 0,0.513 0.625,1.054 1.209,1.054 0.569,0 0.877,-0.545 0.877,-1.054 V 90.76 c 0,-1.273 0.403,-1.79 0.6,-2.034 0.316,-0.411 1.074,-0.715 1.106,-0.727 l 0.047,-0.016 2.141,2.654 c 0,0 -0.395,-0.008 -0.782,0.395 z"
     style="fill:#000000;fill-opacity:1;fill-rule:evenodd;stroke:none"
     id="path2531"
     inkscape:connector-curvature="0" />
</g>
<g
   transform="matrix(4.455374,0,0,-4.455374,-38.105019,490.00585)"
   id="g2533">
  <path
     d="m 45.322,102.873 c -0.173,-0.138 -0.553,-0.229 -0.825,-0.268 -0.443,-0.067 -0.794,-0.004 -1.07,0.126 -0.285,0.134 -0.471,0.351 -0.597,0.434 -0.174,0.119 -0.296,-0.059 -0.296,-0.059 l -1.805,-2.101 c -0.063,0.391 -0.257,1.09 -0.802,1.683 -0.596,0.636 -1.378,0.912 -1.414,0.924 l -0.051,0.016 -0.028,-0.044 -1.398,-2.457 c 0.241,-0.035 0.47,-0.122 0.565,-0.213 0.296,-0.288 0.264,-0.557 0.264,-0.802 V 90.76 c 0,-1.273 0.407,-1.79 0.601,-2.034 0.316,-0.411 1.157,-0.743 1.157,-0.743 l 2.157,2.643 c 0,0 -0.388,0 -0.771,0.402 -0.158,0.162 -0.229,0.522 -0.229,0.834 l -0.004,8.16 c 0.155,0.272 0.454,0.596 0.743,0.707 0.217,-0.253 0.703,-0.514 1.11,-0.608 0.553,-0.119 1.129,0.039 1.777,0.612 0.75,0.667 0.995,1.528 1.133,1.986 z"
     style="fill:#000000;fill-opacity:1;fill-rule:evenodd;stroke:none"
     id="path2535"
     inkscape:connector-curvature="0" />
</g>
<g
   transform="matrix(4.455374,0,0,-4.455374,-38.105019,490.00585)"
   id="g2537">
  <path
     d="m 95.783,88.852 c 0,0.557 0.438,1.003 0.971,1.003 0.534,0 0.968,-0.446 0.968,-1.003 0,-0.549 -0.434,-0.995 -0.968,-0.995 -0.533,0 -0.971,0.446 -0.971,0.995 z"
     style="fill:#000000;fill-opacity:1;fill-rule:evenodd;stroke:none"
     id="path2539"
     inkscape:connector-curvature="0" />
</g>
<g
   transform="matrix(4.455374,0,0,-4.455374,-38.105019,490.00585)"
   id="g2541">
  <path
     d="m 97.967,88.852 c 0,0.557 0.434,1.003 0.968,1.003 0.537,0 0.971,-0.446 0.971,-1.003 0,-0.549 -0.434,-0.995 -0.971,-0.995 -0.534,0 -0.968,0.446 -0.968,0.995 z"
     style="fill:#000000;fill-opacity:1;fill-rule:evenodd;stroke:none"
     id="path2543"
     inkscape:connector-curvature="0" />
</g>
<g
   transform="matrix(4.455374,0,0,-4.455374,-38.105019,490.00585)"
   id="g2545">
  <path
     d="m 100.147,88.852 c 0,0.557 0.438,1.003 0.972,1.003 0.533,0 0.967,-0.446 0.967,-1.003 0,-0.549 -0.434,-0.995 -0.967,-0.995 -0.534,0 -0.972,0.446 -0.972,0.995 z"
     style="fill:#000000;fill-opacity:1;fill-rule:evenodd;stroke:none"
     id="path2547"
     inkscape:connector-curvature="0" />
</g>
<g
   transform="matrix(4.455374,0,0,-4.455374,-38.105019,490.00585)"
   id="g2549">
  <path
     d="m 96.853,90.728 c 0,0.553 0.435,0.999 0.968,0.999 0.533,0 0.968,-0.446 0.968,-0.999 0,-0.553 -0.435,-0.999 -0.968,-0.999 -0.533,0 -0.968,0.446 -0.968,0.999 z"
     style="fill:#000000;fill-opacity:1;fill-rule:evenodd;stroke:none"
     id="path2551"
     inkscape:connector-curvature="0" />
</g>
<g
   transform="matrix(4.455374,0,0,-4.455374,-38.105019,490.00585)"
   id="g2553">
  <path
     d="m 99.033,90.728 c 0,0.553 0.435,0.999 0.968,0.999 0.537,0 0.972,-0.446 0.972,-0.999 0,-0.553 -0.435,-0.999 -0.972,-0.999 -0.533,0 -0.968,0.446 -0.968,0.999 z"
     style="fill:#000000;fill-opacity:1;fill-rule:evenodd;stroke:none"
     id="path2555"
     inkscape:connector-curvature="0" />
</g>
<g
   transform="matrix(4.455374,0,0,-4.455374,-38.105019,490.00585)"
   id="g2557">
  <path
     d="m 94.74,91.329 c 0,0.552 0.439,1.003 0.972,1.003 0.533,0 0.963,-0.451 0.963,-1.003 0,-0.553 -0.43,-1.003 -0.963,-1.003 -0.533,0 -0.972,0.45 -0.972,1.003 z"
     style="fill:#000000;fill-opacity:1;fill-rule:evenodd;stroke:none"
     id="path2559"
     inkscape:connector-curvature="0" />
</g>
<g
   transform="matrix(4.455374,0,0,-4.455374,-38.105019,490.00585)"
   id="g2561">
  <path
     d="m 101.123,91.329 c 0,0.552 0.43,1.003 0.971,1.003 0.533,0 0.964,-0.451 0.964,-1.003 0,-0.553 -0.431,-1.003 -0.964,-1.003 -0.541,0 -0.971,0.45 -0.971,1.003 z"
     style="fill:#000000;fill-opacity:1;fill-rule:evenodd;stroke:none"
     id="path2563"
     inkscape:connector-curvature="0" />
</g>
<g
   transform="matrix(4.455374,0,0,-4.455374,-38.105019,490.00585)"
   id="g2569">
  <path
     d="m 90.162,91.135 c -0.031,0.371 -0.031,0.379 -0.031,0.517 0,0.071 -0.012,0.198 -0.008,0.221 -0.126,-0.027 -0.604,-0.039 -0.988,0.245 -0.434,0.32 -0.632,0.743 -0.73,0.977 -0.119,0.276 -0.146,0.532 -0.146,0.544 -0.534,0.055 -1.58,-0.043 -2.548,-0.715 -0.873,-0.608 -0.679,-1.41 -0.58,-1.655 -0.64,-0.079 -1.146,-0.932 -3.053,0.466 0.473,-1.647 2.061,-2.133 2.061,-2.133 0,0 -0.648,-0.549 -1.809,-0.568 0.399,-0.454 1.438,-1.441 3.279,-1.15 1.836,0.293 2.753,1.296 2.44,1.841 l -0.284,0.501 c 0.126,0.048 0.261,0.083 0.391,0.103 0.841,0.135 1.694,0.032 2.144,-0.194 l -2.27,-2.468 c 0,0 -0.324,-0.348 -0.079,-0.624 0.296,-0.348 0.612,-0.012 0.612,-0.012 l 2.172,2.358 c -0.016,0.024 -0.501,0.92 -0.573,1.746 z m -3.527,-2.287 -1.259,2.461 c -0.028,0.071 -0.052,0.268 -0.052,0.367 0,0.285 0.138,0.577 0.391,0.719 0,0 1.141,-2.326 1.177,-2.318 -0.509,-0.431 -0.395,-0.885 -0.257,-1.229 z"
     style="fill:#000000;fill-opacity:1;fill-rule:evenodd;stroke:none"
     id="path2571"
     inkscape:connector-curvature="0" />
</g>
<g
   transform="matrix(4.455374,0,0,-4.455374,-38.105019,490.00585)"
   id="g2573">
  <path
     d="m 93.476,92.336 1.209,1.291 -0.601,0.549 -0.916,-0.975 c -0.213,1.038 -0.15,1.946 -0.956,1.824 -0.414,-0.059 -0.707,-0.304 -0.707,-0.304 -0.213,0.486 0.107,2.102 0.162,2.733 0.048,0.581 -0.15,0.846 -0.438,0.885 -0.289,0.036 -0.49,0 -0.707,-0.103 -0.391,0.612 -0.277,1.639 0.024,2.639 0.45,1.504 2.081,3.124 2.974,3.922 l 0.414,-0.463 0.447,0.34 0.181,0.186 -0.375,0.446 c 0.059,0.048 0.079,0.067 0.079,0.067 l -0.857,0.885 c 0,0 -0.032,-0.028 -0.083,-0.083 l -0.277,0.297 c 0.052,0.047 0.084,0.078 0.084,0.078 l -0.518,0.545 c 0,0 -0.032,-0.035 -0.079,-0.079 l -0.257,0.277 0.091,0.087 -0.497,0.513 -0.075,-0.055 -0.316,0.351 0.9,0.241 -2.958,1.394 1.161,-2.847 0.269,0.711 0.312,-0.328 c -2.442,-2.148 -3.843,-4.554 -4.144,-7.303 -0.265,-2.413 0.537,-3.483 0.897,-3.827 0.233,-0.221 0.486,-0.356 0.727,-0.391 -0.119,-0.427 -0.336,-1.359 -0.265,-2.208 v -0.004 c 0,0 0.051,-0.237 0.166,-0.517 0.099,-0.229 0.276,-0.565 0.699,-0.877 0.442,-0.32 1.023,-0.174 1.027,-0.166 l 0.032,0.008 v -0.036 c 0,0 -0.032,-0.232 0.039,-0.9 0.063,-0.668 0.51,-1.564 0.529,-1.6 l 0.005,0.004 c 0.268,-0.533 0.829,-1.13 1.48,-1.13 0.925,0 0.802,1.007 1.122,1.533 0.411,0.664 1.292,1.213 0.873,1.849 -0.288,0.438 -0.675,0.525 -0.877,0.541 z m -0.94,13.59 0.581,-0.628 -0.498,-0.446 c 0,0 -0.292,-0.162 -0.537,0.091 -0.217,0.225 -0.059,0.521 0.008,0.588 0.024,0.032 0.197,0.19 0.446,0.395 z m -1.406,0.51 c 0.028,0.024 0.249,0.229 0.51,0.477 l 0.584,-0.639 c -0.276,-0.265 -0.438,-0.407 -0.486,-0.446 -0.114,-0.087 -0.387,-0.202 -0.608,0.031 -0.186,0.186 -0.087,0.486 0,0.577 z M 88.618,96.1 c 0,0 -0.415,0.126 -0.746,0.592 l 2.488,1.177 c 0.162,-0.525 0.391,-0.565 0.849,-0.525 z m 1.963,-3.654 c -0.596,-0.371 -1.015,-0.138 -1.343,0.147 l 2.03,1.721 c 0.214,-0.991 0.984,-0.264 1.177,-0.181 -0.434,-0.387 -1.84,-1.671 -1.864,-1.687 z m 2.476,-2.824 c -0.13,-0.434 -0.181,-0.837 -0.489,-0.9 -0.182,-0.04 -0.265,-0.127 -0.644,0.178 l 1.505,2.33 c 0.178,-0.155 0.513,-0.143 0.75,0.059 -0.292,-0.336 -1.011,-1.291 -1.122,-1.667 z"
     style="fill:#000000;fill-opacity:1;fill-rule:evenodd;stroke:none"
     id="path2575"
     inkscape:connector-curvature="0" />
</g>
<g
   transform="matrix(4.455374,0,0,-4.455374,-38.105019,490.00585)"
   id="g2581">
  <path
     d="m 99.728,106.697 c -0.02,0.031 -0.663,0.896 -0.679,0.916 0,0.024 0,0.304 0,0.351 0.177,0.059 0.301,0.229 0.301,0.427 0,0.253 -0.198,0.458 -0.439,0.458 -0.249,0 -0.446,-0.205 -0.446,-0.458 0,-0.202 0.13,-0.371 0.312,-0.431 0,-0.043 0,-0.332 0,-0.355 -0.017,-0.024 -0.648,-0.869 -0.668,-0.897 -3.669,-0.403 -6.43,-3.582 -6.43,-7.405 0,-4.108 3.227,-7.449 7.196,-7.449 3.974,0 7.206,3.341 7.206,7.449 0,3.779 -2.731,6.955 -6.353,7.394 z M 94.471,94.093 c -1.457,1.319 -2.295,3.215 -2.295,5.21 0,3.313 2.355,6.216 5.491,6.813 -0.131,-0.178 -4.4,-5.897 -4.4,-5.897 l 0.77,-0.628 c 0,0 0.233,0.312 0.253,0.34 0.027,0 0.13,0 0.181,0 0,-0.079 0,-5.644 0,-5.838 z m 3.295,-1.623 c -0.009,0.584 0,1.951 0.011,1.991 0,0.639 0.498,1.153 1.114,1.153 0.612,0 1.126,-0.514 1.126,-1.153 0.011,-0.04 0.016,-1.395 0.011,-1.983 -0.375,-0.067 -0.762,-0.107 -1.153,-0.107 -0.375,0 -0.746,0.036 -1.109,0.099 z m 5.138,1.303 c -0.415,-0.328 -0.869,-0.6 -1.339,-0.813 v 1.836 l 0.15,0.012 v 0.588 h -0.344 c -0.319,0.941 -1.006,1.635 -1.982,1.778 v 0.225 h -0.98 l 0.004,-0.225 c -0.881,-0.143 -1.671,-0.841 -1.995,-1.778 h -0.339 v -0.588 l 0.15,-0.012 V 92.94 c -0.458,0.205 -0.893,0.458 -1.307,0.77 0,0.047 0,6.146 0,6.229 0.083,0 7.903,0 7.982,0 0,-0.083 0,-6.122 0,-6.166 z m 0.454,0.391 c 0,0.193 0,5.692 0,5.775 0.051,0 0.148,0 0.172,0 0.024,-0.028 0.269,-0.348 0.269,-0.348 l 0.031,0.028 0.735,0.6 c 0,0 -4.252,5.7 -4.391,5.881 3.141,-0.64 5.402,-3.475 5.402,-6.797 0,-1.955 -0.806,-3.823 -2.218,-5.139 z"
     style="fill:#000000;fill-opacity:1;fill-rule:evenodd;stroke:none"
     id="path2583"
     inkscape:connector-curvature="0" />
</g>
<g
   transform="matrix(4.455374,0,0,-4.455374,-38.105019,490.00585)"
   id="g2585">
  <path
     d="m 96.699,98.998 h 4.218 v -0.837 h -4.218 z"
     style="fill:#000000;fill-opacity:1;fill-rule:evenodd;stroke:none"
     id="path2587"
     inkscape:connector-curvature="0" />
</g>
</svg>
