<svg xmlns="http://www.w3.org/2000/svg" version="1" id="svg4" viewBox="0 0 820 300">
    <defs id="defs8">
        <clipPath id="a">
            <path id="path4851" d="M43.84 1083.3h57.42v11.37H43.84z"/>
        </clipPath>
        <clipPath id="a-5">
            <path id="path4851-6" d="M43.84 1083.3h57.42v11.37H43.84z"/>
        </clipPath>
        <clipPath id="a-5-2">
            <path id="path4851-6-9" d="M43.84 1083.3h57.42v11.37H43.84z"/>
        </clipPath>
        <clipPath id="a-5-2-1">
            <path id="path4851-6-9-2" d="M43.84 1083.3h57.42v11.37H43.84z"/>
        </clipPath>
        <clipPath id="a-5-2-1-7">
            <path id="path4851-6-9-2-0" d="M43.84 1083.3h57.42v11.37H43.84z"/>
        </clipPath>
        <clipPath id="a-5-2-1-7-9">
            <path id="path4851-6-9-2-0-3" d="M43.84 1083.3h57.42v11.37H43.84z"/>
        </clipPath>
        <clipPath id="a-5-2-1-7-9-6">
            <path id="path4851-6-9-2-0-3-0" d="M43.84 1083.3h57.42v11.37H43.84z"/>
        </clipPath>
        <clipPath id="a-5-2-1-7-9-6-6">
            <path id="path4851-6-9-2-0-3-0-2" d="M43.84 1083.3h57.42v11.37H43.84z"/>
        </clipPath>
        <clipPath id="a-5-2-1-7-9-6-6-6">
            <path id="path4851-6-9-2-0-3-0-2-1" d="M43.84 1083.3h57.42v11.37H43.84z"/>
        </clipPath>
    </defs>
    <style id="style7258"/>
    <style id="style6035"/>
    <style id="style5105"/>
    <g id="g5416" transform="translate(1071.22 -513.07) scale(.99361)">
        <path id="rect5224-3" fill="#01476d" stroke-width=".67" d="M-1078.1 516.37h814.98v169.01h-814.98z"/>
        <g transform="translate(33.98 -16.48) scale(1.0318)" id="g5379">
            <g id="g4921" transform="translate(-1044.26 548.75) scale(.90575)" fill="#fff" fill-rule="evenodd">
                <path id="path4889" d="M477.36 81.3c-8.52 6.22-10.77 2.42-13.62 2.07.46-1.1 1.3-4.67-2.57-7.38a17.87 17.87 0 0 0-11.34-3.18c-.03.05-.17 1.2-.66 2.42a10.34 10.34 0 0 1-3.27 4.36 6.23 6.23 0 0 1-4.37 1.09c0 .1-.07.67-.07.98 0 .62 0 .65-.14 2.3-.32 3.69-2.5 7.68-2.54 7.78l-.1-.1 9.79 10.61s1.36 1.5 2.7-.05c1.1-1.23-.35-2.78-.35-2.78l-10.1-11c2-1 5.8-1.47 9.54-.86.6.09 1.16.24 1.76.46l-1.27 2.23h-.03c-1.38 2.43 2.7 6.9 10.9 8.2 8.2 1.3 12.82-3.1 14.58-5.12-5.14-.09-8.03-2.53-8.03-2.53s7.08-2.17 9.19-9.5zm-14.71 1.89l-5.6 10.96c.6-1.53 1.1-3.55-1.16-5.47.17.03 5.24-10.33 5.24-10.33a3.68 3.68 0 0 1 1.76 3.2 7.6 7.6 0 0 1-.24 1.64z"/>
                <path id="path4891" d="M440.72 79.94l-.03-.16.14.03c.03.04 2.6.69 4.57-.74a8.8 8.8 0 0 0 3.1-3.9c.56-1.25.74-2.3.74-2.3l.04-.03c.3-3.78-.68-7.93-1.2-9.83a6.14 6.14 0 0 0 3.23-1.74c1.59-1.54 5.18-6.3 4.02-17.06-1.34-12.24-7.6-22.96-18.48-32.53l1.4-1.46 1.2 3.16L444.63.7l-13.2 6.21 4.05 1.07-1.44 1.57-.36-.25-2.22 2.29.43.39-1.13 1.23c-.24-.2-.35-.35-.35-.35l-2.32 2.43.39.34-1.24 1.33c-.24-.25-.39-.37-.39-.37l-3.8 3.94s.07.08.32.3l-1.66 1.99.82.82 2 1.52 1.83-2.06c3.98 3.55 11.26 10.77 13.27 17.47 1.34 4.46 1.83 9.03.07 11.76a5.2 5.2 0 0 0-3.13-.46c-1.3.17-2.15 1.35-1.94 3.94.25 2.81 1.7 10.01.7 12.18 0 0-1.3-1.1-3.13-1.36-3.62-.54-3.3 3.5-4.3 8.13l-4.04-4.34-2.68 2.44 5.36 5.75c-.88.08-2.6.46-3.9 2.41-1.85 2.84 2.07 5.28 3.9 8.24 1.44 2.35.87 6.83 5 6.83 2.88 0 5.41-2.66 6.61-5.03v.02c.1-.16 2.08-4.16 2.36-7.13.32-2.98.21-4.01.21-4.01zm-7.95-57.5c-1.06 1.13-2.4.41-2.4.41l-2.22-1.99 2.61-2.8a24.1 24.1 0 0 1 1.97 1.77c.29.3 1.02 1.61.04 2.62zm4.25-4.08c-1.02 1.04-2.2.53-2.7.14-.21-.17-.95-.8-2.19-1.98l2.64-2.85a59.3 59.3 0 0 0 2.25 2.12c.4.4.82 1.75 0 2.57zm3.42 35.6l11.08 5.25a7.07 7.07 0 0 1-3.34 2.63l-11.54-5.54c2.08.18 3.1 0 3.8-2.34zm-9.82 40.76c-1.41-.28-1.62-2.08-2.18-4.01-.53-1.68-3.7-5.93-5-7.43 1.06.9 2.54.95 3.34.26l6.69 10.38c-1.69 1.36-2.04.97-2.85.8zm.53-24.11c.88.37 4.33 3.6 5.24-.8l9.05 7.66c-1.48 1.27-3.3 2.3-5.99.65-.1-.07-6.37-5.79-8.3-7.51z"/>
                <path id="path4893" d="M449.83 72.8l-.55.04v.02l.55-.05zm-11.68 18.31l.53.53-.53-.56z"/>
                <path id="path4895" d="M169.95 37.25c-2.72 2.32-11.53 10.54-11.53 13.02v33.96c0 3.92 3.27 8.59 6.3 10.7 3.65 2.5 6.2 2.99 6.3 3.03l.2.03 9.42-14.1v2.65c0 1.84.22 4.82.37 5.73.29 1.85 1.8 3.64 3.05 4.93 1.23 1.27 3.29 3.94 3.59 9.27.39 6.58-4.08 11.83-9.68 11.83-5.07 0-9.17-2.1-10.95-4.38-.03-.16-.06-.29-.06-.43 0-.32.15-.47.26-.56.39.21 1.56.8 3.45.8 2.27 0 5.15-2.68 5.15-5.97 0-3.42-2.37-6.2-6.09-6.2-4.2 0-6.79 4.1-6.79 6.72v.16c0 1.43-.01 4.73 2.61 7.47 2.48 2.56 6.67 4.68 12.42 4.73 14.43.1 21.12-10.45 21.12-19.92 0-4.05-2.06-6.58-3.45-8.6 0 0-.65-.96-.93-1.48-1.08-1.9-.97-5.9-.97-5.9V40.82c0-.64.09-2.43.32-2.96.26-.61.65-.88.65-.88l.38-.26-.37-.27c-.42-.31-10.38-7.5-11.65-8.11-1.97-.97-10.87 6.97-13.12 8.9zm10.7 6.61v37.06c-.25.37-2.4 3.4-5.4 3.4-3.8 0-3.86-4.81-3.86-5V46.83c0-1.28.09-4.06.09-4.06a5.82 5.82 0 0 1 2.41-4.66l.07-.04c1.29-.7 6.68 3.28 6.68 5.8zm449.03-5.46c-3.31 2.24-6.3 4.55-6.3 8.03v37.8c0 3.18 2.08 6.14 6.3 9.06 3.63 2.52 9.53 4.63 9.57 4.65l.21.07 9.08-11.83s-5.6-.26-9.85-3.18c-2.33-1.59-2.36-4.95-2.36-5.49V63.7c.92-.38 4.75-2.44 11.3-6.33 4.96-2.96 7.07-7.1 7.07-11.67 0-.91-.1-1.93-.25-3.06-.6-4.77-5.06-13.64-6.4-14.29-1.97-.97-18.2 9.94-18.37 10.05zm6.65 2.61c0-1.32.18-2.3.5-2.89.42-.78 1.19-1.07 1.23-1.1l.03-.02c.88.14 5.6 6.6 5.6 12.85 0 5.75-1.8 7.9-3.63 9.02a29.8 29.8 0 0 1-3.73 1.99zM209.94 38.4c-3.32 2.24-6.31 4.55-6.31 8.03v37.8c0 3.18 2.06 6.14 6.31 9.06 3.61 2.52 9.5 4.63 9.58 4.65l.19.07 9.08-11.83s-5.58-.26-9.85-3.18c-2.33-1.59-2.34-4.95-2.34-5.49V63.7c.9-.38 4.75-2.44 11.28-6.33 4.94-2.96 7.05-7.1 7.05-11.67 0-.91-.07-1.93-.21-3.06-.62-4.77-5.08-13.64-6.42-14.29-1.97-.97-18.2 9.94-18.36 10.05zm6.66 2.6c0-1.32.14-2.3.47-2.89.43-.78 1.18-1.07 1.22-1.1h.01l.04-.02c.9.14 5.61 6.6 5.61 12.85 0 5.75-1.79 7.9-3.64 9.02-1.6.97-2.89 1.66-3.71 1.99V41.01zM99.16 38.4c-3.35 2.24-6.34 4.55-6.34 8.03v37.8c0 3.18 2.08 6.14 6.34 9.06 3.6 2.52 9.5 4.63 9.55 4.65l.21.07L118 86.18s-5.6-.26-9.84-3.18c-2.36-1.59-2.37-4.95-2.37-5.49V63.7c.91-.38 4.77-2.44 11.28-6.33 4.96-2.96 7.09-7.1 7.09-11.67 0-.91-.09-1.93-.23-3.06-.62-4.77-5.09-13.64-6.44-14.29-1.97-.97-18.18 9.94-18.33 10.05zm6.63 2.61c0-1.32.16-2.3.47-2.89.44-.78 1.22-1.07 1.24-1.1h.01l.04-.02c.88.14 5.6 6.6 5.6 12.85 0 5.75-1.78 7.9-3.65 9.02-1.6.97-2.85 1.66-3.71 1.99zm652-2.61c-3.31 2.24-6.3 4.55-6.3 8.03v37.8c0 3.18 2.04 6.14 6.3 9.06 3.62 2.52 9.53 4.63 9.57 4.65l.2.07 9.08-11.83s-5.55-.26-9.85-3.18c-2.32-1.59-2.32-4.95-2.32-5.49V63.7c.88-.38 4.72-2.44 11.27-6.33 4.92-2.96 7.07-7.1 7.07-11.67 0-.91-.07-1.93-.21-3.06-.64-4.77-5.1-13.64-6.48-14.29-1.93-.97-18.16 9.94-18.33 10.05zm6.68 2.61c0-1.32.15-2.3.43-2.89.45-.78 1.23-1.07 1.26-1.1l.04-.02c.87.14 5.62 6.6 5.62 12.85 0 5.75-1.8 7.9-3.65 9.02a29.97 29.97 0 0 1-3.7 1.99zm-460.1-11.63c-.09.03-8.76 3.87-14.5 10.4-2.85 3.27-5.12 8.59-5.28 12.4-.2 4.2.36 9.8 3.87 12.73a8.16 8.16 0 0 0 7.6 1.74c1.85-.5 5.85-1.76 7.11-2.16 2.08-.64 2.82-.07 3.05.4.35.72.39 4.15.39 4.15l-.03 18.02c-1.17-1.86-4.23-5.49-10.02-4.34-7.9 1.54-11.18 13.86-11.32 14.4l-.05.18 1.06.92.17-.34c.04-.05 2.22-3.97 5.37-3.67 3.64.33 5.72 3.76 5.74 3.8l.15.23.34-.18c14.97-4.31 22.7-12.62 22.84-24.7.07-5.7-.74-8.37-3.31-10.97-3.34-4-10.42-4.24-19.39-.75l.05-19.73a8.31 8.31 0 0 0 5.63 2.36c9.1.54 13.04-13.29 13.2-13.87l.05-.21-1.07-.9-.18.34c-.01.03-2.21 3.97-5.37 3.67-3.64-.35-5.71-3.74-5.73-3.78l-.14-.24zM5.2 9.04C1.62 12.75-.21 17.89-.21 23.06c.4 13.41 9.05 18.45 9.05 18.45l.55-1.15s-3.42-3.8-3.8-9.62C5.3 25.2 8.82 20.5 13.43 18.52c6.83-2.94 14.52-.07 20.55 7.67a36.53 36.53 0 0 1 7.89 22.92c0 10.34-4.93 20.25-4.93 20.25l.64.88S54.13 56.5 54.13 30.12c0-1.5-.2-3.34-.46-4.86 0 0 .68-1.54 2.84-4.2l2.93-3.63v26.62s-3.24.7-3.24 2.78c0 2.3 3.24 2.8 3.24 2.8v24.2s-3.06-.58-6 1.85l-7.67 8.12S29.89 68.62 28.54 65.97a11.2 11.2 0 0 1-1.1-5.16 7.5 7.5 0 0 1 1.15-4.1c1.2-1.82 4.19-1.8 4.19-1.8l.08-.91s-4.82-.07-8.63 3.3a18 18 0 0 0-6 12.68c-.08 4.17.88 7.2 3.41 11.37 2.27 3.64 15.41 15.75 15.41 15.75l13.92-16.11s-1.05 5.2 1 9.4c2.66 5.42 7.1 7.78 13.9 7.78 8.28 0 14.1-4.03 17.4-12.18 2.09-5.17 2.53-11.12 2.53-15.22 0-6.28-1.07-12.65-2.71-16.21-2.7-5.88-8.36-8.23-8.36-8.23s3.34-2 7-5.53c3.6-3.45 5.05-7.37 4.86-11.1-.28-4.92-2.18-8.75-5.63-12.95-3.17-3.9-4.14-6.98-4.14-9.14 0-.72.09-1.27.16-1.62.32-1.97 3.49-3.62 3.49-3.62v-.88s-11.7 4.9-17.66 9.76a55.14 55.14 0 0 0-9.97 10.88C48.17 9.18 37.92 1.3 26.19.87 19.91.67 10.98 3.1 5.21 9.04zM65.29 81.9a6.35 6.35 0 0 0-2.9-7.29V49.7s1.07.11 2.87-.05 3.7-.69 3.7-.69.84.64.89 4.42v34.9c0 1.09.12 2.8-.62 4.45-.28.63-2.95 4.56-8.95 2.02-8.72-3.7-7.2-11.6-7.08-12.5 0 0 1.13 4.32 5.65 4.65 3.11.23 5.79-2.34 6.44-5zm2.81-71.75a21.17 21.17 0 0 0-2.3 9.96c0 3.95 1.99 7.97 4.3 10.83 1.84 2.29 4.41 4 4.41 8 0 3.12-2.74 5.8-2.85 5.91a28.4 28.4 0 0 0-5.23-.9c-1.47-.2-3.4-.1-3.89-.1v-29.2a23.33 23.33 0 0 1 5.56-4.5zm650.58-8.1c-2.53.64-4.89 2.81-6.37 5.8a13.08 13.08 0 0 0-1.09 5.16c0 3.93 1.94 7.25 4.05 10.39 2.11 2.9 5.95 8.13 6.86 9.4-4.71 2.65-14.95 8.92-14.95 13v38.76c0 3.66 3.27 8.33 6.3 10.38 4.22 2.85 6.26 3.2 6.54 2.98l-.14.05c3.1-.4 5.42-1.14 10.35-3.36 4.32-1.93 12.1-6.58 12.1-8.88l.04-43.03v-1.67c-.32-5.39-2-8.59-5-12.58l-7.85-10.26c-6.12-7.83-8.4-10.77-6.96-12.5.24-.35.6-.5.98-.52 1.51-.06 3.41 1.95 3.45 1.97l.2.22 1.84-1.93-.2-.21a10.4 10.4 0 0 0-10.15-3.17zm1.48 78.6l-.1-41.38c0-1.27 2.18-3.65 3.3-4.1.22-.1.32-.07.32-.07 1.62 1.72 5.74 6.81 5.74 9.6v43.32c-.77.35-4.19 1.63-6.65-.13-1.63-1.18-2.6-1.9-2.6-7.23zM591.14 2.05c-2.5.64-4.9 2.81-6.37 5.8a13.15 13.15 0 0 0-1.09 5.16c0 3.93 1.97 7.25 4.01 10.39 2.15 2.9 5.99 8.13 6.9 9.4-4.75 2.65-14.96 8.92-14.96 13v38.76c0 3.66 3.27 8.33 6.3 10.38 4.26 2.85 6.27 3.2 6.55 2.98l-.14.05c3.1-.4 5.42-1.14 10.35-3.36 4.33-1.93 12.1-6.58 12.1-8.88l.04-43.03v-1.67c-.32-5.39-2-8.59-5-12.58l-7.88-10.26c-6.1-7.83-8.38-10.77-6.97-12.5.28-.35.63-.5 1.02-.52 1.51-.06 3.41 1.95 3.45 1.97l.2.22 1.8-1.93-.17-.21c-.04-.05-3.8-4.65-10.14-3.17zm1.48 78.6l-.1-41.38c0-1.27 2.18-3.65 3.3-4.1.21-.1.32-.07.36-.07 1.58 1.72 5.7 6.81 5.7 9.6v43.32c-.78.35-4.2 1.63-6.62-.13-1.66-1.18-2.64-1.9-2.64-7.23zM492.07 2.5c-7.74 4.08-12 14.03-10.13 23.1.9 4.73 4.29 7.95 9.32 8.81 2.95.52 7-.31 9.36-2.9.1-.1.1-.14.1-.14l-1.01-1.3-.1.07a10.26 10.26 0 0 1-6.24 2.44c-3.27.02-7.25-2.23-8.38-6.04-1.01-4.06.57-8.26 4.09-11 3.03-1.91 7.46-2.07 10.84-.43.03 0 33.05 17.33 33.05 17.33s-9.54 4.07-13.13 14.9c-1.41 4.34.52 10.95 2.29 14.28 1.76 3.32 3.65 6.54 3.65 10.35 0 0 .15 2.97-1.23 5.22-1.3 2.59-6.3 4.49-6.3 4.49s-16.54-9.93-9.75-33.24c2.36-8.2 10.63-13.97 10.63-13.97l-.91-1.08s-20.1 8.2-23.69 24.99c-1.62 7.67-1.58 18.99 4.96 27.8 7.71 10.39 24.25 15.05 35.27 9.68 4.11-1.69 7.96-5.05 10.84-8.9 4.19-5.61 5.7-14.49 5.7-14.49l-1.8-.01s-1.12 5.73-4 8.53c-7.85 7.72-21.76 4.03-24.92 2.18 0 0 4.6-2 7.7-4 7.08-4.65 9.97-12.26 9.97-15.29 0 0 .8-5.96-3.42-13.21a35.43 35.43 0 0 1-2.89-5.82c-2.25-6.04 3.1-11.56 3.1-11.56 4.3 1.09 9.19.4 12.57-2.08 3.73-3.38 5.45-6.8 5.66-10.07.49-6.86-6.75-9.06-6.75-9.06l-.89 1.74s4.4 2.19 4.76 3.95c.27 1.39-.1 2.5-.67 3.14a3.33 3.33 0 0 1-3.6.55l-26.92-14c-8.65-4.67-17.17-9.76-27.13-4.95zm63.98 7.33c0 5.22 5 12.07 6.8 12.07 1.83 0 6.79-6.85 6.79-12.07a6.9 6.9 0 0 0-6.8-7.02 6.92 6.92 0 0 0-6.79 7.02z"/>
                <path id="path4897" d="M561.61 28.32l-9.96 12s1.97 0 3.91 1.97c.6.6.95 1.47 1.02 2.61l-.04 40.68c0 5.65 1.8 7.96 2.68 9.06 1.4 1.82 4.82 3.15 4.96 3.23l.18.09 9.57-11.78s-1.65 0-3.38-1.8c-.56-.59-.84-1.97-.91-3 0 0-.07-.92-.07-2.45V40.5c0-5.63-1.8-7.94-2.68-9.06-1.4-1.8-4.78-3.15-4.93-3.2l-.2-.1zm-283.33 56.1c-.7-.72-.9-2.3-.9-3.7v-36.8c0-3.23-.2-6.38-2.55-9.61-2.64-3.64-7.17-5.88-7.36-5.97l-.14-.08-.16.08c-.03.04-3.33 2.13-6.88 5.95a56.28 56.28 0 0 0-5.24 6.65c-.34-2.59-1.25-5.9-3.72-8.5-2.66-2.81-6.14-4.06-6.28-4.12l-.23-.06-.14.17-6.33 10.9c.01 0 1.25.55 1.9 1a4.15 4.15 0 0 1 1.91 3.59v41.8c0 5.65 1.8 7.96 2.68 9.05 1.39 1.83 4.79 3.19 4.93 3.24l.2.07 9.7-11.9s-1.92.36-3.5-1.8a6.43 6.43 0 0 1-1.04-3.56V46.09c0-2.28 2.75-4.7 5.36-4.7 2.54 0 3.92 2.44 3.92 4.7v39.55c0 5.67 1.8 7.97 2.66 9.06 1.4 1.83 4.8 3.18 4.94 3.24l.2.07 9.55-11.83s-1.78.04-3.48-1.76zm419.67 0c-.66-.72-.87-2.3-.87-3.7v-36.8c0-3.23-.21-6.38-2.57-9.61-2.64-3.64-7.15-5.88-7.36-5.97l-.14-.08-.14.08c-.04.04-3.34 2.13-6.9 5.95a55.32 55.32 0 0 0-5.24 6.65c-.32-2.59-1.24-5.9-3.7-8.5-2.67-2.81-6.16-4.06-6.3-4.12l-.2-.06-.15.17-6.37 10.9c.03 0 1.27.55 1.9 1a4.09 4.09 0 0 1 1.94 3.59v41.8c0 5.65 1.79 7.96 2.67 9.05 1.4 1.83 4.79 3.19 4.93 3.24l.2.07 9.69-11.9s-1.9.36-3.49-1.8a6.42 6.42 0 0 1-1.02-3.56l-.04-34.73c0-2.28 2.79-4.7 5.4-4.7 2.53 0 3.9 2.44 3.9 4.7v39.55c0 5.67 1.8 7.97 2.67 9.06 1.41 1.83 4.79 3.18 4.93 3.24l.2.07 9.55-11.83s-1.76.04-3.49-1.76zM163.82 31.67c-.77.61-2.46 1.02-3.67 1.2a8.1 8.1 0 0 1-4.77-.57c-1.27-.6-2.1-1.56-2.66-1.93-.78-.53-1.32.26-1.32.26l-8.04 9.36a14.76 14.76 0 0 0-3.58-7.5 17.31 17.31 0 0 0-6.3-4.11l-.22-.08-.13.2-6.23 10.95a5.2 5.2 0 0 1 2.52.95c1.32 1.28 1.18 2.48 1.18 3.57v41.67c0 5.67 1.81 7.97 2.68 9.06 1.4 1.83 5.15 3.3 5.15 3.3l9.61-11.77s-1.73 0-3.43-1.79c-.7-.72-1.02-2.32-1.02-3.71l-.02-36.36c.69-1.21 2.02-2.65 3.3-3.15.97 1.13 3.14 2.3 4.95 2.7 2.47.54 5.03-.16 7.92-2.72 3.34-2.97 4.43-6.8 5.05-8.85zm224.82 62.47a4.4 4.4 0 0 1 4.33-4.47 4.39 4.39 0 0 1 4.31 4.47 4.38 4.38 0 0 1-4.31 4.43 4.4 4.4 0 0 1-4.33-4.43zm9.73 0a4.39 4.39 0 0 1 4.32-4.47 4.39 4.39 0 0 1 4.32 4.47 4.38 4.38 0 0 1-4.32 4.43 4.38 4.38 0 0 1-4.32-4.43zm9.72 0a4.4 4.4 0 0 1 4.33-4.47c2.37 0 4.3 1.99 4.3 4.47a4.38 4.38 0 0 1-4.3 4.43 4.4 4.4 0 0 1-4.33-4.43zm-14.68-8.36a4.38 4.38 0 0 1 4.31-4.45 4.38 4.38 0 0 1 4.32 4.45 4.38 4.38 0 0 1-4.32 4.45 4.38 4.38 0 0 1-4.3-4.45zm9.71 0a4.38 4.38 0 0 1 4.32-4.45 4.38 4.38 0 0 1 4.33 4.45 4.39 4.39 0 0 1-4.33 4.45 4.38 4.38 0 0 1-4.32-4.45zM384 83.1a4.42 4.42 0 0 1 4.33-4.47 4.39 4.39 0 0 1 4.29 4.47 4.38 4.38 0 0 1-4.3 4.47A4.4 4.4 0 0 1 384 83.1zm28.44 0a4.4 4.4 0 0 1 4.32-4.47c2.38 0 4.3 2.01 4.3 4.47a4.39 4.39 0 0 1-4.3 4.47c-2.4 0-4.32-2-4.32-4.47zm-48.84.87c-.14-1.66-.14-1.7-.14-2.3 0-.32-.05-.89-.03-1-.56.13-2.7.18-4.4-1.08a10.06 10.06 0 0 1-3.26-4.36 8.72 8.72 0 0 1-.65-2.42c-2.38-.25-7.04.2-11.35 3.18-3.89 2.71-3.03 6.29-2.58 7.38-2.86.35-5.11 4.15-13.6-2.08 2.1 7.34 9.18 9.5 9.18 9.5s-2.9 2.45-8.06 2.54a15.41 15.41 0 0 0 14.6 5.12c8.19-1.3 12.27-5.77 10.88-8.2l-1.27-2.23a8.67 8.67 0 0 1 1.74-.46c3.75-.6 7.55-.15 9.56.86l-10.12 11s-1.44 1.55-.35 2.78c1.32 1.55 2.73.05 2.73.05l9.67-10.5c-.07-.11-2.23-4.1-2.55-7.78zm-15.71 10.18l-5.61-10.96a6.46 6.46 0 0 1-.23-1.64c0-1.26.61-2.57 1.74-3.2 0 0 5.08 10.36 5.24 10.33-2.27 1.92-1.76 3.94-1.14 5.47z"/>
                <path id="path4899" d="M378.37 78.61l5.38-5.75-2.68-2.44-4.08 4.34c-.95-4.62-.67-8.67-4.26-8.13a6.92 6.92 0 0 0-3.15 1.36c-.95-2.17.48-9.37.73-12.18.21-2.59-.67-3.77-1.96-3.94a5.23 5.23 0 0 0-3.15.46c-1.74-2.73-1.23-7.3.11-11.76 2-6.7 9.27-13.92 13.25-17.47l1.85 2.06 1.99-1.52.8-.82-1.67-2c.27-.2.36-.29.36-.29l-3.82-3.94s-.15.12-.37.37l-1.24-1.33.38-.34-2.31-2.43-.35.35-1.15-1.23.4-.4-2.2-2.28-.34.25-1.4-1.57 4-1.07L360.31.7l5.18 12.68 1.2-3.16 1.38 1.46c-10.88 9.57-17.12 20.29-18.46 32.53-1.18 10.76 2.4 15.52 4 17.06a6.15 6.15 0 0 0 3.24 1.74c-.53 1.9-1.5 6.05-1.18 9.83v.02s.22 1.06.73 2.3a9.15 9.15 0 0 0 3.12 3.91 5.77 5.77 0 0 0 4.57.74l.15-.03v.16s-.15 1.03.17 4c.28 2.98 2.27 6.98 2.36 7.14l.02-.02c1.2 2.37 3.7 5.03 6.6 5.03 4.12 0 3.57-4.48 5-6.83 1.82-2.96 5.75-5.4 3.88-8.24a5.08 5.08 0 0 0-3.9-2.4zm-4.2-60.54l2.6 2.8-2.22 1.98s-1.3.72-2.4-.4c-.96-1-.26-2.33.04-2.62.1-.15.88-.85 1.99-1.76zm-6.26-2.28c.13-.1 1.11-1.02 2.28-2.12l2.6 2.85a45.37 45.37 0 0 1-2.17 1.98c-.5.39-1.72.9-2.7-.14-.84-.82-.4-2.16 0-2.57zm-11.19 46.05s-1.85-.56-3.32-2.63l11.08-5.25c.72 2.34 1.74 2.52 3.79 2.34zm8.75 16.28c-2.66 1.66-4.52.62-5.99-.65l9.05-7.67c.95 4.42 4.38 1.18 5.24.8-1.93 1.73-8.2 7.45-8.3 7.52zm11.03 12.59c-.58 1.93-.8 3.73-2.18 4-.81.18-1.18.57-2.87-.79l6.7-10.38c.8.7 2.3.64 3.35-.26-1.3 1.5-4.5 5.75-5 7.43z"/>
                <path id="path4901" d="M406.22 14.63c-.09-.14-2.95-4-3.02-4.08V8.99a2 2 0 0 0 1.34-1.9 2 2 0 0 0-1.96-2.05 2 2 0 0 0-1.99 2.04 2 2 0 0 0 1.4 1.92v1.59c-.08.1-2.9 3.87-2.98 4-16.35 1.79-28.65 15.95-28.65 32.98 0 18.3 14.38 33.2 32.06 33.2 17.7 0 32.1-14.9 32.1-33.2 0-16.83-12.16-30.98-28.3-32.94zM382.8 70.8a31.32 31.32 0 0 1-10.23-23.22c0-14.76 10.5-27.7 24.47-30.35l-19.6 26.27 3.42 2.8 1.13-1.51h.8v26zm14.68 7.23c-.04-2.6 0-8.7.05-8.87a5.04 5.04 0 0 1 4.96-5.14 5.1 5.1 0 0 1 5.02 5.14c.05.17.07 6.21.05 8.83-1.67.3-3.4.48-5.14.48a28.9 28.9 0 0 1-4.94-.44zm22.9-5.8a28.84 28.84 0 0 1-5.97 3.61v-8.18l.66-.05v-2.62h-1.53c-1.42-4.2-4.48-7.28-8.83-7.92v-1h-4.37l.02 1c-3.92.64-7.44 3.75-8.89 7.92h-1.5v2.62l.66.05v8.27a29.93 29.93 0 0 1-5.82-3.43V44.74h35.56v27.47zm2.01-1.75V44.74h.77l1.2 1.55.14-.12 3.27-2.68s-18.94-25.4-19.56-26.2c14 2.85 24.07 15.48 24.07 30.28 0 8.71-3.6 17.04-9.89 22.9z"/>
                <path id="path4903" d="M392.73 48.93h18.79v3.73h-18.8z"/>
            </g>
        </g>
    </g>
</svg>
