<svg xmlns="http://www.w3.org/2000/svg" viewBox="0 0 564.6 300">
    <path fill="#ed1c24" d="M564.6 163.8V0H0v163.8"/>
    <path fill="#fff" d="M192 42.4v8.39c-3.65-6.73-9.37-10.28-17.02-10.56-6.72 0-11.82 2.96-15.18 8.83-2.6 4.56-4.03 10.9-4.03 17.83v37.87c0 8.05 2.48 15.15 6.8 19.47 3.36 3.34 7.64 5.03 12.8 5.03 5.4 0 10.53-2.66 15.26-7.9v14.55c-.11 4.52-1.64 5.42-6.13 5.83-2.65.16-4.33-.17-5.28-1.05-1.12-1.04-1.34-2.97-1.34-5.73v-.47h-22.67l.02.48c.6 19.35 13.98 22.01 28.36 22.01 10.44 0 18.3-2.55 23.32-7.57 4.15-4.15 6.26-9.94 6.26-17.19V42.43zm-13.6 27.36c-.1-3.21.18-7.49 2.23-9.58a4.2 4.2 0 0 1 3.19-1.3c1.9 0 3.34.53 4.4 1.6 1.52 1.5 2.26 4.13 2.26 8.06v32.54c0 4.7-.74 9.51-6.12 9.51a5.5 5.5 0 0 1-4.04-1.46c-1.28-1.26-1.9-3.37-1.9-6.27V69.8zm81.7-29.54c-7.45 0-12.97 2.64-16.09 7.66V16.46h-22.65v114.7h21.16v-7.9a20.49 20.49 0 0 0 17.15 10.37c12.95-.44 19.5-10.16 19.5-28.86v-37.9c0-5.58-.93-15.83-7.08-22a16.36 16.36 0 0 0-11.98-4.68zm-3.6 62.49c0 3.55 0 8.41-2.38 10.81a5.2 5.2 0 0 1-3.88 1.44 4.08 4.08 0 0 1-3.1-1.22c-2.72-2.64-3.13-8.9-3.13-12.4V72c0-3.73.28-8.99 2.72-11.44a5.28 5.28 0 0 1 3.94-1.49c1.44 0 2.58.44 3.45 1.32 2.37 2.37 2.37 7.36 2.37 10.66v31.2zm92.8-62.48c-10.87 0-18.93 2.7-24 8-4.3 4.53-6.27 10.85-5.88 18.84l.03.43h22.6l.08-1.21c.38-6.2.65-10.66 7.84-10.66a5.9 5.9 0 0 1 4.25 1.69 8.13 8.13 0 0 1 2.12 5.77v4.08c0 6.39-5.96 8.13-13.5 10.32-1.65.48-3.36.98-5.06 1.54-9.55 3.13-19.33 8.71-19.33 26.38v7.27c0 6.3 2 11.63 5.77 15.38 3.64 3.64 8.72 5.56 14.66 5.56 8.4 0 13.04-3 18.27-8.58v6.12h21.82l.03-67.15c0-7.99-1.74-13.46-5.48-17.19-4.52-4.52-12.23-6.61-24.23-6.61zm-.42 76.51a7.6 7.6 0 0 1-5.52-2.01 7.87 7.87 0 0 1-2.1-5.72v-5.45a10.52 10.52 0 0 1 4.87-9.45c1.64-1.22 3.68-2.15 6.02-3.22a87.38 87.38 0 0 0 4.2-2v16.7c-.14 5.07-1.56 11.15-7.47 11.15zm-229.4-76.48c-10.86 0-18.92 2.7-23.99 8-4.3 4.53-6.26 10.85-5.86 18.84v.43h22.62l.08-1.21c.38-6.2.65-10.66 7.83-10.66 1.67 0 3.13.58 4.25 1.69a8.13 8.13 0 0 1 2.12 5.77v4.08c0 6.39-5.96 8.13-13.5 10.32-1.64.48-3.36.98-5.05 1.54-9.55 3.13-19.33 8.71-19.33 26.38v7.27c0 6.3 2 11.63 5.78 15.38 3.62 3.64 8.7 5.56 14.66 5.56 8.38 0 13.03-3 18.27-8.58v6.12h21.8l.03-67.15c0-7.99-1.74-13.46-5.48-17.19-4.52-4.52-12.23-6.61-24.23-6.61zm-.4 76.51a7.58 7.58 0 0 1-5.52-2.01 7.86 7.86 0 0 1-2.1-5.72v-5.45c0-5.36 2.6-7.85 4.86-9.45 1.64-1.22 3.68-2.15 6.04-3.22 1.33-.62 2.72-1.24 4.18-2v16.7c-.14 5.07-1.56 11.15-7.47 11.15zm302.1-100.2v32.31c-4.12-5.66-9.37-8.55-15.67-8.55-17.7 0-19.06 20.42-19.06 26.68v37.86c0 18.71 6.53 28.43 19.45 28.86 6.64 0 12.84-3.92 16.79-10.54v8.09h21.16V16.58zM409.1 71.52c0-3.44-.02-8.64 2.43-11.08a5.08 5.08 0 0 1 3.81-1.44c1.15-.03 2.1.34 2.9 1.11 1.94 1.9 2.93 6.2 2.93 12.77v29.41c0 7.9-1.05 12.78-6.23 12.78a4.7 4.7 0 0 1-3.5-1.32c-2.34-2.34-2.34-7.25-2.34-10.5V71.98zm71.2-31.19c-9.2.07-16.32 2.04-21.21 5.88-5.64 4.43-8.51 11.41-8.51 20.8v42.51c0 6.9 2.1 12.48 6.25 16.58 6.49 6.43 16.35 7.7 23.48 7.64 10.24-.14 17.88-2.86 22.72-8.05 4.6-4.94 6.68-12.12 6.18-21.37l-.03-.45h-22.5l-.02.44c-.05.78-.08 1.58-.12 2.35-.15 3.78-.29 7.32-2.31 9.15-1.07 1-2.63 1.42-4.76 1.31-5.65-.33-6.26-5.42-6.26-7.6V94.33h36.8v-31.4c0-6.17-1.94-11.2-5.75-14.99-6.47-6.4-16.61-7.67-23.96-7.6zm7.06 38.73h-14.1v-13.7c0-3.77.8-6.48 2.36-8.03a6.59 6.59 0 0 1 4.83-1.76c1.9 0 3.5.63 4.71 1.84a8.17 8.17 0 0 1 2.22 5.5zm54.1-36.54V26.36H518.8v16.16h-6.76v16.61h6.76v55.17c0 5.76 1.57 10.24 4.63 13.3 3.19 3.17 7.9 4.77 14.02 4.77 4.94 0 9.67-.59 14.02-1.23l.4-.05v-16.16l-1.8-.02c-1.43-.01-2.37-.04-4.3.29-1.54 0-2.54-.3-3.19-.96-.75-.74-1.12-2.02-1.12-3.92V59.24h10.4V42.62zM71.56 21.35c-7.73-4.48-18.15-4.85-27.3-4.85h-25.8v114.7h32.08c6.99 0 15.02-.57 21.58-4.85 6.9-4.31 10.32-11.68 10.48-22.49V46.93c0-9.47-1.32-19.93-11.04-25.63zM43.6 35.88c11.22.27 14.81 1.06 14.93 12.51v44.83c.25 8.17.25 13.31-2.72 16.16-2.18 2.08-6.06 2.89-12.23 2.52zM316 118.31c-2.3 0-3.95-.53-5.04-1.63-1.38-1.37-2.04-3.78-2.04-7.33V16.53h-22.6v89.85c0 10.27 2.5 16.91 7.82 20.86 4.59 3.4 11.12 4.86 21.85 4.86z"/>
</svg>
