<svg xmlns="http://www.w3.org/2000/svg" xmlns:osb="http://www.openswatchbook.org/uri/2009/osb" viewBox="0 0 128 128">
    <defs>
        <linearGradient id="a" gradientUnits="userSpaceOnUse" gradientTransform="translate(472.1 99.36) scale(.4093)">
            <stop stop-color="#002760" offset="0"/>
        </linearGradient>
        <linearGradient id="b" gradientTransform="translate(487.6 98.87) scale(.4101)" osb:paint="solid">
            <stop stop-color="#fff" offset="0"/>
        </linearGradient>
    </defs>
    <path d="M160.8 127.7a64 64 0 0 1-64 64 64 64 0 0 1-64-64 64 64 0 0 1 64-64 64 64 0 0 1 64 64z" fill="url(#a)" transform="translate(-32.77 -63.66)"/>
    <path d="M128.4 151.6c1.04-.2 2.42-.62 3.06-.94 1.18-.6 3.52-2.95 3.52-3.53 0-.55.6-.36.79.26.33 1.04 2.22 2.71 3.99 3.52 3.22 1.48 9.73 1.3 12.18-.35 1.4-.95 1.87-1.87 1.4-2.75-.48-.9-1.17-.86-2.33.12-1.1.93-2.85 1.07-3.62.3l-.57-.56c-.04-.03-.14-7-.24-15.5-.18-15.11-.2-15.46-.92-17.26-2.15-5.35-7.32-7.98-15.7-7.98-9.9 0-16.2 4.25-16.2 10.91 0 2.08.7 3.69 2.03 4.66 1.23.9 5.94.96 7.53.1 1.77-.96 2.19-1.94 2.03-4.72-.32-5.56-.25-6.36.67-7.28 1.66-1.66 5.13-1.63 6.83.07 1.28 1.28 1.54 2.86 1.43 8.48-.1 4.55-.17 5.16-.75 5.8-.98 1.08-3.68 2.32-9.49 4.34-6.41 2.23-7.98 3-9.97 4.85-2.16 2.02-3.01 4.1-3.02 7.36 0 5.3 2.97 8.75 8.62 9.98 2.45.53 6.24.58 8.73.12zm-2.16-3.74c-1.67-1.04-2.33-2.78-2.46-6.58-.22-6.13 1.18-8.32 7.31-11.43l3.3-1.67-.1 7.46-.11 7.46-.97 1.93c-1.2 2.4-2.55 3.38-4.63 3.37a5.4 5.4 0 0 1-2.33-.54zm-57.1.32l-1.05-.13.08-29.97.08-29.97 5.47.01c8.48.03 13.05 1.42 16.45 5.04 3.75 3.99 5.04 8.85 5.46 20.6.49 13.74-1.4 23.04-5.67 27.96a20.4 20.4 0 0 1-8.05 5.2 33.2 33.2 0 0 1-12.77 1.26zm2.68-62.87c-2.6-.02-5.64 0-9.3.07-5.55.09-10.7.06-13.8.03-.8.88-1.6 1.86-2.35 2.85h7.57v59.84h-7.96l-.14.96c-.08.52-.06 1.09.04 1.25.11.18 7.2.35 17.55.41 15.85.1 17.64.06 20.58-.49 12.6-2.35 21.1-8.7 24.97-18.7 1.72-4.43 2.31-8.03 2.32-14.15.02-6.14-.47-9.42-2.06-13.77-3.3-9.1-10.5-14.8-21.44-17-4.41-.9-8.17-1.33-15.96-1.39z" fill="url(#b)" transform="translate(-32.77 -63.66)"/>
</svg>
