<svg xmlns="http://www.w3.org/2000/svg" version="1" id="svg4" viewBox="0 0 300 300">
    <defs id="defs8">
        <clipPath id="a">
            <path id="path4851" d="M43.84 1083.3h57.42v11.37H43.84z"/>
        </clipPath>
        <clipPath id="a-5">
            <path id="path4851-6" d="M43.84 1083.3h57.42v11.37H43.84z"/>
        </clipPath>
        <clipPath id="a-5-2">
            <path id="path4851-6-9" d="M43.84 1083.3h57.42v11.37H43.84z"/>
        </clipPath>
    </defs>
    <style id="style7258"/>
    <style id="style6035"/>
    <style id="style5105"/>
    <g id="g4956" transform="translate(-.9 -1.15) scale(.75394)">
        <path id="path4939" d="M200.17 1.52A198.95 198.95 0 0 0 1.2 200.47a198.95 198.95 0 0 0 26.58 98.85h344.86a198.95 198.95 0 0 0 26.47-98.85A198.95 198.95 0 0 0 200.17 1.52z" fill="#002760"/>
        <path id="path4941" d="M372.65 299.32H27.79a198.95 198.95 0 0 0 172.38 100.11 198.95 198.95 0 0 0 172.48-100.11z" fill="#db383b"/>
        <path id="path4943" d="M298.44 274.92c3.25-.6 7.52-1.92 9.5-2.93 3.67-1.87 10.96-9.17 10.96-10.98 0-1.71 1.84-1.1 2.45.82 1.02 3.23 6.9 8.43 12.4 10.96 10.01 4.6 30.28 4.02 37.87-1.1 4.36-2.94 5.82-5.8 4.35-8.55-1.5-2.8-3.61-2.69-7.25.37-3.43 2.9-8.84 3.34-11.24.93l-1.76-1.75c-.1-.1-.45-21.78-.77-48.18-.56-47.01-.62-48.11-2.86-53.7-6.68-16.63-22.76-24.8-48.82-24.8-30.77 0-50.37 13.2-50.36 33.93 0 6.45 2.19 11.47 6.32 14.5 3.82 2.8 18.46 2.99 23.42.3 5.5-3 6.8-6.04 6.3-14.68-1-17.28-.77-19.78 2.1-22.64 5.16-5.17 15.94-5.05 21.22.23 3.98 3.98 4.8 8.87 4.45 26.37-.28 14.13-.53 16.02-2.32 18-3.07 3.4-11.46 7.24-29.5 13.51-19.94 6.93-24.83 9.31-31.02 15.1-6.7 6.28-9.37 12.77-9.38 22.88-.02 16.5 9.22 27.2 26.8 31.02 7.61 1.65 19.4 1.82 27.14.4zm-6.7-11.62c-5.21-3.23-7.25-8.66-7.67-20.45-.68-19.09 3.66-25.88 22.73-35.53l10.26-5.2-.33 23.2-.33 23.2-3 6c-3.72 7.44-7.93 10.5-14.4 10.47-2.52-.02-5.8-.78-7.26-1.69zm-177.6.99l-3.25-.4.26-93.2.25-93.18 17 .04c26.37.07 40.59 4.42 51.15 15.65 11.68 12.42 15.68 27.52 16.98 64.05 1.52 42.73-4.34 71.65-17.61 86.95-5.54 6.4-16.06 13.17-25.05 16.16-11.16 3.71-28.02 5.38-39.72 3.93zm8.38-195.49c-8.08-.06-17.55.01-28.95.2-17.23.29-32.84.21-42.5.12a198.95 198.95 0 0 0-7.58 8.84H66.9v186.05H42.13L41.7 267c-.24 1.64-.18 3.4.14 3.92.34.56 22.36 1.07 54.57 1.27 49.3.3 54.86.17 64-1.53 39.17-7.3 65.56-27.07 77.64-58.18 5.34-13.76 7.18-24.94 7.22-43.96.05-19.08-1.48-29.29-6.42-42.81-10.23-28.04-32.68-45.75-66.7-52.62-13.71-2.77-25.4-4.1-49.63-4.28zm35.75 276.08c1.25.02 2.67-.18 3.73.65.93.9.87 2.3.8 3.48-.19 3.25-2.96 5.97-6.16 6.48-1.55.24-3.35.2-4.61-.85-1.43-1.17-1.98-3.02-2.42-4.74-.22-.86-.38-1.76.34-2.42l1.68-2.52zm44.83-11.02c-.07 2.03.26 4.1-.25 6.08-.33 1.32-1.29 2.65-2.74 2.8-1.3.15-2.66-.74-2.9-2.05a9.92 9.92 0 0 1-.3-4.14 5.9 5.9 0 0 1 2.92-4.04c1.01-.6 2.1-1.09 3.12-1.67.16 1 .18 2.01.15 3.02zm-71.15 7.17c-.4 1.25-1.92 1.97-3.26 1.68-1.08-.24-1.8-1.23-2.06-2.3a12.93 12.93 0 0 1-.06-4.56c.35-1.58 1.63-2.73 3.02-3.48.9-.48 1.84-.88 2.7-1.42.74.54.38.31.48 2.36.1 2.05.46 3.62-.82 7.72zm23-20.76c1.23-.14 2.56.4 3.17 1.57.92 1.76.75 3.8.76 5.71.02 2.02-.07 4.19-1.21 5.92-.8.93-2.13.94-3.24.83a2.8 2.8 0 0 1-2.26-1.62c-.68-1.48-.73-3.14-.83-4.74-.14-2.1-.2-4.42.97-6.23a3.02 3.02 0 0 1 2.64-1.44zm120.72 4.99c.05-1.8.52-3.8 2.03-4.91 1.25-.92 3.19-1.01 4.33.12.96 1.14 1.1 2.71.96 4.13.04 1.16.28 2.32.04 3.47-.77.43-1.63-.14-2.45.03-1.65-.04-3.3.03-4.95.02-.63-.66.05-1.56-.04-2.33zm-30.35-4.93c.78-.45.1-1.82-.73-1.55-2.57-.04-5.14-.01-7.71 0-1.32-.03-1.56 1.12-.95 1.38.7.33.53.23 1.07.3-.04 2.56-.1 6.74-.08 9.3v11.97c-.2.95-1.31.66-1.98.77-.95.24-.56 1.59.32 1.6 3.72.05 7.44.01 11.17.02.62-.61.15-1.98-.83-1.64-.76.15-1.63-.37-1.42-1.22-.04-6.95 0-13.9-.02-20.83.39-.01.79.03 1.16-.1zM224 319.01c-.85-.49-1.85-.13-2.77-.24-3.65 0-7.3-.14-10.94.08-.83-.19-1.03 1.32-.39 1.6.63.1 1.28 0 1.92.1.7-.06 1.06.62 1.3 1.17.4.97.86 1.92 1.3 2.88 3 6.59 5.88 13.23 8.9 19.8.6.7 1.36-.32 1.4-.94.55-1.62 1.2-3.2 1.8-4.8 2-5.27 4.07-10.5 6.07-15.77.27-.7.58-1.7.89-2.39.7.05 1.89-.16 1.42-1.14-.35-.74-1.29-.65-1.97-.6-1.58 0-3.18-.1-4.75.16-.37.66.18 1.72 1 1.53.82-.02 1.42.02 2.69-.03-1.74 4.62-3.66 9.41-5.36 14.04-1.87-4.4-4.04-8.7-5.44-13.27-.12-.37-.54-.94.14-.78l3.04-.14c-.04-.42.05-.9-.25-1.26zm67.57 23.45c-.74-.31-1.96.53-1.29 1.3.61.57 1.5.36 2.26.36 3.69 0 7.39.04 11.08-.03.78-.15.84-1.55-.02-1.61-.8-.15-1.66.19-2.43-.19-.65-.66-.26-1.63-.25-2.43.02-3.46-.09-6.93.03-10.39.1-2.53.67-5.24 2.5-7.1a5.06 5.06 0 0 1 3.62-1.7c1.16.04 2.04 1 2.38 2.05.33 1.03.22 2.11.29 3.17.16 2.53.09 5.07.1 7.6 0 2.71 0 5.42-.05 8.13-.17.95-1.3 1-2.03.82-.74-.18-1.68.58-1.06 1.3.54.61 1.4.38 2.1.38h10.84c.87.28 1.39-1.23.5-1.54-.87-.31-1.85.14-2.7-.28-.63-.65-.26-1.6-.36-2.39-.03-4.89.42-9.8-.05-14.67-.26-2.74-1.93-5.52-4.6-6.45-2.02-.7-4.26-.68-6.28-.1a8.7 8.7 0 0 0-4.87 3.63c-.82.49-.43-.74-.5-1.2 0-.63.01-1.27-.06-1.9-.45-.65-1.32-.45-1.98-.43-2.68-.04-5.36-.05-8.03.01-.83.16-.72 1.59.12 1.64.86.14 1.74-.03 2.6.12.6.68.04 1.64.26 2.44-.01 1.3-.2 2.62-.04 3.93.02 1.78-.24 3.55-.07 5.33.1 1.02.04 2.04-.02 3.06-.14 2.25.2 4.5.14 6.74-.44.73-1.45.27-2.13.4zm-122.42.3c-.3.62.33 1.58 1.03 1.24a2.1 2.1 0 0 1 1.95-.57c2.23.55 4.43 1.5 6.76 1.4 2.89-.1 5.88-1.3 7.6-3.71 1.97-2.74 2.12-6.78.05-9.51-1.31-1.74-3.38-2.63-5.36-3.38-2.07-.78-4.34-1.27-6.1-2.65a3.1 3.1 0 0 1-1.15-3.15c.4-1.59 1.98-2.55 3.55-2.75 2.22-.28 4.38 1 5.58 2.9.73 1.14 1.1 2.47 1.76 3.65.65.65 1.74-.22 1.4-1.02-.04-1.94.03-3.88-.04-5.82-.22-.8-1.3-.62-1.77-.17-.79.38-1.58-.17-2.31-.44a12.5 12.5 0 0 0-4.3-.64c-1.9 0-3.82.63-5.31 1.85-2.55 2.1-3.88 5.75-2.84 8.93a7.06 7.06 0 0 0 4.42 4.42c2.1.93 4.32 1.62 6.33 2.73 1.2.67 2.22 1.88 2.22 3.35a3.87 3.87 0 0 1-2.58 3.66c-2.46.8-5.2-.4-6.77-2.39a16.74 16.74 0 0 1-2.53-5c-.26-.76-1.72-.97-1.63.06.07.69.04 1.38.04 2.07zm107.17-24.07c-5.2 1.85-8.8 7.18-8.87 12.68-.04 3.43 1.03 6.97 3.4 9.5 1.9 2 4.53 3.12 7.2 3.7 3.2.72 6.8.2 9.4-1.86a9.77 9.77 0 0 0 3.09-4.58c.42-.69-.45-1.66-1.17-1.22-.53.63-.56 1.56-1.04 2.25-1.23 2.31-3.67 4.08-6.35 4.07a5.55 5.55 0 0 1-4.14-1.39c-1.45-1.4-2.02-3.45-2.18-5.4-.17-2.02-.3-4.04-.2-6.05.32-.8 1.33-.61 2.02-.61h12.83c.78-.19.68-1.14.66-1.77a10.25 10.25 0 0 0-4.99-8.38 12.13 12.13 0 0 0-9.66-.94zm-11.37 2.04c0-.63.09-1.42-.48-1.84-.8-.36-1.5.73-2.33.39-1.46-.62-3-1.1-4.6-1.2a9.31 9.31 0 0 0-5.63 1.44 9.38 9.38 0 0 0-3.7 5.55 7.09 7.09 0 0 0 3.14 7.58c2.65 1.65 5.9 2.08 8.46 3.87a3.53 3.53 0 0 1 1.49 3.3 3.34 3.34 0 0 1-1.59 2.84c-1.92 1.11-4.44.75-6.22-.49-1.52-1.06-2.36-2.78-3.12-4.43-.36-.76-.62-1.57-1.04-2.3-.44-.6-1.81-.57-1.56.4.08 2.53-.07 5.06.05 7.58.05.94 1.25.68 1.74.22.51-.47 1.27-.21 1.85-.05 1.9.54 3.82 1.3 5.84 1.15a9.6 9.6 0 0 0 5.33-1.3 8.41 8.41 0 0 0 4.08-6.5c.17-2.1-.37-4.36-1.89-5.9-1.82-1.85-4.36-2.65-6.75-3.48-1.61-.56-3.32-1.1-4.58-2.32a2.86 2.86 0 0 1-.73-3.15c.73-1.65 2.6-2.45 4.36-2.45 1.54 0 3.01.74 4 1.92 1.1 1.32 1.65 2.98 2.32 4.55.42.69 1.82.43 1.48-.5zm-54.6 24.1c1.5.03 3.33-.23 4.14-1.6.38-.65-.44-1.39-1.08-1.13-.59.43-1.3 1.04-2.08.7-.77-.45-.8-1.47-.81-2.28-.05-4.98.4-10-.06-14.96-.2-2.23-1.11-4.58-3.05-5.87-1.77-1.19-3.96-1.5-6.05-1.55-.96-.18-1.93.06-2.9.05-1.72.1-3.41.7-4.84 1.66a5.85 5.85 0 0 0-2.6 5.7c.17.95.8 1.88 1.78 2.14.75.2 1.54.14 2.3.14.96 0 2-.33 2.52-1.22.7-1.23.29-2.7.18-4.02-.07-.79 0-1.67.63-2.26 1.1-1.03 3-.83 3.97.34.85 1.02.82 2.4.77 3.66-.05 1.07-.02 2.16-.08 3.23-.15 1-.92 1.76-1.8 2.22-1.5.8-3.15 1.24-4.76 1.78-2.06.7-4.28 1.37-5.8 3a5.2 5.2 0 0 0-1.33 3.53c-.15 1.53.06 3.2 1.15 4.4 1.38 1.53 3.48 2.07 5.49 2.28 1.28.14 2.56-.03 3.83-.15a4.86 4.86 0 0 0 3.47-2.08c.21-.65.88-.5 1 .13.28.53.77.92 1.26 1.24 1.31.87 2.94.98 4.47.93h.28zm-41.21-21.9c1.76-1.22 1.64-4.25-.24-5.36-1.53-.9-3.62-.39-4.71 1.06-.49.64-.85 1.39-1.44 1.96-.8.42-1.41-.52-2.11-.76a12.59 12.59 0 0 0-11.81.53 8.62 8.62 0 0 0-4.02 6.08 7.82 7.82 0 0 0 2.46 6.82c.51.76-.51 1.05-.95 1.4a8.63 8.63 0 0 0-3.1 5.88c.05.74-.1 1.6-.79 2-.61.44-1.62.47-2.06-.24-.56-.9-.35-1.98-.36-2.98-.02-4.65.27-9.32-.06-13.96-.15-2.1-1-4.25-2.76-5.52-2-1.46-4.56-1.7-6.95-1.73-2.72-.03-5.63.45-7.77 2.23a5.74 5.74 0 0 0-2.03 4.5c.02 1.18.64 2.47 1.86 2.83 1 .29 2.05.2 3.06.1 1.15-.1 2.03-1.15 2.15-2.3.16-1.48-.7-3-.1-4.42.54-1.25 2.13-1.64 3.36-1.23a2.8 2.8 0 0 1 1.76 2.08c.4 1.68.28 3.4.22 5.1-.05 1.3-1.03 2.4-2.22 2.93-2.43 1.07-5.02 1.68-7.46 2.72a6.9 6.9 0 0 0-3.65 3.35 6.25 6.25 0 0 0 .4 6.15 6.26 6.26 0 0 0 3.6 2.26c2.04.52 4.2.55 6.24.18a5.28 5.28 0 0 0 3.5-2.46c.6-.37.22.32 1.14 1.07a8.94 8.94 0 0 0 4.93 1.68c1.22-.03 2.54-.04 3.6-.67.55-.33 1.3-.85 1.71-.1.58.52 1.37.71 2.12.77-.8.97-2.02 1.73-2.26 3.06-.86 2.72.11 6 2.52 7.63 2.21 1.5 4.97 1.86 7.58 1.84 2.94-.03 5.93-.77 8.31-2.56 2.7-2.01 4.6-5.35 4.35-8.71a17.44 17.44 0 0 0-.42-3.14 4 4 0 0 0-3.09-2.9c-1.01-.2-2.05-.22-3.08-.3-1.28.03-2.55.13-3.82.1-2.07.02-4.13-.1-6.2-.22-1-.06-2.1-.56-2.4-1.6a3.3 3.3 0 0 1 .42-2.86c.53-.55 1.35-.24 1.97-.05a17 17 0 0 0 5.87.78 10.6 10.6 0 0 0 6.43-2.3c2.2-1.87 3-4.98 2.5-7.77a9.1 9.1 0 0 0-1.39-3.37c-.24-.63.84-1.5 1.24-.79.4 1.34 2.05 1.83 3.3 1.48.23-.06.44-.15.65-.27zm71.71-7.5c2.52.2 4.84-2.4 4.26-4.89a4.22 4.22 0 0 0-7.68-1.49 4.28 4.28 0 0 0 .8 5.35c.72.63 1.66 1 2.62 1.03zM97.9 306.99c2.93.07 6.24.66 8.34 2.55 2.1 1.9 2.8 4.46 3.14 7.02.34 2.5.46 5.03.41 7.56-.07 3.77-.26 8.26-1.35 11.24-1.1 2.99-2.52 4.42-4.81 5.68-2.29 1.26-5.04 1.63-7.67 1.58h-2.28v-35.48c1.4-.24 2.81-.16 4.22-.15zm-14.49-1.5c-.96 0-2.08-.28-2.95.33-.56.6.27 1.5.97 1.37.96 0 1.94-.1 2.9-.03.86.08 1 .98.9 1.67-.04 9.91.39 19.83-.05 29.73-.05 1.1.02 2.2-.07 3.3-.29.69-1.02.62-1.78.61-.76 0-1.8-.25-2.68.11-.88.36-.32 1.63.82 1.53 1.14-.11 2.75.03 4.13.01 2.6-.03 5.2.1 7.8.14 4.5.08 9.73-.22 13.45-1.4 3.71-1.18 5.9-2.7 8.06-5.24a18.06 18.06 0 0 0 3.96-9.22c.3-2.28.48-4.6.21-6.87a22.06 22.06 0 0 0-1.8-6.92 15.25 15.25 0 0 0-7-6.84c-2.77-1.32-5.28-1.65-8.08-2.09-2.81-.44-5.99-.24-8.64-.26-2.66-.03-5.62.04-7.3.04-1.7 0-1.88.01-2.85.02z" fill="#fff"/>
    </g>
</svg>
