<svg xmlns="http://www.w3.org/2000/svg" viewBox="0 0 900 300">
    <path d="M193.4 100.8c-2.16-2.7-7.02-6.49-10.28-8.65V40.28c5.41 3.25 10.28 6.5 10.28 12.98zm2.16-70.82l-9.73-6.49c-10.28-5.94-13.52-8.64-13.52-11.9-.55-4.32 3.25-7.57 9.2-6.48l.54-3.25c-5.42-1.62-10.83 0-14.08 3.25-2.16 2.16-5.4 7.57-4.32 15.13 1.62 6.47 5.41 10.27 12.98 15.13l4.32 2.7-12.98 6.48v42.22c0 7.03-1.62 9.2-3.24 11.9 6.5 2.17 16.24 8.11 20.02 12.97 5.95-5.4 16.77-14.05 24.88-17.3V53.25c-1.08-10.27-2.17-15.68-14.07-23.24zm172.5 65.42l-5.95 4.86c-2.16-1.61-4.32-4.32-4.32-11.36V43.5l10.27 9.19zm22.18 1.62l-3.78 3.79c-.55-.55-3.25-2.16-3.25-8.12v-29.7c0-7.02 0-11.9 3.25-15.7-5.95-3.77-14.07-10.8-17.86-15.66a172.2 172.2 0 0 1-26.5 18.92v42.7c0 10.82 5.4 16.77 9.2 18.93l16.35-13.5c.55 5.95 4.33 11.36 9.2 13.52l15-12.98zM19.74 42.44c5.41 0 11.36-2.7 14.61-10.8l3.25 1.07c-1.63 7.02-9.2 14.05-20.02 13.52-7.58-.55-13.52-5.4-16.23-11.9-2.71-8.11-1.63-17.85 5.4-25.96 8.68-9.18 24.9-11.35 36.27-3.78 10.27 6.48 16.77 16.22 24.88 16.76 2.16 0 7.02-1.61 6.48-7.03-.55-5.4-9.19-10.8-18.39-5.94l-1.63-2.7C61.92.27 77.07 2.43 79.78 15.95c1.63 6.47-2.7 18.92-17.86 20-2.16 1.62-4.86 6.48-4.86 11.37 0 3.77.55 6.47 2.16 9.72 1.09-5.4 6.5-10.8 12.98-10.8 6.49 0 11.36 4.32 11.36 10.8 0 6.5-4.32 10.27-9.2 10.27-4.32 0-8.65-3.77-8.65-8.1a8.9 8.9 0 0 1 2.17-5.95 8.71 8.71 0 0 1 3.79-2.16c.53 0 .53 0 .53-.55s-1.62-.53-3.25-.53c-4.32 1.08-5.94 4.86-6.48 6.48a14.25 14.25 0 0 0-.55 7.03c.55 4.33 3.25 8.12 4.87 10.82 2.7 5.4 8.12 15.68 8.12 27.03a45.98 45.95 0 0 1-4.87 16.76c-4.33 8.1-16.24 16.76-30.29 16.76-14.07 0-28.13-7.58-33-22.72-1.62-5.94-2.71-15.12 1.63-24.86 1.62-3.79 3.78-7.03 6.48-11.9 1.09-1.63 3.25-5.41 3.25-8.12 0-4.32-3.25-5.4-4.87-5.4-4.33.54-9.2 7.02-5.95 15.14L5.13 78.6c-3.25-8.11-.55-17.85 8.12-20.55 7.02-2.17 15.14 1.62 18.38 9.2 4.33 10.26-2.16 21.06-5.41 27.02-10.27 21.07-.54 36.76 14.07 36.76s23.8-16.22 14.6-36.23c-5.4-11.85-11.87-22.66-11.87-34.56.55-11.34 6.48-20 15.14-24.86-17.3-2.16-25.96-16.76-36.25-20-2.16-.56-8.11-1.63-12.98 2.15-3.23 2.7-5.95 8.64-3.78 15.7 2.71 4.85 8.67 9.18 14.61 9.18zm240.2 1.63l-10.27 11.9L241 45.7l-1.07 1.07v48.66c1.62 1.63 3.24 3.25 3.78 4.88l5.96-5.41 2.16 2.16-17.86 15.13c-3.24-4.32-8.12-10.27-12.98-12.97 1.63-2.16 3.25-4.32 3.25-11.9V62.98c0-8.65 0-16.76-2.17-18.92l-4.33 3.25-2.16-2.17 15.7-13.52a19.24 19.24 0 0 1 8.11 10.81l10.27-10.8zm66 51.9a29.64 29.64 0 0 1 3.79 4.86l4.33-3.79 2.16 2.17-16.24 13.52c-3.77-5.4-9.18-10.81-12.97-12.97 1.63-2.17 3.25-4.33 3.25-11.9v-56.2c0-10.27 0-20.01-4.33-28.64l2.7-1.64c1.63 1.62 3.26 7.57 4.33 12.97C317.3 3 327.03 1.38 331.9 1.38c-6.48 7.02-6.48 16.22-6.48 31.35zm93-50.82l16.3-12.97c2.7 3.77 8.65 10.27 12.97 12.97-3.25 3.24-3.25 7.57-3.25 11.9V92.2c0 5.94 2.18 8.1 3.25 8.1l4.33-3.78 2.17 2.16-15.14 12.97c-5.96-2.7-9.2-8.65-9.2-16.76V48.91l-5.4-5.4-5.42 4.32v41.63c0 6.48 1.63 7.57 3.25 10.27l-11.36 11.9-11.36-10.81c1.62-2.16 3.24-3.79 3.24-10.27V56.98c0-5.41 0-10.81-2.16-12.97l-4.33 3.78-2.16-2.7 15.69-12.98a17.72 17.72 0 0 1 8.65 12.97zm277.5 0l16.24-12.97c2.7 3.77 8.65 10.27 12.97 12.97-3.25 3.24-3.25 7.57-3.25 11.9V92.2c0 5.94 2.18 8.1 3.25 8.1l4.34-3.78 2.16 2.16L717 111.65c-5.95-2.7-9.2-8.65-9.2-16.76V48.91l-5.4-5.4-5.42 4.32v41.63c0 6.48 1.63 7.57 3.25 10.27l-11.41 11.86-11.41-11.87c1.62-2.16 3.25-3.79 3.25-10.27V55.94c0-5.4 0-10.81-2.17-12.97l-4.33 3.78-2.16-2.16 15.69-12.97c4.32 3.25 8.12 7.03 8.65 13.52zm60.6 0l16.23-12.97c2.7 3.77 8.65 10.27 12.97 12.97-3.25 3.24-3.25 7.57-3.25 11.9V92.2c0 5.94 2.18 8.1 3.25 8.1l4.33-3.78 2.17 2.16-15.14 12.97c-5.96-2.7-9.2-8.65-9.2-16.76V48.91l-5.4-5.4-5.42 4.32v41.63c0 6.48 1.63 7.57 3.25 10.27l-11.2 11.93-11.3-11.93c1.62-2.16 3.24-3.79 3.24-10.27V55.94c0-5.4 0-10.81-2.16-12.97l-4.33 3.78-2.16-2.16 15.69-12.97c4.32 3.25 8.12 7.03 8.65 13.52zm107.1 0l16.23-12.97c2.7 3.77 8.65 10.27 12.97 12.97-3.25 3.24-3.25 7.57-3.25 11.9V92.2c0 5.94 2.18 8.1 3.25 8.1l4.5-3.8 2.2 2.17-15.1 12.93c-5.96-2.71-9.2-8.66-9.2-16.76V48.96l-5.4-5.41-5.41 4.32V89.5c0 6.49 1.62 7.57 3.24 10.27l-11.4 11.93-11.3-11.93c1.63-2.16 3.24-3.79 3.24-10.27V55.98c0-5.4 0-10.8-2.16-12.97l-4.32 3.79-2.17-2.17 15.7-12.97c4.32 3.25 7.57 7.03 8.64 13.52zm-375.4 55.7c-2.17-2.71-7.03-6.5-10.28-8.66V40.34c5.4 3.25 10.27 6.5 10.27 12.97zm2.15-70.82l-9.73-6.5c-10.28-5.95-13.52-8.65-13.52-11.9-.55-4.32 3.25-7.57 9.2-6.47l.55-3.25c-5.43-1.63-10.83 0-14.08 3.24-2.17 2.16-5.41 7.57-4.33 15.14 1.63 6.47 5.41 10.26 12.98 15.12l4.33 2.7-12.98 6.5v42.21c0 7.03-1.62 9.19-3.24 11.9 6.48 2.17 16.23 8.11 20.02 12.97 5.95-5.4 16.77-14.06 24.88-17.3V53.3c-1.1-10.27-1.6-15.7-14.1-23.25zm321.9 14.05l10.82 21.09-10.82 7.57zm11.9 57.32c-4.3-1.64-11.9-4.35-11.9-18.94v-5.42l25.4-17.84-15.1-26.5c-7.02 6.47-16.77 13.52-25.97 18.92v35.67c0 15.14 7.04 21.62 16.24 26.5l23.27-16.22-1.62-2.16zM645 44.09l10.82 21.07L645 72.73zm11.9 57.3c-4.32-1.62-11.9-4.33-11.9-18.91v-5.44l25.5-17.83-15.1-26.5c-7.02 6.48-16.77 13.53-25.97 18.93V87.3c0 15.14 7.04 21.62 16.24 26.5l23.27-16.22-1.62-2.16zM277.2 44.1l10.82 21.07-10.82 7.57zm11.9 57.3c-4.3-1.63-11.9-4.34-11.9-18.93v-5.42l25.5-17.83-15.2-26.5c-7.02 6.48-16.77 13.53-25.97 18.93V87.3c0 15.14 7.04 21.62 16.24 26.5l23.27-16.22-1.62-2.16zm312.2-.54c-2.16-2.71-7.02-6.5-10.27-8.66V48.9l5.41-4.33c4.33 3.24 4.33 8.12 4.33 14.06zm6.5-68.66l-16.24 12.97c-.53-5.41-2.7-9.2-5.94-11.36-5.94-3.79-4.33-7.57-2.16-12.97l-2.7-1.09c-8.13 12.97-12.46 21.62-4.33 29.74v38.4c0 7.02-1.63 9.19-3.25 11.9 6.49 2.16 16.23 8.1 20.02 12.96 5.95-5.4 16.77-14.05 24.88-17.3v-40.6c-1.1-14.6-5.4-17.85-10.3-22.7zM133.9 44.1l10.82 21.07-10.82 7.57zm-20 56.16c-3.8-2.71-5.4-4.88-5.4-15.7V44.02l10.28 7.57v32.44c0 5.41 0 8.12 1.08 11.36zm31.91 1.08c-4.32-1.63-11.9-4.33-11.9-18.92v-5.45l24.8-17.83-14.05-26.5-11.96 9.73-12.95-9.72c-8.12 7.02-18.39 14.6-26.5 19.46v37.86c0 14.05 4.33 18.9 10.28 23.78l17.31-14.05c2.16 4.3 7.03 10.26 14.07 14.05l23.27-16.22-1.62-2.17zm389.5-28.14c-1.08-1.63-1.08-2.7-1.08-4.33v-24.9c7.03 5.95 14.07 6.49 16.77 5.95-.54 0-15.7 22.7-15.7 23.24zm8.66 28.12c-3.79-4.33-10.28-9.2-16.24-11.36l15.14-22.71c1.1 1.62 1.1 2.7 1.1 4.32zm8.11-52.44c2.16-.55 9.2-5.4 9.2-14.05 0-10.82-9.2-16.23-16.77-16.23-7.03 0-14.61 4.32-17.31 13.52l3.25 1.08c2.7-8.12 8.65-11.36 14.6-11.36 7.04 0 11.37 4.86 11.37 8.11.54 2.16-.55 4.33-2.17 4.86-3.24 1.63-7.03-.55-10.28-3.24a134.9 134.9 0 0 1-24.34 17.84v21.07c0 6.47.55 14.6 8.12 18.9l-8.12 11.9a56.44 56.44 0 0 1 17.31 11.37c5.41-5.4 16.23-14.05 23.8-17.3V67.67c-1.2-5.95-1.2-14.6-8.78-18.92z"/>
</svg>
