<svg xmlns="http://www.w3.org/2000/svg" viewBox="0 0 400 300">
    <path fill="#00b9f2" d="M0 0h400v240H0z"/>
    <path fill="#fff" d="M137.5 87.93c-3.9-19.95-25.9-16.49-41.26-15.9l22.39 98.09h37.41L137.5 87.94m175.8 37.72c-2.17-3.5-1.9-7.48.88-10.31 2.47-4.56 5.52-9 8.25-13.54a320.1 320.1 0 0 1 11.19-18.26c1.32-2.3 2.99-4.74 4.13-7.09l.88-1.17.3-.88.58-.88.59-.59.3-.58v-.33h-37.7l-.3.3-.59 1.17-.58.59-.6 1.17-.58.88-.58 1.18-.88 1.17c-3.23 5.6-6.7 10.75-10.02 16.23-3.44 7.33-12.4 18.04-14.14 25.63-.75 5.24 11.28 21.27 13.85 26.22 2.99 4.83 6.3 10.86 9.41 15.33.58 2.08 2.28 3.29 3.53 5.9l.58.88.59 1.17.3.3h37.7l-27.1-44.5M214.08 70c-5.93.58-9.1 1.73-13.55 5.9-3.15 2.77-6.16 9.66-5.6 13.84-.35 10.31 8.65 19.73 19.15 19.44 26.07-.8 25.97-37.89 0-39.17m21.76 2.06h34.48v98.09h-34.48zm-77.75 0h34.46v98.09h-34.43zm-98.38 0h34.77v98.07H59.72z"/>
</svg>
