<svg xmlns="http://www.w3.org/2000/svg" viewBox="0 0 128 128">
    <circle r="64" cy="64" cx="64" fill="#e20613"/>
    <path d="M37.7 37.3c8 0 12.3 4.91 12.3 13.3v1.71h-7.79v-2.24c0-3.84-1.6-5.28-4.11-5.28-2.67 0-4.11 1.44-4.11 5.28 0 10.9 16.3 12.9 16.3 28 0 8.48-4.27 13.3-12.4 13.3-8.21 0-12.4-4.85-12.4-13.3v-3.2h7.84v3.84c0 3.84 1.6 5.12 4.32 5.12 2.67 0 4.37-1.39 4.37-5.12 0-10.9-16.3-12.9-16.3-28-.27-8.53 3.95-13.4 12.1-13.4zm16.8 13.4c0-8.43 4.48-13.3 12.7-13.3 8.21 0 12.7 4.91 12.7 13.3v27.5c0 8.48-4.48 13.3-12.7 13.3-8.21 0-12.7-4.85-12.7-13.3zm8.32 28.1c0 3.84 1.71 5.23 4.37 5.23 2.67 0 4.37-1.39 4.37-5.23V50.2c0-3.84-1.71-5.28-4.37-5.28-2.67 0-4.37 1.44-4.37 5.28zM103 90.9c-1.44.1-2.45.1-4 .1-6.24 0-11.9-2.66-11.9-13.3V38.1h8.32v40.3c0 4.12 2.13 5.13 4.75 5.13.9 0 1.92 0 2.83-.16v7.57z" fill="#fff"/>
</svg>
