<svg xmlns="http://www.w3.org/2000/svg" viewBox="0 0 86.98 129" viewBox="0 0 81.54 120.94">
    <path d="M39.72 95.52h41.36v24.95l-10.55-12.25H16.17z" fill="#0064d3"/>
    <path d="M.47 120.04c1.16-16.95 9.97-32.1 23.71-45.07 8.25-7.92 22.78-18.55 26.77-21.62 3.7-2.94 7.53-6.35 7.53-13.04 0-8.27-6.56-14.74-14.94-14.74v-12.7a27.33 27.33 0 0 1 27.77 27.28c0 10.95-4.48 18.09-18.62 28.14-16.36 11.9-19.8 14.94-26.23 22.26-6.14 7.13-9.06 13.02-10.29 17.67z" fill="#30b22c"/>
    <path d="M3.75 40.52C3.75 17.62 21.57.47 43.55.47v12.4c-6.62 0-20.75 5.13-25.4 19.19l-.57 5.36z" fill="#f42611"/>
    <path d="M29.72 40.52H3.75l14.4-8.46z" fill="#ffc905"/>
</svg>
