<svg xmlns="http://www.w3.org/2000/svg" version="1" id="svg4" viewBox="0 0 273.91 300">
    <defs id="defs8">
        <clipPath id="a">
            <path id="path4851" d="M43.84 1083.3h57.42v11.37H43.84z"/>
        </clipPath>
        <clipPath id="a-5">
            <path id="path4851-6" d="M43.84 1083.3h57.42v11.37H43.84z"/>
        </clipPath>
    </defs>
    <style id="style7258"/>
    <style id="style6035"/>
    <style id="style5105"/>
    <g id="g5184" transform="translate(-391.64 -11.15) scale(2.10491)">
        <path id="rect5170" d="M186.06 5.3h130.13v130.13H186.06z" fill="#fff" stroke-width=".79"/>
        <path id="path5126" d="M250.32 96.8h31.23v18.87l-7.96-9.29h-41.05z" fill="#0064d3" stroke-width=".75"/>
        <path id="path5128" d="M220.69 115.3c.88-12.79 7.53-24.23 17.9-34.01 6.22-5.98 17.2-14 20.2-16.32 2.8-2.22 5.7-4.8 5.7-9.85A11.07 11.07 0 0 0 253.2 44V34.4A20.63 20.63 0 0 1 274.17 55c0 8.26-3.38 13.65-14.05 21.24-12.36 8.98-14.95 11.27-19.8 16.8-4.64 5.38-6.85 9.83-7.78 13.34z" fill="#30b22c" stroke-width=".75"/>
        <path id="path5130" d="M223.17 55.28c0-17.3 13.45-30.24 30.05-30.24v9.36c-5 0-15.67 3.87-19.18 14.49l-.43 4.04z" fill="#f42611" stroke-width=".75"/>
        <path id="path5132" d="M242.77 55.28h-19.6l10.87-6.4z" fill="#ffc905" stroke-width=".75"/>
    </g>
</svg>
