<svg xmlns="http://www.w3.org/2000/svg" version="1" id="svg4" viewBox="0 0 556.71 300">
    <defs id="defs8">
        <clipPath id="a">
            <path id="path4851" d="M43.84 1083.3h57.42v11.37H43.84z"/>
        </clipPath>
    </defs>
    <style id="style7258"/>
    <style id="style6035"/>
    <style id="style5105"/>
    <g id="g5163" transform="scale(1.05318)" overflow="visible">
        <path id="path5149" d="M0 0h528.6v128H0z" fill="#ec2027"/>
        <path id="path5151" d="M241.1 51.74l29.92-38.01h-81.86c-14.97 22.75-28.95 45.95-43.93 67.19l-.48-.48-41.94-66.71H19.59l80.05 99.8h91.52l49.96-61.79m147.4 19.77c12.6.06 24.97 0 37.91 0 0 7.8 1.23 16.56-1.23 23.44-2.09 3.53-5.3 6.5-9.29 7.4-19.1-.16-37.3.08-57.63 0-4.6-.71-9.15-5.76-10.1-10.05V37.93l1.23-5.85c1.71-3.06 5.22-5.69 8.44-6.82h55.36l4.45.58c5.79 2.3 8.3 7.71 8.91 13.69h65.5c-.04-5.22-1-10.74-3.13-15.13-2.93-5.66-9.86-9.85-15.92-10.64h-146s-21.7-1.32-34.26 1.95c-6.26 2.93-10.57 9.71-10.86 16.46l-.23 51.23c.75 7.18-1.8 15.77 3.12 21.14 4.32 6.68 11.8 8.24 19.06 9.01h158.5c6.01-.06 12.41.75 17.49-1.9 6.77-3.23 11.13-9.99 12.22-17.38l.15-33.74h-103.9l.05 11" overflow="visible" fill="#fff" stroke-width="1.76"/>
    </g>
</svg>
