<svg xmlns="http://www.w3.org/2000/svg" id="Layer_1" width="648.04" height="128">
    <style id="style6035">
        .st0{fill:#353535}.st1{fill:#ec912d}
    </style>
    <g id="g6063" transform="translate(-1.3 106.3)">
        <g id="g13582" transform="translate(-6.74 -112.48) scale(6.18357)">
            <path id="path6037" d="M4.8 1v6.3h6.4V1h3.5v16.3h-3.5v-7H4.8v7H1.3V1z" class="st0" fill="#353535"/>
            <path id="path6039" d="M20.5 14.5c.5.5 1.2.7 2 .7.6 0 1.2-.2 1.6-.5.5-.3.7-.7.8-1h2.8c-.4 1.4-1.1 2.4-2 3-.9.6-2 .9-3.3.9-.9 0-1.7-.1-2.5-.4-.7-.3-1.3-.7-1.8-1.3-.5-.5-.9-1.2-1.2-2-.3-.8-.4-1.6-.4-2.5 0-.9.1-1.7.4-2.5.3-.8.7-1.4 1.2-2 .5-.6 1.1-1 1.9-1.3a6.04 6.04 0 0 1 5 .1c.7.4 1.3.9 1.8 1.6.5.7.8 1.4 1 2.2.2.8.3 1.7.2 2.6h-8.3c.1 1.1.4 1.9.8 2.4zm3.6-6.2c-.4-.4-1-.6-1.7-.6-.5 0-.9.1-1.3.3-.3.2-.6.4-.8.7a3 3 0 0 0-.4.8c-.1.3-.1.5-.1.8h5.1c-.1-1-.4-1.6-.8-2z" class="st0" fill="#353535"/>
            <path id="path6041" d="M40.9 18.2c-.1.6-.4 1.2-.8 1.7s-1 1-1.8 1.3c-.8.4-1.8.5-3.2.5-.6 0-1.1-.1-1.7-.2-.6-.1-1.1-.4-1.6-.7-.5-.3-.9-.7-1.2-1.2-.3-.5-.5-1.1-.5-1.7h3.1c.1.6.4 1 .9 1.3.4.2.9.4 1.5.4.9 0 1.5-.3 1.9-.8.4-.5.6-1.2.6-2.1v-1.6c-.3.6-.8 1.1-1.5 1.4-.6.3-1.3.4-2 .4-.9 0-1.6-.2-2.2-.5-.6-.3-1.1-.7-1.5-1.3-.4-.5-.7-1.2-.9-1.9a8.52 8.52 0 0 1 0-4.5c.2-.7.5-1.3.9-1.9.4-.5.9-1 1.5-1.3.6-.3 1.3-.5 2.1-.5s1.4.1 2 .4c.6.3 1.1.8 1.4 1.5V5.5h3v11c.2.5.2 1.1 0 1.7zm-4.3-4c.3-.2.6-.4.8-.7.2-.3.4-.7.5-1 .1-.4.2-.8.2-1.2 0-.5 0-.9-.1-1.4-.1-.4-.2-.8-.4-1.2-.2-.3-.5-.6-.8-.8-.3-.2-.8-.3-1.3-.3-.4 0-.8.1-1.1.3-.3.2-.6.4-.8.7-.2.3-.4.7-.5 1.1-.1.4-.1.8-.1 1.3 0 .4 0 .8.1 1.3.1.4.2.8.4 1.1.2.3.5.6.8.8.3.2.7.3 1.2.3.4 0 .8-.1 1.1-.3z" class="st0" fill="#353535"/>
            <path id="path6043" d="M46.2 5.5v1.6h.1c.4-.7.9-1.2 1.6-1.5.6-.3 1.3-.5 2-.5.8 0 1.5.1 2.1.4.5.2 1 .6 1.3 1 .3.4.5.9.7 1.5.1.6.2 1.3.2 2v7.3H51v-6.7c0-1-.1-1.7-.4-2.2-.3-.5-.8-.7-1.6-.7-1 0-1.7.3-2 .8-.4.5-.6 1.4-.6 2.6v6.2h-3.2V5.5z" class="st0" fill="#353535"/>
            <path id="path6045" d="M56.3 9.1c0-.8.2-1.4.6-1.9.3-.5.7-.9 1.2-1.2.5-.3 1.1-.5 1.7-.7a12.25 12.25 0 0 1 3.7-.1c.6.1 1.1.2 1.6.5a2.86 2.86 0 0 1 1.7 2.7v6.1c0 .5 0 1 .1 1.5s.2.9.3 1.1H64c-.1-.2-.1-.4-.1-.6 0-.2-.1-.4-.1-.6-.5.5-1.1.9-1.8 1.1a6.8 6.8 0 0 1-3.6.1c-.5-.1-.9-.3-1.2-.6-.4-.3-.6-.7-.8-1.1-.2-.4-.3-1-.3-1.6 0-.7.1-1.2.3-1.7.2-.4.5-.8.9-1 .4-.3.8-.5 1.2-.6l1.4-.3c.5-.1.9-.1 1.4-.2.5 0 .9-.1 1.2-.2.4-.1.6-.2.8-.4.2-.2.3-.4.3-.8 0-.3-.1-.6-.2-.8-.1-.2-.3-.4-.4-.5-.2-.1-.4-.2-.6-.2-.2 0-.5-.1-.8-.1-.6 0-1.1.1-1.5.4-.4.3-.6.7-.6 1.4h-3.2zm7.3 2.4c-.1.1-.3.2-.5.3-.2.1-.4.1-.6.2-.2 0-.5.1-.7.1-.3 0-.5.1-.8.1-.2 0-.5.1-.7.2l-.6.3c-.2.1-.3.3-.4.5-.1.2-.2.4-.2.8 0 .3.1.5.2.7.1.2.2.4.4.5.2.1.4.2.6.2.2 0 .5.1.7.1.6 0 1.1-.1 1.4-.3.3-.2.6-.5.8-.8.2-.3.3-.6.3-.9 0-.3.1-.5.1-.7z" class="st0" fill="#353535"/>
            <path id="path6047" d="M72.3 5.5v2.2c.1-.4.3-.7.6-1 .3-.3.5-.6.9-.8.3-.2.7-.4 1-.5.4-.1.8-.2 1.2-.2.2 0 .4 0 .7.1v3c-.1 0-.3-.1-.5-.1h-.6c-.6 0-1.1.1-1.5.3-.4.2-.7.5-1 .8-.2.3-.4.7-.5 1.2-.1.5-.2 1-.2 1.5v5.3h-3.2V5.5z" class="st0" fill="#353535"/>
            <g id="g6051">
                <path id="path6049" d="M79.5 13.8v3.5H76v-3.5z" class="st1" fill="#ec912d"/>
            </g>
            <g id="g6055">
                <path id="path6053" d="M84.7 5.5v1.6h.1c.4-.7.9-1.2 1.6-1.5.6-.3 1.3-.5 2-.5.8 0 1.5.1 2.1.4.5.2 1 .6 1.3 1 .3.4.5.9.7 1.5.1.6.2 1.3.2 2v7.3h-3.2v-6.7c0-1-.1-1.7-.4-2.2-.6-.4-1.1-.7-1.8-.7-.9 0-1.5.3-1.9.8-.4.5-.6 1.4-.6 2.6v6.2h-3.2V5.5z" class="st1" fill="#ec912d"/>
            </g>
            <g id="g6059">
                <path id="path6057" d="M94.5 8.8a5.33 5.33 0 0 1 3.1-3.3c.7-.3 1.5-.4 2.5-.4.9 0 1.7.1 2.5.4.7.3 1.4.7 1.9 1.3.5.5.9 1.2 1.2 2 .3.8.4 1.6.4 2.6 0 .9-.1 1.8-.4 2.6-.3.8-.7 1.4-1.2 2-.5.5-1.1 1-1.9 1.2-.8.2-1.6.4-2.5.4-.9 0-1.7-.1-2.5-.4-.7-.3-1.4-.7-1.9-1.2s-.9-1.2-1.2-2c-.3-.8-.4-1.6-.4-2.6 0-.9.2-1.8.4-2.6zm2.9 4c.1.4.2.9.5 1.2.2.4.5.6.9.9.4.2.8.3 1.3.3s1-.1 1.3-.3c.4-.2.7-.5.9-.9.2-.4.4-.8.5-1.2.1-.4.1-.9.1-1.4 0-.5 0-.9-.1-1.4-.1-.5-.2-.9-.5-1.2-.2-.3-.5-.6-.9-.9-.4-.2-.8-.3-1.3-.3s-1 .1-1.3.3c-.4.2-.6.5-.9.9-.2.4-.4.8-.5 1.2-.1.5-.1.9-.1 1.4 0 .5 0 .9.1 1.4z" class="st1" fill="#ec912d"/>
            </g>
        </g>
    </g>
</svg>
